<?xml version="1.0" encoding="UTF-8" standalone="no"?>
<!-- Created with Inkscape (http://www.inkscape.org/) -->

<svg
   xmlns:dc="http://purl.org/dc/elements/1.1/"
   xmlns:cc="http://creativecommons.org/ns#"
   xmlns:rdf="http://www.w3.org/1999/02/22-rdf-syntax-ns#"
   xmlns:svg="http://www.w3.org/2000/svg"
   xmlns="http://www.w3.org/2000/svg"
   xmlns:sodipodi="http://sodipodi.sourceforge.net/DTD/sodipodi-0.dtd"
   xmlns:inkscape="http://www.inkscape.org/namespaces/inkscape"
   width="210mm"
   height="297mm"
   viewBox="0 0 210 297"
   version="1.1"
   id="svg8"
   inkscape:version="0.92.5 (2060ec1f9f, 2020-04-08)"
   sodipodi:docname="polymodlogo1.svg">
  <defs
     id="defs2">
    <inkscape:perspective
       sodipodi:type="inkscape:persp3d"
       inkscape:vp_x="0 : 148.5 : 1"
       inkscape:vp_y="0 : 1000 : 0"
       inkscape:vp_z="210 : 148.5 : 1"
       inkscape:persp3d-origin="105 : 99 : 1"
       id="perspective4604" />
  </defs>
  <sodipodi:namedview
     id="base"
     pagecolor="#ffffff"
     bordercolor="#666666"
     borderopacity="1.0"
     inkscape:pageopacity="0.0"
     inkscape:pageshadow="2"
     inkscape:zoom="3.959798"
     inkscape:cx="171.53505"
     inkscape:cy="7.073172"
     inkscape:document-units="mm"
     inkscape:current-layer="layer1"
     showgrid="true"
     inkscape:window-width="1920"
     inkscape:window-height="1057"
     inkscape:window-x="-8"
     inkscape:window-y="-8"
     inkscape:window-maximized="1">
    <inkscape:grid
       type="xygrid"
       id="grid819"
       units="mm"
       spacingx="1"
       spacingy="1" />
  </sodipodi:namedview>
  <metadata
     id="metadata5">
    <rdf:RDF>
      <cc:Work
         rdf:about="">
        <dc:format>image/svg+xml</dc:format>
        <dc:type
           rdf:resource="http://purl.org/dc/dcmitype/StillImage" />
        <dc:title />
      </cc:Work>
    </rdf:RDF>
  </metadata>
  <g
     inkscape:label="Layer 1"
     inkscape:groupmode="layer"
     id="layer1">
    <path
       style="opacity:1;vector-effect:none;fill:#d50000;fill-opacity:1;stroke:none;stroke-width:2.64566922;stroke-linecap:butt;stroke-linejoin:miter;stroke-miterlimit:4;stroke-dasharray:none;stroke-dashoffset:0;stroke-opacity:1"
       d="M 18.898438,1084.7246 A 18.897638,18.897638 0 0 0 0,1103.6211 a 18.897638,18.897638 0 0 0 18.898438,18.8984 18.897638,18.897638 0 0 0 18.896484,-18.8984 18.897638,18.897638 0 0 0 -18.896484,-18.8965 z m 0,4.293 a 15.11811,14.604489 0 0 1 1.507812,0.072 15.11811,14.604489 0 0 1 1.494141,0.2188 15.11811,14.604489 0 0 1 1.464843,0.3613 15.11811,14.604489 0 0 1 1.419922,0.5 15.11811,14.604489 0 0 1 1.361328,0.6348 15.11811,14.604489 0 0 1 1.28711,0.7637 15.11811,14.604489 0 0 1 1.203125,0.8828 15.11811,14.604489 0 0 1 1.105469,0.9961 15.11811,14.604489 0 0 1 0.998046,1.0957 15.11811,14.604489 0 0 1 0.878907,1.1875 15.11811,14.604489 0 0 1 0.751953,1.2675 15.11811,14.604489 0 0 1 0.617187,1.3321 15.11811,14.604489 0 0 1 0.476563,1.3847 15.11811,14.604489 0 0 1 0.330078,1.4258 15.11811,14.604489 0 0 1 0.183594,1.4492 15.11811,14.604489 0 0 1 0.03711,1.0313 15.11811,14.604489 0 0 1 -0.07617,1.459 15.11811,14.604489 0 0 1 -0.224609,1.4433 15.11811,14.604489 0 0 1 -0.375,1.4141 15.11811,14.604489 0 0 1 -0.517578,1.3711 15.11811,14.604489 0 0 1 -0.658204,1.3144 15.11811,14.604489 0 0 1 -0.789062,1.2461 15.11811,14.604489 0 0 1 -0.914062,1.1621 15.11811,14.604489 0 0 1 -1.03125,1.0684 15.11811,14.604489 0 0 1 -1.134766,0.9629 15.11811,14.604489 0 0 1 -1.228516,0.8496 15.11811,14.604489 0 0 1 -1.310547,0.7246 15.11811,14.604489 0 0 1 -1.380859,0.5977 15.11811,14.604489 0 0 1 -1.433594,0.459 15.11811,14.604489 0 0 1 -1.474609,0.3203 15.11811,14.604489 0 0 1 -1.5,0.1758 15.11811,14.604489 0 0 1 -1.068359,0.037 15.11811,14.604489 0 0 1 -1.509766,-0.072 15.11811,14.604489 0 0 1 -1.494141,-0.2188 15.11811,14.604489 0 0 1 -1.464843,-0.3613 15.11811,14.604489 0 0 1 -1.419922,-0.5 15.11811,14.604489 0 0 1 -1.359375,-0.6347 15.11811,14.604489 0 0 1 -1.289063,-0.7637 15.11811,14.604489 0 0 1 -1.2031249,-0.8828 15.11811,14.604489 0 0 1 -1.1054687,-0.9961 15.11811,14.604489 0 0 1 -0.9980469,-1.0957 15.11811,14.604489 0 0 1 -0.8789063,-1.1875 15.11811,14.604489 0 0 1 -0.7519531,-1.2676 15.11811,14.604489 0 0 1 -0.6171875,-1.332 15.11811,14.604489 0 0 1 -0.4765625,-1.3848 A 15.11811,14.604489 0 0 1 4,1106.1035 a 15.11811,14.604489 0 0 1 -0.1816406,-1.4492 15.11811,14.604489 0 0 1 -0.039063,-1.0332 15.11811,14.604489 0 0 1 0.076172,-1.457 15.11811,14.604489 0 0 1 0.2246093,-1.4434 15.11811,14.604489 0 0 1 0.375,-1.4141 15.11811,14.604489 0 0 1 0.5175781,-1.3711 15.11811,14.604489 0 0 1 0.6582032,-1.3144 15.11811,14.604489 0 0 1 0.7890625,-1.2461 15.11811,14.604489 0 0 1 0.9140625,-1.1621 15.11811,14.604489 0 0 1 1.03125,-1.0684 15.11811,14.604489 0 0 1 1.1347656,-0.9629 15.11811,14.604489 0 0 1 1.2285164,-0.8496 15.11811,14.604489 0 0 1 1.3125,-0.7265 15.11811,14.604489 0 0 1 1.378906,-0.5957 15.11811,14.604489 0 0 1 1.433594,-0.461 15.11811,14.604489 0 0 1 1.474609,-0.3183 15.11811,14.604489 0 0 1 1.5,-0.1758 15.11811,14.604489 0 0 1 1.070313,-0.037 z"
       id="path821"
       transform="scale(0.26458333)"
       inkscape:connector-curvature="0" />
    <path
       style="opacity:1;vector-effect:none;fill:#d50000;fill-opacity:1;stroke:none;stroke-width:0.69999999;stroke-linecap:butt;stroke-linejoin:miter;stroke-miterlimit:4;stroke-dasharray:none;stroke-dashoffset:0;stroke-opacity:1"
       d="m 15.500212,287.00005 a 5.0000001,5.0000001 0 0 0 -5.000212,4.9997 5.0000001,5.0000001 0 0 0 5.000212,5.0002 5.0000001,5.0000001 0 0 0 4.999694,-5.0002 5.0000001,5.0000001 0 0 0 -4.999694,-4.9997 z m 0,1.13585 a 3.9999999,3.8641044 0 0 1 0.398942,0.019 3.9999999,3.8641044 0 0 1 0.395325,0.0579 3.9999999,3.8641044 0 0 1 0.387573,0.0956 3.9999999,3.8641044 0 0 1 0.375687,0.13229 3.9999999,3.8641044 0 0 1 0.360185,0.16796 3.9999999,3.8641044 0 0 1 0.340548,0.20206 3.9999999,3.8641044 0 0 1 0.318327,0.23357 3.9999999,3.8641044 0 0 1 0.292488,0.26356 3.9999999,3.8641044 0 0 1 0.264067,0.2899 3.9999999,3.8641044 0 0 1 0.232544,0.31419 3.9999999,3.8641044 0 0 1 0.198954,0.33536 3.9999999,3.8641044 0 0 1 0.163297,0.35245 3.9999999,3.8641044 0 0 1 0.126091,0.36637 3.9999999,3.8641044 0 0 1 0.08733,0.37724 3.9999999,3.8641044 0 0 1 0.04858,0.38344 3.9999999,3.8641044 0 0 1 0.0098,0.27286 3.9999999,3.8641044 0 0 1 -0.02015,0.38603 3.9999999,3.8641044 0 0 1 -0.05943,0.38187 3.9999999,3.8641044 0 0 1 -0.09922,0.37415 3.9999999,3.8641044 0 0 1 -0.136943,0.36277 3.9999999,3.8641044 0 0 1 -0.174149,0.34777 3.9999999,3.8641044 0 0 1 -0.208773,0.3297 3.9999999,3.8641044 0 0 1 -0.241846,0.30747 3.9999999,3.8641044 0 0 1 -0.272851,0.28268 3.9999999,3.8641044 0 0 1 -0.30024,0.25477 3.9999999,3.8641044 0 0 1 -0.325045,0.22479 3.9999999,3.8641044 0 0 1 -0.346749,0.19171 3.9999999,3.8641044 0 0 1 -0.365352,0.15815 3.9999999,3.8641044 0 0 1 -0.379305,0.12144 3.9999999,3.8641044 0 0 1 -0.390157,0.0847 3.9999999,3.8641044 0 0 1 -0.396875,0.0465 3.9999999,3.8641044 0 0 1 -0.28267,0.01 3.9999999,3.8641044 0 0 1 -0.399459,-0.019 3.9999999,3.8641044 0 0 1 -0.395325,-0.0579 3.9999999,3.8641044 0 0 1 -0.387573,-0.0956 3.9999999,3.8641044 0 0 1 -0.375688,-0.13229 3.9999999,3.8641044 0 0 1 -0.359668,-0.16793 3.9999999,3.8641044 0 0 1 -0.341064,-0.20206 3.9999999,3.8641044 0 0 1 -0.318327,-0.23358 3.9999999,3.8641044 0 0 1 -0.292489,-0.26355 3.9999999,3.8641044 0 0 1 -0.264066,-0.2899 3.9999999,3.8641044 0 0 1 -0.232544,-0.31419 3.9999999,3.8641044 0 0 1 -0.198955,-0.33539 3.9999999,3.8641044 0 0 1 -0.163297,-0.35242 3.9999999,3.8641044 0 0 1 -0.126091,-0.3664 3.9999999,3.8641044 0 0 1 -0.08733,-0.37724 3.9999999,3.8641044 0 0 1 -0.04806,-0.38344 3.9999999,3.8641044 0 0 1 -0.01033,-0.27336 3.9999999,3.8641044 0 0 1 0.02015,-0.3855 3.9999999,3.8641044 0 0 1 0.05943,-0.3819 3.9999999,3.8641044 0 0 1 0.09922,-0.37415 3.9999999,3.8641044 0 0 1 0.136942,-0.36277 3.9999999,3.8641044 0 0 1 0.17415,-0.34777 3.9999999,3.8641044 0 0 1 0.208773,-0.32969 3.9999999,3.8641044 0 0 1 0.241845,-0.30748 3.9999999,3.8641044 0 0 1 0.272852,-0.28268 3.9999999,3.8641044 0 0 1 0.30024,-0.25477 3.9999999,3.8641044 0 0 1 0.325045,-0.22479 3.9999999,3.8641044 0 0 1 0.347266,-0.19222 3.9999999,3.8641044 0 0 1 0.364835,-0.15761 3.9999999,3.8641044 0 0 1 0.379305,-0.12197 3.9999999,3.8641044 0 0 1 0.390157,-0.0842 3.9999999,3.8641044 0 0 1 0.396875,-0.0465 3.9999999,3.8641044 0 0 1 0.283187,-0.01 z"
       id="path821-7"
       inkscape:connector-curvature="0" />
    <path
       style="opacity:1;vector-effect:none;fill:#d50000;fill-opacity:1;stroke:none;stroke-width:0.69999999;stroke-linecap:butt;stroke-linejoin:miter;stroke-miterlimit:4;stroke-dasharray:none;stroke-dashoffset:0;stroke-opacity:1"
       d="m 0,292 h 1 v 10 H 0 Z"
       id="rect4620" />
    <path
       style="opacity:1;vector-effect:none;fill:#d50000;fill-opacity:1;stroke:none;stroke-width:0.69999999;stroke-linecap:butt;stroke-linejoin:miter;stroke-miterlimit:4;stroke-dasharray:none;stroke-dashoffset:0;stroke-opacity:1"
       d="m 21,282 h 1 v 15 h -1 z"
       id="rect4620-7" />
    <path
       transform="rotate(30)"
       style="opacity:1;vector-effect:none;fill:#d50000;fill-opacity:1;stroke:none;stroke-width:0.69999999;stroke-linecap:butt;stroke-linejoin:miter;stroke-miterlimit:4;stroke-dasharray:none;stroke-dashoffset:0;stroke-opacity:1"
       d="m 172.5016,231.78152 h 1 v 20 h -1 z"
       id="rect4620-7-5" />
    <path
       transform="rotate(-30)"
       style="opacity:1;vector-effect:none;fill:#d50000;fill-opacity:1;stroke:none;stroke-width:0.69999999;stroke-linecap:butt;stroke-linejoin:miter;stroke-miterlimit:4;stroke-dasharray:none;stroke-dashoffset:0;stroke-opacity:1"
       d="m -123.85489,260.52295 h 1 v 10.8 h -1 z"
       id="rect4620-7-8" />
    <path
       transform="matrix(-0.8660254,-0.5,-0.5,0.8660254,0,0)"
       style="opacity:1;vector-effect:none;fill:#d50000;fill-opacity:1;stroke:none;stroke-width:0.69999999;stroke-linecap:butt;stroke-linejoin:miter;stroke-miterlimit:4;stroke-dasharray:none;stroke-dashoffset:0;stroke-opacity:1"
       d="m -175.88699,230.41313 h 1 v 11.1 h -1 z"
       id="rect4620-7-8-5" />
    <path
       style="opacity:1;vector-effect:none;fill:#d50000;fill-opacity:1;stroke:none;stroke-width:0.69999999;stroke-linecap:butt;stroke-linejoin:miter;stroke-miterlimit:4;stroke-dasharray:none;stroke-dashoffset:0;stroke-opacity:1"
       d="m 36.299999,287 h 1 v 10 h -1 z"
       id="rect4620-7-87" />
    <path
       transform="matrix(-0.8660254,-0.5,-0.5,0.8660254,0,0)"
       style="opacity:1;vector-effect:none;fill:#d50000;fill-opacity:1;stroke:none;stroke-width:0.69999999;stroke-linecap:butt;stroke-linejoin:miter;stroke-miterlimit:4;stroke-dasharray:none;stroke-dashoffset:0;stroke-opacity:1"
       d="m -180.92793,227.50267 h 1 v 11.1 h -1 z"
       id="rect4620-7-8-5-2" />
    <path
       style="opacity:1;vector-effect:none;fill:#d50000;fill-opacity:1;stroke:none;stroke-width:0.69999999;stroke-linecap:butt;stroke-linejoin:miter;stroke-miterlimit:4;stroke-dasharray:none;stroke-dashoffset:0;stroke-opacity:1"
       d="m 42.120838,287 h 1 v 10 h -1 z"
       id="rect4620-7-87-6" />
    <path
       style="opacity:1;vector-effect:none;fill:#d50000;fill-opacity:1;stroke:none;stroke-width:0.69999999;stroke-linecap:butt;stroke-linejoin:miter;stroke-miterlimit:4;stroke-dasharray:none;stroke-dashoffset:0;stroke-opacity:1"
       d="m 59.42055,297 a 5.0000001,5.0000001 0 0 0 5.000215,-4.9997 5.0000001,5.0000001 0 0 0 -5.000215,-5.0002 5.0000001,5.0000001 0 0 0 -4.999697,5.0002 A 5.0000001,5.0000001 0 0 0 59.42055,297 Z m 0,-1.13585 a 3.9999999,3.8641044 0 0 1 -0.398942,-0.019 3.9999999,3.8641044 0 0 1 -0.395325,-0.0579 3.9999999,3.8641044 0 0 1 -0.387573,-0.0956 3.9999999,3.8641044 0 0 1 -0.375688,-0.13229 3.9999999,3.8641044 0 0 1 -0.360185,-0.16796 3.9999999,3.8641044 0 0 1 -0.340548,-0.20206 3.9999999,3.8641044 0 0 1 -0.318327,-0.23357 3.9999999,3.8641044 0 0 1 -0.292489,-0.26356 3.9999999,3.8641044 0 0 1 -0.264066,-0.2899 3.9999999,3.8641044 0 0 1 -0.232544,-0.31419 3.9999999,3.8641044 0 0 1 -0.198955,-0.33536 3.9999999,3.8641044 0 0 1 -0.163297,-0.35245 3.9999999,3.8641044 0 0 1 -0.126091,-0.36637 3.9999999,3.8641044 0 0 1 -0.08733,-0.37724 3.9999999,3.8641044 0 0 1 -0.04858,-0.38344 3.9999999,3.8641044 0 0 1 -0.0098,-0.27286 3.9999999,3.8641044 0 0 1 0.02015,-0.38603 3.9999999,3.8641044 0 0 1 0.05943,-0.38187 3.9999999,3.8641044 0 0 1 0.09922,-0.37415 3.9999999,3.8641044 0 0 1 0.136943,-0.36277 3.9999999,3.8641044 0 0 1 0.174149,-0.34777 3.9999999,3.8641044 0 0 1 0.208773,-0.3297 3.9999999,3.8641044 0 0 1 0.241846,-0.30747 3.9999999,3.8641044 0 0 1 0.272852,-0.28268 3.9999999,3.8641044 0 0 1 0.30024,-0.25477 3.9999999,3.8641044 0 0 1 0.325045,-0.22479 3.9999999,3.8641044 0 0 1 0.346749,-0.19171 3.9999999,3.8641044 0 0 1 0.365353,-0.15815 3.9999999,3.8641044 0 0 1 0.379305,-0.12144 3.9999999,3.8641044 0 0 1 0.390157,-0.0847 3.9999999,3.8641044 0 0 1 0.396875,-0.0465 3.9999999,3.8641044 0 0 1 0.28267,-0.01 3.9999999,3.8641044 0 0 1 0.39946,0.019 3.9999999,3.8641044 0 0 1 0.395324,0.0579 3.9999999,3.8641044 0 0 1 0.387574,0.0956 3.9999999,3.8641044 0 0 1 0.375688,0.13229 3.9999999,3.8641044 0 0 1 0.359668,0.16793 3.9999999,3.8641044 0 0 1 0.341065,0.20206 3.9999999,3.8641044 0 0 1 0.318327,0.23358 3.9999999,3.8641044 0 0 1 0.292488,0.26355 3.9999999,3.8641044 0 0 1 0.264067,0.2899 3.9999999,3.8641044 0 0 1 0.232544,0.31419 3.9999999,3.8641044 0 0 1 0.198955,0.33539 3.9999999,3.8641044 0 0 1 0.163297,0.35242 3.9999999,3.8641044 0 0 1 0.126091,0.3664 3.9999999,3.8641044 0 0 1 0.08733,0.37724 3.9999999,3.8641044 0 0 1 0.04806,0.38344 3.9999999,3.8641044 0 0 1 0.01034,0.27336 3.9999999,3.8641044 0 0 1 -0.02015,0.3855 3.9999999,3.8641044 0 0 1 -0.05943,0.3819 3.9999999,3.8641044 0 0 1 -0.09922,0.37415 3.9999999,3.8641044 0 0 1 -0.136943,0.36277 3.9999999,3.8641044 0 0 1 -0.174149,0.34777 3.9999999,3.8641044 0 0 1 -0.208773,0.32969 3.9999999,3.8641044 0 0 1 -0.241846,0.30748 3.9999999,3.8641044 0 0 1 -0.272852,0.28268 3.9999999,3.8641044 0 0 1 -0.30024,0.25477 3.9999999,3.8641044 0 0 1 -0.325045,0.22479 3.9999999,3.8641044 0 0 1 -0.347266,0.19222 3.9999999,3.8641044 0 0 1 -0.364836,0.15761 3.9999999,3.8641044 0 0 1 -0.379305,0.12197 3.9999999,3.8641044 0 0 1 -0.390157,0.0842 3.9999999,3.8641044 0 0 1 -0.396876,0.0465 3.9999999,3.8641044 0 0 1 -0.283187,0.01 z"
       id="path821-9"
       inkscape:connector-curvature="0" />
    <path
       style="opacity:1;vector-effect:none;fill:#d50000;fill-opacity:1;stroke:none;stroke-width:0.69999999;stroke-linecap:butt;stroke-linejoin:miter;stroke-miterlimit:4;stroke-dasharray:none;stroke-dashoffset:0;stroke-opacity:1"
       d="m 48.920547,297 a 5.0000001,5.0000001 0 0 0 5.000212,-4.9997 5.0000001,5.0000001 0 0 0 -5.000212,-5.0002 5.0000001,5.0000001 0 0 0 -4.999694,5.0002 5.0000001,5.0000001 0 0 0 4.999694,4.9997 z m 0,-1.13585 a 3.9999999,3.8641044 0 0 1 -0.398942,-0.019 3.9999999,3.8641044 0 0 1 -0.395325,-0.0579 3.9999999,3.8641044 0 0 1 -0.387573,-0.0956 3.9999999,3.8641044 0 0 1 -0.375687,-0.13229 3.9999999,3.8641044 0 0 1 -0.360185,-0.16796 3.9999999,3.8641044 0 0 1 -0.340548,-0.20206 3.9999999,3.8641044 0 0 1 -0.318327,-0.23357 3.9999999,3.8641044 0 0 1 -0.292488,-0.26356 3.9999999,3.8641044 0 0 1 -0.264067,-0.2899 3.9999999,3.8641044 0 0 1 -0.232544,-0.31419 3.9999999,3.8641044 0 0 1 -0.198954,-0.33536 3.9999999,3.8641044 0 0 1 -0.163297,-0.35245 3.9999999,3.8641044 0 0 1 -0.126091,-0.36637 3.9999999,3.8641044 0 0 1 -0.08733,-0.37724 3.9999999,3.8641044 0 0 1 -0.04858,-0.38344 3.9999999,3.8641044 0 0 1 -0.0098,-0.27286 3.9999999,3.8641044 0 0 1 0.02015,-0.38603 3.9999999,3.8641044 0 0 1 0.05943,-0.38187 3.9999999,3.8641044 0 0 1 0.09922,-0.37415 3.9999999,3.8641044 0 0 1 0.136943,-0.36277 3.9999999,3.8641044 0 0 1 0.174149,-0.34777 3.9999999,3.8641044 0 0 1 0.208773,-0.3297 3.9999999,3.8641044 0 0 1 0.241846,-0.30747 3.9999999,3.8641044 0 0 1 0.272851,-0.28268 3.9999999,3.8641044 0 0 1 0.30024,-0.25477 3.9999999,3.8641044 0 0 1 0.325045,-0.22479 3.9999999,3.8641044 0 0 1 0.346749,-0.19171 3.9999999,3.8641044 0 0 1 0.365352,-0.15815 3.9999999,3.8641044 0 0 1 0.379305,-0.12144 3.9999999,3.8641044 0 0 1 0.390157,-0.0847 3.9999999,3.8641044 0 0 1 0.396875,-0.0465 3.9999999,3.8641044 0 0 1 0.28267,-0.01 3.9999999,3.8641044 0 0 1 0.399459,0.019 3.9999999,3.8641044 0 0 1 0.395325,0.0579 3.9999999,3.8641044 0 0 1 0.387573,0.0956 3.9999999,3.8641044 0 0 1 0.375688,0.13229 3.9999999,3.8641044 0 0 1 0.359668,0.16793 3.9999999,3.8641044 0 0 1 0.341064,0.20206 3.9999999,3.8641044 0 0 1 0.318327,0.23358 3.9999999,3.8641044 0 0 1 0.292489,0.26355 3.9999999,3.8641044 0 0 1 0.264066,0.2899 3.9999999,3.8641044 0 0 1 0.232544,0.31419 3.9999999,3.8641044 0 0 1 0.198955,0.33539 3.9999999,3.8641044 0 0 1 0.163297,0.35242 3.9999999,3.8641044 0 0 1 0.126091,0.3664 3.9999999,3.8641044 0 0 1 0.08733,0.37724 3.9999999,3.8641044 0 0 1 0.04806,0.38344 3.9999999,3.8641044 0 0 1 0.01033,0.27336 3.9999999,3.8641044 0 0 1 -0.02015,0.3855 3.9999999,3.8641044 0 0 1 -0.05943,0.3819 3.9999999,3.8641044 0 0 1 -0.09922,0.37415 3.9999999,3.8641044 0 0 1 -0.136942,0.36277 3.9999999,3.8641044 0 0 1 -0.17415,0.34777 3.9999999,3.8641044 0 0 1 -0.208773,0.32969 3.9999999,3.8641044 0 0 1 -0.241845,0.30748 3.9999999,3.8641044 0 0 1 -0.272852,0.28268 3.9999999,3.8641044 0 0 1 -0.30024,0.25477 3.9999999,3.8641044 0 0 1 -0.325045,0.22479 3.9999999,3.8641044 0 0 1 -0.347266,0.19222 3.9999999,3.8641044 0 0 1 -0.364835,0.15761 3.9999999,3.8641044 0 0 1 -0.379305,0.12197 3.9999999,3.8641044 0 0 1 -0.390157,0.0842 3.9999999,3.8641044 0 0 1 -0.396875,0.0465 3.9999999,3.8641044 0 0 1 -0.283187,0.01 z"
       id="path821-7-2"
       inkscape:connector-curvature="0" />
    <path
       transform="scale(-1)"
       style="opacity:1;vector-effect:none;fill:#d50000;fill-opacity:1;stroke:none;stroke-width:0.69999999;stroke-linecap:butt;stroke-linejoin:miter;stroke-miterlimit:4;stroke-dasharray:none;stroke-dashoffset:0;stroke-opacity:1"
       d="m -64.420769,-292.00006 h 1 v 10 h -1 z"
       id="rect4620-4" />
  </g>
</svg>
