%TF.GenerationSoftware,KiCad,Pcbnew,(6.0.1)*%
%TF.CreationDate,2022-07-13T15:29:40+01:00*%
%TF.ProjectId,polymod_proto_1,706f6c79-6d6f-4645-9f70-726f746f5f31,rev?*%
%TF.SameCoordinates,Original*%
%TF.FileFunction,Legend,Bot*%
%TF.FilePolarity,Positive*%
%FSLAX46Y46*%
G04 Gerber Fmt 4.6, Leading zero omitted, Abs format (unit mm)*
G04 Created by KiCad (PCBNEW (6.0.1)) date 2022-07-13 15:29:40*
%MOMM*%
%LPD*%
G01*
G04 APERTURE LIST*
%ADD10C,0.150000*%
%ADD11C,0.120000*%
G04 APERTURE END LIST*
D10*
X146638095Y-58852380D02*
X146638095Y-59661904D01*
X146590476Y-59757142D01*
X146542857Y-59804761D01*
X146447619Y-59852380D01*
X146257142Y-59852380D01*
X146161904Y-59804761D01*
X146114285Y-59757142D01*
X146066666Y-59661904D01*
X146066666Y-58852380D01*
X145638095Y-59804761D02*
X145495238Y-59852380D01*
X145257142Y-59852380D01*
X145161904Y-59804761D01*
X145114285Y-59757142D01*
X145066666Y-59661904D01*
X145066666Y-59566666D01*
X145114285Y-59471428D01*
X145161904Y-59423809D01*
X145257142Y-59376190D01*
X145447619Y-59328571D01*
X145542857Y-59280952D01*
X145590476Y-59233333D01*
X145638095Y-59138095D01*
X145638095Y-59042857D01*
X145590476Y-58947619D01*
X145542857Y-58900000D01*
X145447619Y-58852380D01*
X145209523Y-58852380D01*
X145066666Y-58900000D01*
X144304761Y-59328571D02*
X144161904Y-59376190D01*
X144114285Y-59423809D01*
X144066666Y-59519047D01*
X144066666Y-59661904D01*
X144114285Y-59757142D01*
X144161904Y-59804761D01*
X144257142Y-59852380D01*
X144638095Y-59852380D01*
X144638095Y-58852380D01*
X144304761Y-58852380D01*
X144209523Y-58900000D01*
X144161904Y-58947619D01*
X144114285Y-59042857D01*
X144114285Y-59138095D01*
X144161904Y-59233333D01*
X144209523Y-59280952D01*
X144304761Y-59328571D01*
X144638095Y-59328571D01*
X143019047Y-59185714D02*
X142638095Y-59185714D01*
X142876190Y-58852380D02*
X142876190Y-59709523D01*
X142828571Y-59804761D01*
X142733333Y-59852380D01*
X142638095Y-59852380D01*
X142304761Y-59852380D02*
X142304761Y-58852380D01*
X141876190Y-59852380D02*
X141876190Y-59328571D01*
X141923809Y-59233333D01*
X142019047Y-59185714D01*
X142161904Y-59185714D01*
X142257142Y-59233333D01*
X142304761Y-59280952D01*
X141400000Y-59852380D02*
X141400000Y-59185714D01*
X141400000Y-58852380D02*
X141447619Y-58900000D01*
X141400000Y-58947619D01*
X141352380Y-58900000D01*
X141400000Y-58852380D01*
X141400000Y-58947619D01*
X140971428Y-59804761D02*
X140876190Y-59852380D01*
X140685714Y-59852380D01*
X140590476Y-59804761D01*
X140542857Y-59709523D01*
X140542857Y-59661904D01*
X140590476Y-59566666D01*
X140685714Y-59519047D01*
X140828571Y-59519047D01*
X140923809Y-59471428D01*
X140971428Y-59376190D01*
X140971428Y-59328571D01*
X140923809Y-59233333D01*
X140828571Y-59185714D01*
X140685714Y-59185714D01*
X140590476Y-59233333D01*
X138971428Y-59804761D02*
X139066666Y-59852380D01*
X139257142Y-59852380D01*
X139352380Y-59804761D01*
X139400000Y-59709523D01*
X139400000Y-59328571D01*
X139352380Y-59233333D01*
X139257142Y-59185714D01*
X139066666Y-59185714D01*
X138971428Y-59233333D01*
X138923809Y-59328571D01*
X138923809Y-59423809D01*
X139400000Y-59519047D01*
X138495238Y-59185714D02*
X138495238Y-59852380D01*
X138495238Y-59280952D02*
X138447619Y-59233333D01*
X138352380Y-59185714D01*
X138209523Y-59185714D01*
X138114285Y-59233333D01*
X138066666Y-59328571D01*
X138066666Y-59852380D01*
X137161904Y-59852380D02*
X137161904Y-58852380D01*
X137161904Y-59804761D02*
X137257142Y-59852380D01*
X137447619Y-59852380D01*
X137542857Y-59804761D01*
X137590476Y-59757142D01*
X137638095Y-59661904D01*
X137638095Y-59376190D01*
X137590476Y-59280952D01*
X137542857Y-59233333D01*
X137447619Y-59185714D01*
X137257142Y-59185714D01*
X137161904Y-59233333D01*
%TO.C,A1*%
X142671785Y-56066666D02*
X142195595Y-56066666D01*
X142767023Y-56352380D02*
X142433690Y-55352380D01*
X142100357Y-56352380D01*
X141243214Y-56352380D02*
X141814642Y-56352380D01*
X141528928Y-56352380D02*
X141528928Y-55352380D01*
X141624166Y-55495238D01*
X141719404Y-55590476D01*
X141814642Y-55638095D01*
%TO.C,U1*%
X208151904Y-45722380D02*
X208151904Y-46531904D01*
X208104285Y-46627142D01*
X208056666Y-46674761D01*
X207961428Y-46722380D01*
X207770952Y-46722380D01*
X207675714Y-46674761D01*
X207628095Y-46627142D01*
X207580476Y-46531904D01*
X207580476Y-45722380D01*
X206580476Y-46722380D02*
X207151904Y-46722380D01*
X206866190Y-46722380D02*
X206866190Y-45722380D01*
X206961428Y-45865238D01*
X207056666Y-45960476D01*
X207151904Y-46008095D01*
%TO.C,C1*%
X197999046Y-50057142D02*
X198046665Y-50104761D01*
X198189522Y-50152380D01*
X198284760Y-50152380D01*
X198427618Y-50104761D01*
X198522856Y-50009523D01*
X198570475Y-49914285D01*
X198618094Y-49723809D01*
X198618094Y-49580952D01*
X198570475Y-49390476D01*
X198522856Y-49295238D01*
X198427618Y-49200000D01*
X198284760Y-49152380D01*
X198189522Y-49152380D01*
X198046665Y-49200000D01*
X197999046Y-49247619D01*
X197046665Y-50152380D02*
X197618094Y-50152380D01*
X197332380Y-50152380D02*
X197332380Y-49152380D01*
X197427618Y-49295238D01*
X197522856Y-49390476D01*
X197618094Y-49438095D01*
D11*
%TO.C,A1*%
X148377500Y-58100000D02*
X148377500Y-109100000D01*
X150857500Y-58100000D02*
X133057500Y-58100000D01*
X135577500Y-58100000D02*
X135577500Y-109100000D01*
X151157500Y-57800000D02*
X151157500Y-60200000D01*
X145957500Y-56900000D02*
X137957500Y-56900000D01*
X133057500Y-109100000D02*
X150857500Y-109100000D01*
X150857500Y-109100000D02*
X150857500Y-58100000D01*
X145957500Y-58100000D02*
X145957500Y-56900000D01*
X148857500Y-57800000D02*
X151157500Y-57800000D01*
X137957500Y-56900000D02*
X137957500Y-58100000D01*
X133057500Y-58100000D02*
X133057500Y-109100000D01*
%TO.C,U1*%
X212530000Y-57610000D02*
X202250000Y-57610000D01*
X212530000Y-47210000D02*
X212530000Y-57610000D01*
X210040000Y-57550000D02*
X204740000Y-57550000D01*
X202250000Y-47210000D02*
X212530000Y-47210000D01*
X202250000Y-57610000D02*
X202250000Y-47210000D01*
X204740000Y-57550000D02*
X204740000Y-47270000D01*
X210040000Y-47270000D02*
X210040000Y-57550000D01*
X204740000Y-47270000D02*
X206390000Y-47270000D01*
X208390000Y-47270000D02*
X210040000Y-47270000D01*
X206390000Y-47270000D02*
G75*
G03*
X208390000Y-47270000I1000000J0D01*
G01*
%TO.C,C1*%
X195511380Y-51835000D02*
X195511380Y-56365000D01*
X195071380Y-52386000D02*
X195071380Y-55814000D01*
X195551380Y-51795000D02*
X195551380Y-53060000D01*
X197752380Y-50870000D02*
X197752380Y-57330000D01*
X194871380Y-52750000D02*
X194871380Y-55450000D01*
X197632380Y-50876000D02*
X197632380Y-57324000D01*
X196551380Y-55140000D02*
X196551380Y-57070000D01*
X196031380Y-51410000D02*
X196031380Y-53060000D01*
X195151380Y-52266000D02*
X195151380Y-55934000D01*
X196271380Y-55140000D02*
X196271380Y-56934000D01*
X195751380Y-55140000D02*
X195751380Y-56584000D01*
X195191380Y-52210000D02*
X195191380Y-55990000D01*
X197192380Y-50933000D02*
X197192380Y-53060000D01*
X196951380Y-55140000D02*
X196951380Y-57210000D01*
X195671380Y-51684000D02*
X195671380Y-53060000D01*
X195711380Y-55140000D02*
X195711380Y-56550000D01*
X196911380Y-51002000D02*
X196911380Y-53060000D01*
X196431380Y-55140000D02*
X196431380Y-57016000D01*
X197832380Y-50870000D02*
X197832380Y-57330000D01*
X196431380Y-51184000D02*
X196431380Y-53060000D01*
X196271380Y-51266000D02*
X196271380Y-53060000D01*
X195871380Y-55140000D02*
X195871380Y-56678000D01*
X195391380Y-51963000D02*
X195391380Y-56237000D01*
X195031380Y-52450000D02*
X195031380Y-55750000D01*
X196791380Y-51039000D02*
X196791380Y-53060000D01*
X196231380Y-51288000D02*
X196231380Y-53060000D01*
X197152380Y-50941000D02*
X197152380Y-53060000D01*
X195551380Y-55140000D02*
X195551380Y-56405000D01*
X197552380Y-55140000D02*
X197552380Y-57318000D01*
X197392380Y-50899000D02*
X197392380Y-53060000D01*
X196751380Y-51053000D02*
X196751380Y-53060000D01*
X197432380Y-50894000D02*
X197432380Y-53060000D01*
X195751380Y-51616000D02*
X195751380Y-53060000D01*
X195671380Y-55140000D02*
X195671380Y-56516000D01*
X197512380Y-55140000D02*
X197512380Y-57315000D01*
X196671380Y-55140000D02*
X196671380Y-57118000D01*
X196711380Y-51067000D02*
X196711380Y-53060000D01*
X196311380Y-51244000D02*
X196311380Y-53060000D01*
X197111380Y-50950000D02*
X197111380Y-53060000D01*
X197192380Y-55140000D02*
X197192380Y-57267000D01*
X195791380Y-51584000D02*
X195791380Y-53060000D01*
X194791380Y-52935000D02*
X194791380Y-55265000D01*
X197312380Y-55140000D02*
X197312380Y-57289000D01*
X196351380Y-51224000D02*
X196351380Y-53060000D01*
X195591380Y-55140000D02*
X195591380Y-56443000D01*
X196511380Y-55140000D02*
X196511380Y-57052000D01*
X196631380Y-55140000D02*
X196631380Y-57102000D01*
X196351380Y-55140000D02*
X196351380Y-56976000D01*
X196151380Y-55140000D02*
X196151380Y-56866000D01*
X195791380Y-55140000D02*
X195791380Y-56616000D01*
X196111380Y-55140000D02*
X196111380Y-56842000D01*
X195351380Y-52008000D02*
X195351380Y-56192000D01*
X196671380Y-51082000D02*
X196671380Y-53060000D01*
X197352380Y-55140000D02*
X197352380Y-57295000D01*
X195431380Y-51918000D02*
X195431380Y-56282000D01*
X196631380Y-51098000D02*
X196631380Y-53060000D01*
X196991380Y-50979000D02*
X196991380Y-53060000D01*
X197031380Y-55140000D02*
X197031380Y-57231000D01*
X195631380Y-51720000D02*
X195631380Y-53060000D01*
X196831380Y-55140000D02*
X196831380Y-57174000D01*
X197472380Y-55140000D02*
X197472380Y-57311000D01*
X195831380Y-51552000D02*
X195831380Y-53060000D01*
X196911380Y-55140000D02*
X196911380Y-57198000D01*
X195631380Y-55140000D02*
X195631380Y-56480000D01*
X196711380Y-55140000D02*
X196711380Y-57133000D01*
X201332621Y-52261000D02*
X200702621Y-52261000D01*
X195911380Y-51493000D02*
X195911380Y-53060000D01*
X196071380Y-51384000D02*
X196071380Y-53060000D01*
X197232380Y-50925000D02*
X197232380Y-53060000D01*
X197031380Y-50969000D02*
X197031380Y-53060000D01*
X197111380Y-55140000D02*
X197111380Y-57250000D01*
X197592380Y-55140000D02*
X197592380Y-57322000D01*
X194631380Y-53467000D02*
X194631380Y-54733000D01*
X196151380Y-51334000D02*
X196151380Y-53060000D01*
X196871380Y-55140000D02*
X196871380Y-57186000D01*
X196591380Y-55140000D02*
X196591380Y-57086000D01*
X194711380Y-53160000D02*
X194711380Y-55040000D01*
X196591380Y-51114000D02*
X196591380Y-53060000D01*
X194911380Y-52668000D02*
X194911380Y-55532000D01*
X197672380Y-50873000D02*
X197672380Y-57327000D01*
X195111380Y-52324000D02*
X195111380Y-55876000D01*
X196871380Y-51014000D02*
X196871380Y-53060000D01*
X196471380Y-51166000D02*
X196471380Y-53060000D01*
X195911380Y-55140000D02*
X195911380Y-56707000D01*
X195991380Y-55140000D02*
X195991380Y-56764000D01*
X196471380Y-55140000D02*
X196471380Y-57034000D01*
X197152380Y-55140000D02*
X197152380Y-57259000D01*
X195471380Y-51876000D02*
X195471380Y-56324000D01*
X196391380Y-55140000D02*
X196391380Y-56996000D01*
X196111380Y-51358000D02*
X196111380Y-53060000D01*
X195311380Y-52056000D02*
X195311380Y-56144000D01*
X197792380Y-50870000D02*
X197792380Y-57330000D01*
X197392380Y-55140000D02*
X197392380Y-57301000D01*
X197312380Y-50911000D02*
X197312380Y-53060000D01*
X194951380Y-52591000D02*
X194951380Y-55609000D01*
X196311380Y-55140000D02*
X196311380Y-56956000D01*
X195951380Y-51464000D02*
X195951380Y-53060000D01*
X196071380Y-55140000D02*
X196071380Y-56816000D01*
X196551380Y-51130000D02*
X196551380Y-53060000D01*
X197352380Y-50905000D02*
X197352380Y-53060000D01*
X196991380Y-55140000D02*
X196991380Y-57221000D01*
X196191380Y-51310000D02*
X196191380Y-53060000D01*
X196791380Y-55140000D02*
X196791380Y-57161000D01*
X195991380Y-51436000D02*
X195991380Y-53060000D01*
X196511380Y-51148000D02*
X196511380Y-53060000D01*
X194591380Y-53698000D02*
X194591380Y-54502000D01*
X196231380Y-55140000D02*
X196231380Y-56912000D01*
X197712380Y-50872000D02*
X197712380Y-57328000D01*
X197232380Y-55140000D02*
X197232380Y-57275000D01*
X196751380Y-55140000D02*
X196751380Y-57147000D01*
X194751380Y-53041000D02*
X194751380Y-55159000D01*
X194671380Y-53298000D02*
X194671380Y-54902000D01*
X194991380Y-52519000D02*
X194991380Y-55681000D01*
X196831380Y-51026000D02*
X196831380Y-53060000D01*
X197272380Y-55140000D02*
X197272380Y-57282000D01*
X197552380Y-50882000D02*
X197552380Y-53060000D01*
X201017621Y-51946000D02*
X201017621Y-52576000D01*
X195711380Y-51650000D02*
X195711380Y-53060000D01*
X195871380Y-51522000D02*
X195871380Y-53060000D01*
X197512380Y-50885000D02*
X197512380Y-53060000D01*
X196031380Y-55140000D02*
X196031380Y-56790000D01*
X195271380Y-52105000D02*
X195271380Y-56095000D01*
X196191380Y-55140000D02*
X196191380Y-56890000D01*
X197272380Y-50918000D02*
X197272380Y-53060000D01*
X195951380Y-55140000D02*
X195951380Y-56736000D01*
X194831380Y-52838000D02*
X194831380Y-55362000D01*
X197432380Y-55140000D02*
X197432380Y-57306000D01*
X195231380Y-52156000D02*
X195231380Y-56044000D01*
X195831380Y-55140000D02*
X195831380Y-56648000D01*
X197071380Y-50959000D02*
X197071380Y-53060000D01*
X195591380Y-51757000D02*
X195591380Y-53060000D01*
X197071380Y-55140000D02*
X197071380Y-57241000D01*
X196391380Y-51204000D02*
X196391380Y-53060000D01*
X197472380Y-50889000D02*
X197472380Y-53060000D01*
X197592380Y-50878000D02*
X197592380Y-53060000D01*
X196951380Y-50990000D02*
X196951380Y-53060000D01*
X201102380Y-54100000D02*
G75*
G03*
X201102380Y-54100000I-3270000J0D01*
G01*
%TD*%
M02*
