%TF.GenerationSoftware,KiCad,Pcbnew,(6.0.1)*%
%TF.CreationDate,2022-07-13T15:29:40+01:00*%
%TF.ProjectId,polymod_proto_1,706f6c79-6d6f-4645-9f70-726f746f5f31,rev?*%
%TF.SameCoordinates,Original*%
%TF.FileFunction,Soldermask,Bot*%
%TF.FilePolarity,Negative*%
%FSLAX46Y46*%
G04 Gerber Fmt 4.6, Leading zero omitted, Abs format (unit mm)*
G04 Created by KiCad (PCBNEW (6.0.1)) date 2022-07-13 15:29:40*
%MOMM*%
%LPD*%
G01*
G04 APERTURE LIST*
%ADD10C,4.000000*%
%ADD11C,1.800000*%
%ADD12R,1.700000X1.700000*%
%ADD13O,1.700000X1.700000*%
%ADD14O,1.850000X3.048000*%
%ADD15R,1.800000X1.800000*%
%ADD16C,3.200000*%
%ADD17C,1.700000*%
%ADD18R,1.600000X1.600000*%
%ADD19O,1.600000X1.600000*%
%ADD20C,1.600000*%
G04 APERTURE END LIST*
D10*
%TO.C,RV12*%
X205320000Y-101610000D03*
X214120000Y-101610000D03*
D11*
X212220000Y-108610000D03*
X209720000Y-108610000D03*
X207220000Y-108610000D03*
%TD*%
D10*
%TO.C,RV10*%
X174840000Y-101610000D03*
X183640000Y-101610000D03*
D11*
X181740000Y-108610000D03*
X179240000Y-108610000D03*
X176740000Y-108610000D03*
%TD*%
D10*
%TO.C,RV13*%
X159600000Y-119390000D03*
X168400000Y-119390000D03*
D11*
X166500000Y-126390000D03*
X164000000Y-126390000D03*
X161500000Y-126390000D03*
%TD*%
D10*
%TO.C,RV9*%
X159600000Y-101610000D03*
X168400000Y-101610000D03*
D11*
X166500000Y-108610000D03*
X164000000Y-108610000D03*
X161500000Y-108610000D03*
%TD*%
D10*
%TO.C,RV6*%
X174840000Y-83830000D03*
X183640000Y-83830000D03*
D11*
X181740000Y-90830000D03*
X179240000Y-90830000D03*
X176740000Y-90830000D03*
%TD*%
D10*
%TO.C,RV14*%
X174840000Y-119390000D03*
X183640000Y-119390000D03*
D11*
X181740000Y-126390000D03*
X179240000Y-126390000D03*
X176740000Y-126390000D03*
%TD*%
D10*
%TO.C,RV3*%
X190080000Y-66050000D03*
X198880000Y-66050000D03*
D11*
X196980000Y-73050000D03*
X194480000Y-73050000D03*
X191980000Y-73050000D03*
%TD*%
D10*
%TO.C,RV2*%
X174840000Y-66050000D03*
X183640000Y-66050000D03*
D11*
X181740000Y-73050000D03*
X179240000Y-73050000D03*
X176740000Y-73050000D03*
%TD*%
D10*
%TO.C,RV15*%
X190080000Y-119390000D03*
X198880000Y-119390000D03*
D11*
X196980000Y-126390000D03*
X194480000Y-126390000D03*
X191980000Y-126390000D03*
%TD*%
D10*
%TO.C,RV8*%
X205320000Y-83830000D03*
X214120000Y-83830000D03*
D11*
X212220000Y-90830000D03*
X209720000Y-90830000D03*
X207220000Y-90830000D03*
%TD*%
D10*
%TO.C,RV11*%
X190080000Y-101610000D03*
X198880000Y-101610000D03*
D11*
X196980000Y-108610000D03*
X194480000Y-108610000D03*
X191980000Y-108610000D03*
%TD*%
D10*
%TO.C,RV1*%
X159600000Y-66050000D03*
X168400000Y-66050000D03*
D11*
X166500000Y-73050000D03*
X164000000Y-73050000D03*
X161500000Y-73050000D03*
%TD*%
D10*
%TO.C,RV4*%
X205320000Y-66050000D03*
X214120000Y-66050000D03*
D11*
X212220000Y-73050000D03*
X209720000Y-73050000D03*
X207220000Y-73050000D03*
%TD*%
D10*
%TO.C,RV16*%
X205320000Y-119390000D03*
X214120000Y-119390000D03*
D11*
X212220000Y-126390000D03*
X209720000Y-126390000D03*
X207220000Y-126390000D03*
%TD*%
D10*
%TO.C,RV5*%
X159600000Y-83830000D03*
X168400000Y-83830000D03*
D11*
X166500000Y-90830000D03*
X164000000Y-90830000D03*
X161500000Y-90830000D03*
%TD*%
D10*
%TO.C,RV7*%
X190080000Y-83830000D03*
X198880000Y-83830000D03*
D11*
X196980000Y-90830000D03*
X194480000Y-90830000D03*
X191980000Y-90830000D03*
%TD*%
D12*
%TO.C,JP1*%
X185420000Y-53340000D03*
D13*
X187960000Y-53340000D03*
%TD*%
D12*
%TO.C,J10*%
X101600000Y-134620000D03*
D13*
X101600000Y-132080000D03*
X101600000Y-129540000D03*
X101600000Y-127000000D03*
X101600000Y-124460000D03*
X101600000Y-121920000D03*
X101600000Y-119380000D03*
X101600000Y-116840000D03*
%TD*%
D14*
%TO.C,SW3*%
X182120000Y-133340000D03*
X182120000Y-145840000D03*
X187120000Y-145840000D03*
X187120000Y-133340000D03*
%TD*%
D15*
%TO.C,D4*%
X124240000Y-142000000D03*
D11*
X126780000Y-142000000D03*
%TD*%
D12*
%TO.C,J7*%
X109220000Y-66040000D03*
D13*
X109220000Y-63500000D03*
X109220000Y-60960000D03*
X109220000Y-58420000D03*
X109220000Y-55880000D03*
X109220000Y-53340000D03*
X109220000Y-50800000D03*
X109220000Y-48260000D03*
%TD*%
D14*
%TO.C,SW4*%
X197320000Y-145840000D03*
X197320000Y-133340000D03*
X202320000Y-145840000D03*
X202320000Y-133340000D03*
%TD*%
D12*
%TO.C,J4*%
X162560000Y-53340000D03*
D13*
X165100000Y-53340000D03*
%TD*%
D12*
%TO.C,J11*%
X109220000Y-88900000D03*
D13*
X109220000Y-86360000D03*
X109220000Y-83820000D03*
X109220000Y-81280000D03*
X109220000Y-78740000D03*
X109220000Y-76200000D03*
X109220000Y-73660000D03*
X109220000Y-71120000D03*
%TD*%
D16*
%TO.C,H4*%
X215000000Y-136000000D03*
%TD*%
D15*
%TO.C,D5*%
X131860000Y-142000000D03*
D11*
X134400000Y-142000000D03*
%TD*%
D14*
%TO.C,SW1*%
X151600000Y-133540000D03*
X151600000Y-146040000D03*
X156600000Y-146040000D03*
X156600000Y-133540000D03*
%TD*%
D12*
%TO.C,J9*%
X101600000Y-111760000D03*
D13*
X101600000Y-109220000D03*
X101600000Y-106680000D03*
X101600000Y-104140000D03*
X101600000Y-101600000D03*
X101600000Y-99060000D03*
X101600000Y-96520000D03*
X101600000Y-93980000D03*
%TD*%
D15*
%TO.C,D2*%
X109000000Y-142000000D03*
D11*
X111540000Y-142000000D03*
%TD*%
D12*
%TO.C,J8*%
X101600000Y-88900000D03*
D13*
X101600000Y-86360000D03*
X101600000Y-83820000D03*
X101600000Y-81280000D03*
X101600000Y-78740000D03*
X101600000Y-76200000D03*
X101600000Y-73660000D03*
X101600000Y-71120000D03*
%TD*%
D14*
%TO.C,SW2*%
X166880000Y-146040000D03*
X166880000Y-133540000D03*
X171880000Y-133540000D03*
X171880000Y-146040000D03*
%TD*%
D12*
%TO.C,J13*%
X109200000Y-134620000D03*
D13*
X109200000Y-132080000D03*
X109200000Y-129540000D03*
X109200000Y-127000000D03*
X109200000Y-124460000D03*
X109200000Y-121920000D03*
X109200000Y-119380000D03*
X109200000Y-116840000D03*
%TD*%
D12*
%TO.C,J6*%
X101600000Y-66120000D03*
D13*
X101600000Y-63580000D03*
X101600000Y-61040000D03*
X101600000Y-58500000D03*
X101600000Y-55960000D03*
X101600000Y-53420000D03*
X101600000Y-50880000D03*
X101600000Y-48340000D03*
%TD*%
D12*
%TO.C,J1*%
X142660000Y-102700000D03*
D13*
X145200000Y-102700000D03*
%TD*%
D15*
%TO.C,D6*%
X139480000Y-142000000D03*
D11*
X142020000Y-142000000D03*
%TD*%
D16*
%TO.C,H2*%
X205000000Y-39000000D03*
%TD*%
D12*
%TO.C,J14*%
X172720000Y-53340000D03*
D13*
X175260000Y-53340000D03*
X177800000Y-53340000D03*
%TD*%
D12*
%TO.C,J2*%
X134620000Y-38100000D03*
D13*
X137160000Y-38100000D03*
X139700000Y-38100000D03*
%TD*%
D15*
%TO.C,D3*%
X116620000Y-142000000D03*
D11*
X119160000Y-142000000D03*
%TD*%
D12*
%TO.C,J12*%
X109220000Y-111760000D03*
D13*
X109220000Y-109220000D03*
X109220000Y-106680000D03*
X109220000Y-104140000D03*
X109220000Y-101600000D03*
X109220000Y-99060000D03*
X109220000Y-96520000D03*
X109220000Y-93980000D03*
%TD*%
D16*
%TO.C,H3*%
X85000000Y-136000000D03*
%TD*%
D12*
%TO.C,J3*%
X142600000Y-97600000D03*
D13*
X145140000Y-97600000D03*
%TD*%
D16*
%TO.C,H1*%
X95000000Y-39000000D03*
%TD*%
D12*
%TO.C,A1*%
X149577500Y-59500000D03*
D17*
X149577500Y-62040000D03*
X149577500Y-64580000D03*
X149577500Y-67120000D03*
X149577500Y-69660000D03*
X149577500Y-72200000D03*
X149577500Y-74740000D03*
X149577500Y-77280000D03*
X149577500Y-79820000D03*
X149577500Y-82360000D03*
X149577500Y-84900000D03*
X149577500Y-87440000D03*
X149577500Y-89980000D03*
X149577500Y-92520000D03*
X149577500Y-95060000D03*
X149577500Y-97600000D03*
X149577500Y-100140000D03*
X149577500Y-102680000D03*
X149577500Y-105220000D03*
X149577500Y-107760000D03*
X134337500Y-107760000D03*
X134337500Y-105220000D03*
X134337500Y-102680000D03*
X134337500Y-100140000D03*
X134337500Y-97600000D03*
X134337500Y-95060000D03*
X134337500Y-92520000D03*
X134337500Y-89980000D03*
X134337500Y-87440000D03*
X134337500Y-84900000D03*
X134337500Y-82360000D03*
X134337500Y-79820000D03*
X134337500Y-77280000D03*
X134337500Y-74740000D03*
X134337500Y-72200000D03*
X134337500Y-69660000D03*
X134337500Y-67120000D03*
X134337500Y-64580000D03*
X134337500Y-62040000D03*
X134337500Y-59500000D03*
%TD*%
D18*
%TO.C,U1*%
X211200000Y-48600000D03*
D19*
X211200000Y-51140000D03*
X211200000Y-53680000D03*
X211200000Y-56220000D03*
X203580000Y-56220000D03*
X203580000Y-53680000D03*
X203580000Y-51140000D03*
X203580000Y-48600000D03*
%TD*%
D18*
%TO.C,C1*%
X199082380Y-54100000D03*
D20*
X196582380Y-54100000D03*
%TD*%
M02*
