M48
; DRILL file {KiCad (6.0.1)} date Wed Jul 13 15:29:42 2022
; FORMAT={-:-/ absolute / metric / decimal}
; #@! TF.CreationDate,2022-07-13T15:29:42+01:00
; #@! TF.GenerationSoftware,Kicad,Pcbnew,(6.0.1)
; #@! TF.FileFunction,Plated,1,2,PTH
FMAT,2
METRIC
; #@! TA.AperFunction,Plated,PTH,ViaDrill
T1C0.400
; #@! TA.AperFunction,Plated,PTH,ComponentDrill
T2C0.800
; #@! TA.AperFunction,Plated,PTH,ComponentDrill
T3C0.900
; #@! TA.AperFunction,Plated,PTH,ComponentDrill
T4C1.000
; #@! TA.AperFunction,Plated,PTH,ComponentDrill
T5C1.300
%
G90
G05
T1
X82.4Y-58.2
X82.4Y-80.3
X82.4Y-103.5
X82.4Y-123.9
X83.4Y-56.9
X83.4Y-79.0
X83.4Y-102.2
X83.4Y-122.6
X84.3Y-55.6
X84.3Y-63.2
X84.3Y-77.9
X84.3Y-85.5
X84.3Y-100.9
X84.3Y-108.5
X84.4Y-121.3
X88.6Y-130.4
X88.8Y-54.4
X88.8Y-82.9
X88.8Y-99.7
X88.8Y-126.6
X89.524Y-106.0
X89.6Y-76.6
X89.8Y-120.3
X92.2Y-142.4
X93.2Y-141.1
X94.1Y-139.8
X94.1Y-147.3
X94.9Y-144.9
X98.8Y-46.5
X103.9Y-139.3
X104.5Y-69.7
X109.9Y-68.4
X112.2Y-68.5
X112.2Y-91.5
X112.2Y-111.6
X112.5Y-45.6
X113.4Y-46.9
X113.4Y-68.5
X113.4Y-92.9
X113.5Y-112.8
X118.8Y-126.5
X120.5Y-121.9
X120.5Y-126.9
X122.4Y-54.4
X122.4Y-76.5
X122.4Y-77.7
X122.4Y-99.1
X122.4Y-100.5
X122.4Y-119.1
X123.5Y-46.8
X123.5Y-70.1
X123.5Y-92.8
X123.5Y-112.8
X124.6Y-45.5
X124.6Y-69.2
X124.6Y-91.4
X124.6Y-111.5
X125.7Y-58.8
X126.8Y-111.5
X129.6Y-134.0
X133.2Y-111.5
X140.2Y-43.8
X141.9Y-135.2
X142.0Y-122.9
X142.7Y-124.1
X142.7Y-136.1
X143.6Y-125.5
X143.6Y-137.1
X146.9Y-116.6
X146.9Y-121.6
X150.1Y-117.8
X150.6Y-120.3
X151.7Y-122.9
X151.7Y-124.1
X151.7Y-125.4
X154.0Y-114.8
X166.6Y-69.6
T2
X196.582Y-54.1
X199.082Y-54.1
X203.58Y-48.6
X203.58Y-51.14
X203.58Y-53.68
X203.58Y-56.22
X211.2Y-48.6
X211.2Y-51.14
X211.2Y-53.68
X211.2Y-56.22
T3
X109.0Y-142.0
X111.54Y-142.0
X116.62Y-142.0
X119.16Y-142.0
X124.24Y-142.0
X126.78Y-142.0
X131.86Y-142.0
X134.4Y-142.0
X139.48Y-142.0
X142.02Y-142.0
T4
X101.6Y-48.34
X101.6Y-50.88
X101.6Y-53.42
X101.6Y-55.96
X101.6Y-58.5
X101.6Y-61.04
X101.6Y-63.58
X101.6Y-66.12
X101.6Y-71.12
X101.6Y-73.66
X101.6Y-76.2
X101.6Y-78.74
X101.6Y-81.28
X101.6Y-83.82
X101.6Y-86.36
X101.6Y-88.9
X101.6Y-93.98
X101.6Y-96.52
X101.6Y-99.06
X101.6Y-101.6
X101.6Y-104.14
X101.6Y-106.68
X101.6Y-109.22
X101.6Y-111.76
X101.6Y-116.84
X101.6Y-119.38
X101.6Y-121.92
X101.6Y-124.46
X101.6Y-127.0
X101.6Y-129.54
X101.6Y-132.08
X101.6Y-134.62
X109.2Y-116.84
X109.2Y-119.38
X109.2Y-121.92
X109.2Y-124.46
X109.2Y-127.0
X109.2Y-129.54
X109.2Y-132.08
X109.2Y-134.62
X109.22Y-48.26
X109.22Y-50.8
X109.22Y-53.34
X109.22Y-55.88
X109.22Y-58.42
X109.22Y-60.96
X109.22Y-63.5
X109.22Y-66.04
X109.22Y-71.12
X109.22Y-73.66
X109.22Y-76.2
X109.22Y-78.74
X109.22Y-81.28
X109.22Y-83.82
X109.22Y-86.36
X109.22Y-88.9
X109.22Y-93.98
X109.22Y-96.52
X109.22Y-99.06
X109.22Y-101.6
X109.22Y-104.14
X109.22Y-106.68
X109.22Y-109.22
X109.22Y-111.76
X134.338Y-59.5
X134.338Y-62.04
X134.338Y-64.58
X134.338Y-67.12
X134.338Y-69.66
X134.338Y-72.2
X134.338Y-74.74
X134.338Y-77.28
X134.338Y-79.82
X134.338Y-82.36
X134.338Y-84.9
X134.338Y-87.44
X134.338Y-89.98
X134.338Y-92.52
X134.338Y-95.06
X134.338Y-97.6
X134.338Y-100.14
X134.338Y-102.68
X134.338Y-105.22
X134.338Y-107.76
X134.62Y-38.1
X137.16Y-38.1
X139.7Y-38.1
X142.6Y-97.6
X142.66Y-102.7
X145.14Y-97.6
X145.2Y-102.7
X149.577Y-59.5
X149.577Y-62.04
X149.577Y-64.58
X149.577Y-67.12
X149.577Y-69.66
X149.577Y-72.2
X149.577Y-74.74
X149.577Y-77.28
X149.577Y-79.82
X149.577Y-82.36
X149.577Y-84.9
X149.577Y-87.44
X149.577Y-89.98
X149.577Y-92.52
X149.577Y-95.06
X149.577Y-97.6
X149.577Y-100.14
X149.577Y-102.68
X149.577Y-105.22
X149.577Y-107.76
X161.5Y-73.05
X161.5Y-90.83
X161.5Y-108.61
X161.5Y-126.39
X162.56Y-53.34
X164.0Y-73.05
X164.0Y-90.83
X164.0Y-108.61
X164.0Y-126.39
X165.1Y-53.34
X166.5Y-73.05
X166.5Y-90.83
X166.5Y-108.61
X166.5Y-126.39
X172.72Y-53.34
X175.26Y-53.34
X176.74Y-73.05
X176.74Y-90.83
X176.74Y-108.61
X176.74Y-126.39
X177.8Y-53.34
X179.24Y-73.05
X179.24Y-90.83
X179.24Y-108.61
X179.24Y-126.39
X181.74Y-73.05
X181.74Y-90.83
X181.74Y-108.61
X181.74Y-126.39
X185.42Y-53.34
X187.96Y-53.34
X191.98Y-73.05
X191.98Y-90.83
X191.98Y-108.61
X191.98Y-126.39
X194.48Y-73.05
X194.48Y-90.83
X194.48Y-108.61
X194.48Y-126.39
X196.98Y-73.05
X196.98Y-90.83
X196.98Y-108.61
X196.98Y-126.39
X207.22Y-73.05
X207.22Y-90.83
X207.22Y-108.61
X207.22Y-126.39
X209.72Y-73.05
X209.72Y-90.83
X209.72Y-108.61
X209.72Y-126.39
X212.22Y-73.05
X212.22Y-90.83
X212.22Y-108.61
X212.22Y-126.39
T5
X151.6Y-133.54
X151.6Y-146.04
X156.6Y-133.54
X156.6Y-146.04
X166.88Y-133.54
X166.88Y-146.04
X171.88Y-133.54
X171.88Y-146.04
X182.12Y-133.34
X182.12Y-145.84
X187.12Y-133.34
X187.12Y-145.84
X197.32Y-133.34
X197.32Y-145.84
X202.32Y-133.34
X202.32Y-145.84
T0
M30
