M48
; DRILL file {KiCad (6.0.1)} date Wed Jul 13 15:29:42 2022
; FORMAT={-:-/ absolute / metric / decimal}
; #@! TF.CreationDate,2022-07-13T15:29:42+01:00
; #@! TF.GenerationSoftware,Kicad,Pcbnew,(6.0.1)
; #@! TF.FileFunction,NonPlated,1,2,NPTH
FMAT,2
METRIC
; #@! TA.AperFunction,NonPlated,NPTH,ComponentDrill
T1C2.000
; #@! TA.AperFunction,NonPlated,NPTH,ComponentDrill
T2C2.300
; #@! TA.AperFunction,NonPlated,NPTH,ComponentDrill
T3C3.200
%
G90
G05
T1
X168.4Y-66.05
X168.4Y-83.83
X168.4Y-101.61
X168.4Y-119.39
X183.64Y-66.05
X183.64Y-83.83
X183.64Y-101.61
X183.64Y-119.39
X198.88Y-66.05
X198.88Y-83.83
X198.88Y-101.61
X198.88Y-119.39
X214.12Y-66.05
X214.12Y-83.83
X214.12Y-101.61
X214.12Y-119.39
T2
X159.6Y-66.05
X159.6Y-83.83
X159.6Y-101.61
X159.6Y-119.39
X174.84Y-66.05
X174.84Y-83.83
X174.84Y-101.61
X174.84Y-119.39
X190.08Y-66.05
X190.08Y-83.83
X190.08Y-101.61
X190.08Y-119.39
X205.32Y-66.05
X205.32Y-83.83
X205.32Y-101.61
X205.32Y-119.39
T3
X85.0Y-136.0
X95.0Y-39.0
X205.0Y-39.0
X215.0Y-136.0
T0
M30
