%TF.GenerationSoftware,KiCad,Pcbnew,(6.0.1)*%
%TF.CreationDate,2022-07-13T15:29:40+01:00*%
%TF.ProjectId,polymod_proto_1,706f6c79-6d6f-4645-9f70-726f746f5f31,rev?*%
%TF.SameCoordinates,Original*%
%TF.FileFunction,Legend,Top*%
%TF.FilePolarity,Positive*%
%FSLAX46Y46*%
G04 Gerber Fmt 4.6, Leading zero omitted, Abs format (unit mm)*
G04 Created by KiCad (PCBNEW (6.0.1)) date 2022-07-13 15:29:40*
%MOMM*%
%LPD*%
G01*
G04 APERTURE LIST*
%ADD10C,0.200000*%
%ADD11C,0.150000*%
%ADD12C,0.120000*%
G04 APERTURE END LIST*
D10*
X167500000Y-43000000D02*
X167500000Y-39000000D01*
X167500000Y-43000000D02*
G75*
G03*
X167500000Y-43000000I-2000000J0D01*
G01*
X163100000Y-43000000D02*
G75*
G03*
X163100000Y-43000000I-2000000J0D01*
G01*
X158700000Y-41000000D02*
X158700000Y-45000000D01*
X156700000Y-45000000D02*
X158700000Y-41000000D01*
X156700000Y-41000000D02*
X156700000Y-45000000D01*
X154700000Y-45000000D02*
X156700000Y-41000000D01*
X153900000Y-45000000D02*
X152900000Y-47000000D01*
X153900000Y-45000000D02*
X155900000Y-41000000D01*
X153900000Y-45000000D02*
X153900000Y-45000000D01*
X151900000Y-41000000D02*
X153900000Y-45000000D01*
X151500000Y-45000000D02*
X151500000Y-39000000D01*
X142700000Y-43000000D02*
X142700000Y-47000000D01*
X151100000Y-43000000D02*
G75*
G03*
X151100000Y-43000000I-2000000J0D01*
G01*
X146700000Y-43000000D02*
G75*
G03*
X146700000Y-43000000I-2000000J0D01*
G01*
X170668095Y-40037380D02*
X170668095Y-39037380D01*
X171049047Y-39037380D01*
X171144285Y-39085000D01*
X171191904Y-39132619D01*
X171239523Y-39227857D01*
X171239523Y-39370714D01*
X171191904Y-39465952D01*
X171144285Y-39513571D01*
X171049047Y-39561190D01*
X170668095Y-39561190D01*
X171810952Y-40037380D02*
X171715714Y-39989761D01*
X171668095Y-39942142D01*
X171620476Y-39846904D01*
X171620476Y-39561190D01*
X171668095Y-39465952D01*
X171715714Y-39418333D01*
X171810952Y-39370714D01*
X171953809Y-39370714D01*
X172049047Y-39418333D01*
X172096666Y-39465952D01*
X172144285Y-39561190D01*
X172144285Y-39846904D01*
X172096666Y-39942142D01*
X172049047Y-39989761D01*
X171953809Y-40037380D01*
X171810952Y-40037380D01*
X172715714Y-40037380D02*
X172620476Y-39989761D01*
X172572857Y-39894523D01*
X172572857Y-39037380D01*
X173001428Y-39370714D02*
X173239523Y-40037380D01*
X173477619Y-39370714D02*
X173239523Y-40037380D01*
X173144285Y-40275476D01*
X173096666Y-40323095D01*
X173001428Y-40370714D01*
X173858571Y-39370714D02*
X173858571Y-40370714D01*
X173858571Y-39418333D02*
X173953809Y-39370714D01*
X174144285Y-39370714D01*
X174239523Y-39418333D01*
X174287142Y-39465952D01*
X174334761Y-39561190D01*
X174334761Y-39846904D01*
X174287142Y-39942142D01*
X174239523Y-39989761D01*
X174144285Y-40037380D01*
X173953809Y-40037380D01*
X173858571Y-39989761D01*
X174763333Y-40037380D02*
X174763333Y-39037380D01*
X175191904Y-40037380D02*
X175191904Y-39513571D01*
X175144285Y-39418333D01*
X175049047Y-39370714D01*
X174906190Y-39370714D01*
X174810952Y-39418333D01*
X174763333Y-39465952D01*
X175810952Y-40037380D02*
X175715714Y-39989761D01*
X175668095Y-39942142D01*
X175620476Y-39846904D01*
X175620476Y-39561190D01*
X175668095Y-39465952D01*
X175715714Y-39418333D01*
X175810952Y-39370714D01*
X175953809Y-39370714D01*
X176049047Y-39418333D01*
X176096666Y-39465952D01*
X176144285Y-39561190D01*
X176144285Y-39846904D01*
X176096666Y-39942142D01*
X176049047Y-39989761D01*
X175953809Y-40037380D01*
X175810952Y-40037380D01*
X176572857Y-39370714D02*
X176572857Y-40037380D01*
X176572857Y-39465952D02*
X176620476Y-39418333D01*
X176715714Y-39370714D01*
X176858571Y-39370714D01*
X176953809Y-39418333D01*
X177001428Y-39513571D01*
X177001428Y-40037380D01*
X177477619Y-40037380D02*
X177477619Y-39370714D01*
X177477619Y-39037380D02*
X177430000Y-39085000D01*
X177477619Y-39132619D01*
X177525238Y-39085000D01*
X177477619Y-39037380D01*
X177477619Y-39132619D01*
X178382380Y-39989761D02*
X178287142Y-40037380D01*
X178096666Y-40037380D01*
X178001428Y-39989761D01*
X177953809Y-39942142D01*
X177906190Y-39846904D01*
X177906190Y-39561190D01*
X177953809Y-39465952D01*
X178001428Y-39418333D01*
X178096666Y-39370714D01*
X178287142Y-39370714D01*
X178382380Y-39418333D01*
X179525238Y-39989761D02*
X179620476Y-40037380D01*
X179810952Y-40037380D01*
X179906190Y-39989761D01*
X179953809Y-39894523D01*
X179953809Y-39846904D01*
X179906190Y-39751666D01*
X179810952Y-39704047D01*
X179668095Y-39704047D01*
X179572857Y-39656428D01*
X179525238Y-39561190D01*
X179525238Y-39513571D01*
X179572857Y-39418333D01*
X179668095Y-39370714D01*
X179810952Y-39370714D01*
X179906190Y-39418333D01*
X180763333Y-39989761D02*
X180668095Y-40037380D01*
X180477619Y-40037380D01*
X180382380Y-39989761D01*
X180334761Y-39894523D01*
X180334761Y-39513571D01*
X180382380Y-39418333D01*
X180477619Y-39370714D01*
X180668095Y-39370714D01*
X180763333Y-39418333D01*
X180810952Y-39513571D01*
X180810952Y-39608809D01*
X180334761Y-39704047D01*
X181239523Y-40037380D02*
X181239523Y-39370714D01*
X181239523Y-39465952D02*
X181287142Y-39418333D01*
X181382380Y-39370714D01*
X181525238Y-39370714D01*
X181620476Y-39418333D01*
X181668095Y-39513571D01*
X181668095Y-40037380D01*
X181668095Y-39513571D02*
X181715714Y-39418333D01*
X181810952Y-39370714D01*
X181953809Y-39370714D01*
X182049047Y-39418333D01*
X182096666Y-39513571D01*
X182096666Y-40037380D01*
X182572857Y-40037380D02*
X182572857Y-39370714D01*
X182572857Y-39037380D02*
X182525238Y-39085000D01*
X182572857Y-39132619D01*
X182620476Y-39085000D01*
X182572857Y-39037380D01*
X182572857Y-39132619D01*
X183049047Y-39656428D02*
X183810952Y-39656428D01*
X184287142Y-40037380D02*
X184287142Y-39370714D01*
X184287142Y-39465952D02*
X184334761Y-39418333D01*
X184430000Y-39370714D01*
X184572857Y-39370714D01*
X184668095Y-39418333D01*
X184715714Y-39513571D01*
X184715714Y-40037380D01*
X184715714Y-39513571D02*
X184763333Y-39418333D01*
X184858571Y-39370714D01*
X185001428Y-39370714D01*
X185096666Y-39418333D01*
X185144285Y-39513571D01*
X185144285Y-40037380D01*
X185763333Y-40037380D02*
X185668095Y-39989761D01*
X185620476Y-39942142D01*
X185572857Y-39846904D01*
X185572857Y-39561190D01*
X185620476Y-39465952D01*
X185668095Y-39418333D01*
X185763333Y-39370714D01*
X185906190Y-39370714D01*
X186001428Y-39418333D01*
X186049047Y-39465952D01*
X186096666Y-39561190D01*
X186096666Y-39846904D01*
X186049047Y-39942142D01*
X186001428Y-39989761D01*
X185906190Y-40037380D01*
X185763333Y-40037380D01*
X186953809Y-40037380D02*
X186953809Y-39037380D01*
X186953809Y-39989761D02*
X186858571Y-40037380D01*
X186668095Y-40037380D01*
X186572857Y-39989761D01*
X186525238Y-39942142D01*
X186477619Y-39846904D01*
X186477619Y-39561190D01*
X186525238Y-39465952D01*
X186572857Y-39418333D01*
X186668095Y-39370714D01*
X186858571Y-39370714D01*
X186953809Y-39418333D01*
X187858571Y-39370714D02*
X187858571Y-40037380D01*
X187430000Y-39370714D02*
X187430000Y-39894523D01*
X187477619Y-39989761D01*
X187572857Y-40037380D01*
X187715714Y-40037380D01*
X187810952Y-39989761D01*
X187858571Y-39942142D01*
X188477619Y-40037380D02*
X188382380Y-39989761D01*
X188334761Y-39894523D01*
X188334761Y-39037380D01*
X189287142Y-40037380D02*
X189287142Y-39513571D01*
X189239523Y-39418333D01*
X189144285Y-39370714D01*
X188953809Y-39370714D01*
X188858571Y-39418333D01*
X189287142Y-39989761D02*
X189191904Y-40037380D01*
X188953809Y-40037380D01*
X188858571Y-39989761D01*
X188810952Y-39894523D01*
X188810952Y-39799285D01*
X188858571Y-39704047D01*
X188953809Y-39656428D01*
X189191904Y-39656428D01*
X189287142Y-39608809D01*
X189763333Y-40037380D02*
X189763333Y-39370714D01*
X189763333Y-39561190D02*
X189810952Y-39465952D01*
X189858571Y-39418333D01*
X189953809Y-39370714D01*
X190049047Y-39370714D01*
X191096666Y-39989761D02*
X191191904Y-40037380D01*
X191382380Y-40037380D01*
X191477619Y-39989761D01*
X191525238Y-39894523D01*
X191525238Y-39846904D01*
X191477619Y-39751666D01*
X191382380Y-39704047D01*
X191239523Y-39704047D01*
X191144285Y-39656428D01*
X191096666Y-39561190D01*
X191096666Y-39513571D01*
X191144285Y-39418333D01*
X191239523Y-39370714D01*
X191382380Y-39370714D01*
X191477619Y-39418333D01*
X191858571Y-39370714D02*
X192096666Y-40037380D01*
X192334761Y-39370714D02*
X192096666Y-40037380D01*
X192001428Y-40275476D01*
X191953809Y-40323095D01*
X191858571Y-40370714D01*
X192715714Y-39370714D02*
X192715714Y-40037380D01*
X192715714Y-39465952D02*
X192763333Y-39418333D01*
X192858571Y-39370714D01*
X193001428Y-39370714D01*
X193096666Y-39418333D01*
X193144285Y-39513571D01*
X193144285Y-40037380D01*
X193477619Y-39370714D02*
X193858571Y-39370714D01*
X193620476Y-39037380D02*
X193620476Y-39894523D01*
X193668095Y-39989761D01*
X193763333Y-40037380D01*
X193858571Y-40037380D01*
X194191904Y-40037380D02*
X194191904Y-39037380D01*
X194620476Y-40037380D02*
X194620476Y-39513571D01*
X194572857Y-39418333D01*
X194477619Y-39370714D01*
X194334761Y-39370714D01*
X194239523Y-39418333D01*
X194191904Y-39465952D01*
X195477619Y-39989761D02*
X195382380Y-40037380D01*
X195191904Y-40037380D01*
X195096666Y-39989761D01*
X195049047Y-39894523D01*
X195049047Y-39513571D01*
X195096666Y-39418333D01*
X195191904Y-39370714D01*
X195382380Y-39370714D01*
X195477619Y-39418333D01*
X195525238Y-39513571D01*
X195525238Y-39608809D01*
X195049047Y-39704047D01*
X195906190Y-39989761D02*
X196001428Y-40037380D01*
X196191904Y-40037380D01*
X196287142Y-39989761D01*
X196334761Y-39894523D01*
X196334761Y-39846904D01*
X196287142Y-39751666D01*
X196191904Y-39704047D01*
X196049047Y-39704047D01*
X195953809Y-39656428D01*
X195906190Y-39561190D01*
X195906190Y-39513571D01*
X195953809Y-39418333D01*
X196049047Y-39370714D01*
X196191904Y-39370714D01*
X196287142Y-39418333D01*
X196763333Y-40037380D02*
X196763333Y-39370714D01*
X196763333Y-39037380D02*
X196715714Y-39085000D01*
X196763333Y-39132619D01*
X196810952Y-39085000D01*
X196763333Y-39037380D01*
X196763333Y-39132619D01*
X197144285Y-39370714D02*
X197668095Y-39370714D01*
X197144285Y-40037380D01*
X197668095Y-40037380D01*
X198430000Y-39989761D02*
X198334761Y-40037380D01*
X198144285Y-40037380D01*
X198049047Y-39989761D01*
X198001428Y-39894523D01*
X198001428Y-39513571D01*
X198049047Y-39418333D01*
X198144285Y-39370714D01*
X198334761Y-39370714D01*
X198430000Y-39418333D01*
X198477619Y-39513571D01*
X198477619Y-39608809D01*
X198001428Y-39704047D01*
X198906190Y-40037380D02*
X198906190Y-39370714D01*
X198906190Y-39561190D02*
X198953809Y-39465952D01*
X199001428Y-39418333D01*
X199096666Y-39370714D01*
X199191904Y-39370714D01*
X171001428Y-41123571D02*
X171144285Y-41171190D01*
X171191904Y-41218809D01*
X171239523Y-41314047D01*
X171239523Y-41456904D01*
X171191904Y-41552142D01*
X171144285Y-41599761D01*
X171049047Y-41647380D01*
X170668095Y-41647380D01*
X170668095Y-40647380D01*
X171001428Y-40647380D01*
X171096666Y-40695000D01*
X171144285Y-40742619D01*
X171191904Y-40837857D01*
X171191904Y-40933095D01*
X171144285Y-41028333D01*
X171096666Y-41075952D01*
X171001428Y-41123571D01*
X170668095Y-41123571D01*
X171668095Y-41647380D02*
X171668095Y-40980714D01*
X171668095Y-41171190D02*
X171715714Y-41075952D01*
X171763333Y-41028333D01*
X171858571Y-40980714D01*
X171953809Y-40980714D01*
X172715714Y-41647380D02*
X172715714Y-41123571D01*
X172668095Y-41028333D01*
X172572857Y-40980714D01*
X172382380Y-40980714D01*
X172287142Y-41028333D01*
X172715714Y-41599761D02*
X172620476Y-41647380D01*
X172382380Y-41647380D01*
X172287142Y-41599761D01*
X172239523Y-41504523D01*
X172239523Y-41409285D01*
X172287142Y-41314047D01*
X172382380Y-41266428D01*
X172620476Y-41266428D01*
X172715714Y-41218809D01*
X173620476Y-41647380D02*
X173620476Y-40647380D01*
X173620476Y-41599761D02*
X173525238Y-41647380D01*
X173334761Y-41647380D01*
X173239523Y-41599761D01*
X173191904Y-41552142D01*
X173144285Y-41456904D01*
X173144285Y-41171190D01*
X173191904Y-41075952D01*
X173239523Y-41028333D01*
X173334761Y-40980714D01*
X173525238Y-40980714D01*
X173620476Y-41028333D01*
X174049047Y-41599761D02*
X174144285Y-41647380D01*
X174334761Y-41647380D01*
X174430000Y-41599761D01*
X174477619Y-41504523D01*
X174477619Y-41456904D01*
X174430000Y-41361666D01*
X174334761Y-41314047D01*
X174191904Y-41314047D01*
X174096666Y-41266428D01*
X174049047Y-41171190D01*
X174049047Y-41123571D01*
X174096666Y-41028333D01*
X174191904Y-40980714D01*
X174334761Y-40980714D01*
X174430000Y-41028333D01*
X174906190Y-41647380D02*
X174906190Y-40647380D01*
X175334761Y-41647380D02*
X175334761Y-41123571D01*
X175287142Y-41028333D01*
X175191904Y-40980714D01*
X175049047Y-40980714D01*
X174953809Y-41028333D01*
X174906190Y-41075952D01*
X176239523Y-41647380D02*
X176239523Y-41123571D01*
X176191904Y-41028333D01*
X176096666Y-40980714D01*
X175906190Y-40980714D01*
X175810952Y-41028333D01*
X176239523Y-41599761D02*
X176144285Y-41647380D01*
X175906190Y-41647380D01*
X175810952Y-41599761D01*
X175763333Y-41504523D01*
X175763333Y-41409285D01*
X175810952Y-41314047D01*
X175906190Y-41266428D01*
X176144285Y-41266428D01*
X176239523Y-41218809D01*
X176620476Y-40980714D02*
X176810952Y-41647380D01*
X177001428Y-41171190D01*
X177191904Y-41647380D01*
X177382380Y-40980714D01*
X178525238Y-41647380D02*
X178525238Y-40647380D01*
X179001428Y-40980714D02*
X179001428Y-41647380D01*
X179001428Y-41075952D02*
X179049047Y-41028333D01*
X179144285Y-40980714D01*
X179287142Y-40980714D01*
X179382380Y-41028333D01*
X179430000Y-41123571D01*
X179430000Y-41647380D01*
X179858571Y-41599761D02*
X179953809Y-41647380D01*
X180144285Y-41647380D01*
X180239523Y-41599761D01*
X180287142Y-41504523D01*
X180287142Y-41456904D01*
X180239523Y-41361666D01*
X180144285Y-41314047D01*
X180001428Y-41314047D01*
X179906190Y-41266428D01*
X179858571Y-41171190D01*
X179858571Y-41123571D01*
X179906190Y-41028333D01*
X180001428Y-40980714D01*
X180144285Y-40980714D01*
X180239523Y-41028333D01*
X180572857Y-40980714D02*
X180953809Y-40980714D01*
X180715714Y-40647380D02*
X180715714Y-41504523D01*
X180763333Y-41599761D01*
X180858571Y-41647380D01*
X180953809Y-41647380D01*
X181287142Y-41647380D02*
X181287142Y-40980714D01*
X181287142Y-41171190D02*
X181334761Y-41075952D01*
X181382380Y-41028333D01*
X181477619Y-40980714D01*
X181572857Y-40980714D01*
X182334761Y-40980714D02*
X182334761Y-41647380D01*
X181906190Y-40980714D02*
X181906190Y-41504523D01*
X181953809Y-41599761D01*
X182049047Y-41647380D01*
X182191904Y-41647380D01*
X182287142Y-41599761D01*
X182334761Y-41552142D01*
X182810952Y-41647380D02*
X182810952Y-40980714D01*
X182810952Y-41075952D02*
X182858571Y-41028333D01*
X182953809Y-40980714D01*
X183096666Y-40980714D01*
X183191904Y-41028333D01*
X183239523Y-41123571D01*
X183239523Y-41647380D01*
X183239523Y-41123571D02*
X183287142Y-41028333D01*
X183382380Y-40980714D01*
X183525238Y-40980714D01*
X183620476Y-41028333D01*
X183668095Y-41123571D01*
X183668095Y-41647380D01*
X184525238Y-41599761D02*
X184430000Y-41647380D01*
X184239523Y-41647380D01*
X184144285Y-41599761D01*
X184096666Y-41504523D01*
X184096666Y-41123571D01*
X184144285Y-41028333D01*
X184239523Y-40980714D01*
X184430000Y-40980714D01*
X184525238Y-41028333D01*
X184572857Y-41123571D01*
X184572857Y-41218809D01*
X184096666Y-41314047D01*
X185001428Y-40980714D02*
X185001428Y-41647380D01*
X185001428Y-41075952D02*
X185049047Y-41028333D01*
X185144285Y-40980714D01*
X185287142Y-40980714D01*
X185382380Y-41028333D01*
X185430000Y-41123571D01*
X185430000Y-41647380D01*
X185763333Y-40980714D02*
X186144285Y-40980714D01*
X185906190Y-40647380D02*
X185906190Y-41504523D01*
X185953809Y-41599761D01*
X186049047Y-41647380D01*
X186144285Y-41647380D01*
X186430000Y-41599761D02*
X186525238Y-41647380D01*
X186715714Y-41647380D01*
X186810952Y-41599761D01*
X186858571Y-41504523D01*
X186858571Y-41456904D01*
X186810952Y-41361666D01*
X186715714Y-41314047D01*
X186572857Y-41314047D01*
X186477619Y-41266428D01*
X186430000Y-41171190D01*
X186430000Y-41123571D01*
X186477619Y-41028333D01*
X186572857Y-40980714D01*
X186715714Y-40980714D01*
X186810952Y-41028333D01*
X188334761Y-42028333D02*
X188287142Y-41980714D01*
X188191904Y-41837857D01*
X188144285Y-41742619D01*
X188096666Y-41599761D01*
X188049047Y-41361666D01*
X188049047Y-41171190D01*
X188096666Y-40933095D01*
X188144285Y-40790238D01*
X188191904Y-40695000D01*
X188287142Y-40552142D01*
X188334761Y-40504523D01*
X188715714Y-40980714D02*
X188715714Y-41980714D01*
X188715714Y-41028333D02*
X188810952Y-40980714D01*
X189001428Y-40980714D01*
X189096666Y-41028333D01*
X189144285Y-41075952D01*
X189191904Y-41171190D01*
X189191904Y-41456904D01*
X189144285Y-41552142D01*
X189096666Y-41599761D01*
X189001428Y-41647380D01*
X188810952Y-41647380D01*
X188715714Y-41599761D01*
X189620476Y-41647380D02*
X189620476Y-40980714D01*
X189620476Y-41171190D02*
X189668095Y-41075952D01*
X189715714Y-41028333D01*
X189810952Y-40980714D01*
X189906190Y-40980714D01*
X190382380Y-41647380D02*
X190287142Y-41599761D01*
X190239523Y-41552142D01*
X190191904Y-41456904D01*
X190191904Y-41171190D01*
X190239523Y-41075952D01*
X190287142Y-41028333D01*
X190382380Y-40980714D01*
X190525238Y-40980714D01*
X190620476Y-41028333D01*
X190668095Y-41075952D01*
X190715714Y-41171190D01*
X190715714Y-41456904D01*
X190668095Y-41552142D01*
X190620476Y-41599761D01*
X190525238Y-41647380D01*
X190382380Y-41647380D01*
X191001428Y-40980714D02*
X191382380Y-40980714D01*
X191144285Y-40647380D02*
X191144285Y-41504523D01*
X191191904Y-41599761D01*
X191287142Y-41647380D01*
X191382380Y-41647380D01*
X191858571Y-41647380D02*
X191763333Y-41599761D01*
X191715714Y-41552142D01*
X191668095Y-41456904D01*
X191668095Y-41171190D01*
X191715714Y-41075952D01*
X191763333Y-41028333D01*
X191858571Y-40980714D01*
X192001428Y-40980714D01*
X192096666Y-41028333D01*
X192144285Y-41075952D01*
X192191904Y-41171190D01*
X192191904Y-41456904D01*
X192144285Y-41552142D01*
X192096666Y-41599761D01*
X192001428Y-41647380D01*
X191858571Y-41647380D01*
X192477619Y-40980714D02*
X192858571Y-40980714D01*
X192620476Y-40647380D02*
X192620476Y-41504523D01*
X192668095Y-41599761D01*
X192763333Y-41647380D01*
X192858571Y-41647380D01*
X193096666Y-40980714D02*
X193334761Y-41647380D01*
X193572857Y-40980714D02*
X193334761Y-41647380D01*
X193239523Y-41885476D01*
X193191904Y-41933095D01*
X193096666Y-41980714D01*
X193953809Y-40980714D02*
X193953809Y-41980714D01*
X193953809Y-41028333D02*
X194049047Y-40980714D01*
X194239523Y-40980714D01*
X194334761Y-41028333D01*
X194382380Y-41075952D01*
X194430000Y-41171190D01*
X194430000Y-41456904D01*
X194382380Y-41552142D01*
X194334761Y-41599761D01*
X194239523Y-41647380D01*
X194049047Y-41647380D01*
X193953809Y-41599761D01*
X195239523Y-41599761D02*
X195144285Y-41647380D01*
X194953809Y-41647380D01*
X194858571Y-41599761D01*
X194810952Y-41504523D01*
X194810952Y-41123571D01*
X194858571Y-41028333D01*
X194953809Y-40980714D01*
X195144285Y-40980714D01*
X195239523Y-41028333D01*
X195287142Y-41123571D01*
X195287142Y-41218809D01*
X194810952Y-41314047D01*
X195620476Y-42028333D02*
X195668095Y-41980714D01*
X195763333Y-41837857D01*
X195810952Y-41742619D01*
X195858571Y-41599761D01*
X195906190Y-41361666D01*
X195906190Y-41171190D01*
X195858571Y-40933095D01*
X195810952Y-40790238D01*
X195763333Y-40695000D01*
X195668095Y-40552142D01*
X195620476Y-40504523D01*
X171001428Y-42733571D02*
X170668095Y-42733571D01*
X170668095Y-43257380D02*
X170668095Y-42257380D01*
X171144285Y-42257380D01*
X171668095Y-43257380D02*
X171572857Y-43209761D01*
X171525238Y-43162142D01*
X171477619Y-43066904D01*
X171477619Y-42781190D01*
X171525238Y-42685952D01*
X171572857Y-42638333D01*
X171668095Y-42590714D01*
X171810952Y-42590714D01*
X171906190Y-42638333D01*
X171953809Y-42685952D01*
X172001428Y-42781190D01*
X172001428Y-43066904D01*
X171953809Y-43162142D01*
X171906190Y-43209761D01*
X171810952Y-43257380D01*
X171668095Y-43257380D01*
X172430000Y-43257380D02*
X172430000Y-42590714D01*
X172430000Y-42781190D02*
X172477619Y-42685952D01*
X172525238Y-42638333D01*
X172620476Y-42590714D01*
X172715714Y-42590714D01*
X174334761Y-43257380D02*
X173763333Y-43257380D01*
X174049047Y-43257380D02*
X174049047Y-42257380D01*
X173953809Y-42400238D01*
X173858571Y-42495476D01*
X173763333Y-42543095D01*
X175239523Y-42257380D02*
X174763333Y-42257380D01*
X174715714Y-42733571D01*
X174763333Y-42685952D01*
X174858571Y-42638333D01*
X175096666Y-42638333D01*
X175191904Y-42685952D01*
X175239523Y-42733571D01*
X175287142Y-42828809D01*
X175287142Y-43066904D01*
X175239523Y-43162142D01*
X175191904Y-43209761D01*
X175096666Y-43257380D01*
X174858571Y-43257380D01*
X174763333Y-43209761D01*
X174715714Y-43162142D01*
X175763333Y-43257380D02*
X175953809Y-43257380D01*
X176049047Y-43209761D01*
X176096666Y-43162142D01*
X176191904Y-43019285D01*
X176239523Y-42828809D01*
X176239523Y-42447857D01*
X176191904Y-42352619D01*
X176144285Y-42305000D01*
X176049047Y-42257380D01*
X175858571Y-42257380D01*
X175763333Y-42305000D01*
X175715714Y-42352619D01*
X175668095Y-42447857D01*
X175668095Y-42685952D01*
X175715714Y-42781190D01*
X175763333Y-42828809D01*
X175858571Y-42876428D01*
X176049047Y-42876428D01*
X176144285Y-42828809D01*
X176191904Y-42781190D01*
X176239523Y-42685952D01*
X176858571Y-42257380D02*
X176953809Y-42257380D01*
X177049047Y-42305000D01*
X177096666Y-42352619D01*
X177144285Y-42447857D01*
X177191904Y-42638333D01*
X177191904Y-42876428D01*
X177144285Y-43066904D01*
X177096666Y-43162142D01*
X177049047Y-43209761D01*
X176953809Y-43257380D01*
X176858571Y-43257380D01*
X176763333Y-43209761D01*
X176715714Y-43162142D01*
X176668095Y-43066904D01*
X176620476Y-42876428D01*
X176620476Y-42638333D01*
X176668095Y-42447857D01*
X176715714Y-42352619D01*
X176763333Y-42305000D01*
X176858571Y-42257380D01*
X177525238Y-42257380D02*
X178191904Y-43257380D01*
X178191904Y-42257380D02*
X177525238Y-43257380D01*
X178477619Y-42257380D02*
X179144285Y-43257380D01*
X179144285Y-42257380D02*
X178477619Y-43257380D01*
X180715714Y-43209761D02*
X180620476Y-43257380D01*
X180430000Y-43257380D01*
X180334761Y-43209761D01*
X180287142Y-43162142D01*
X180239523Y-43066904D01*
X180239523Y-42781190D01*
X180287142Y-42685952D01*
X180334761Y-42638333D01*
X180430000Y-42590714D01*
X180620476Y-42590714D01*
X180715714Y-42638333D01*
X181572857Y-43257380D02*
X181572857Y-42733571D01*
X181525238Y-42638333D01*
X181430000Y-42590714D01*
X181239523Y-42590714D01*
X181144285Y-42638333D01*
X181572857Y-43209761D02*
X181477619Y-43257380D01*
X181239523Y-43257380D01*
X181144285Y-43209761D01*
X181096666Y-43114523D01*
X181096666Y-43019285D01*
X181144285Y-42924047D01*
X181239523Y-42876428D01*
X181477619Y-42876428D01*
X181572857Y-42828809D01*
X182001428Y-43209761D02*
X182096666Y-43257380D01*
X182287142Y-43257380D01*
X182382380Y-43209761D01*
X182430000Y-43114523D01*
X182430000Y-43066904D01*
X182382380Y-42971666D01*
X182287142Y-42924047D01*
X182144285Y-42924047D01*
X182049047Y-42876428D01*
X182001428Y-42781190D01*
X182001428Y-42733571D01*
X182049047Y-42638333D01*
X182144285Y-42590714D01*
X182287142Y-42590714D01*
X182382380Y-42638333D01*
X183239523Y-43209761D02*
X183144285Y-43257380D01*
X182953809Y-43257380D01*
X182858571Y-43209761D01*
X182810952Y-43114523D01*
X182810952Y-42733571D01*
X182858571Y-42638333D01*
X182953809Y-42590714D01*
X183144285Y-42590714D01*
X183239523Y-42638333D01*
X183287142Y-42733571D01*
X183287142Y-42828809D01*
X182810952Y-42924047D01*
X170953809Y-43867380D02*
X170953809Y-44581666D01*
X170906190Y-44724523D01*
X170810952Y-44819761D01*
X170668095Y-44867380D01*
X170572857Y-44867380D01*
X171858571Y-44200714D02*
X171858571Y-44867380D01*
X171430000Y-44200714D02*
X171430000Y-44724523D01*
X171477619Y-44819761D01*
X171572857Y-44867380D01*
X171715714Y-44867380D01*
X171810952Y-44819761D01*
X171858571Y-44772142D01*
X172477619Y-44867380D02*
X172382380Y-44819761D01*
X172334761Y-44724523D01*
X172334761Y-43867380D01*
X172763333Y-44200714D02*
X173001428Y-44867380D01*
X173239523Y-44200714D02*
X173001428Y-44867380D01*
X172906190Y-45105476D01*
X172858571Y-45153095D01*
X172763333Y-45200714D01*
X174334761Y-43962619D02*
X174382380Y-43915000D01*
X174477619Y-43867380D01*
X174715714Y-43867380D01*
X174810952Y-43915000D01*
X174858571Y-43962619D01*
X174906190Y-44057857D01*
X174906190Y-44153095D01*
X174858571Y-44295952D01*
X174287142Y-44867380D01*
X174906190Y-44867380D01*
X175525238Y-43867380D02*
X175620476Y-43867380D01*
X175715714Y-43915000D01*
X175763333Y-43962619D01*
X175810952Y-44057857D01*
X175858571Y-44248333D01*
X175858571Y-44486428D01*
X175810952Y-44676904D01*
X175763333Y-44772142D01*
X175715714Y-44819761D01*
X175620476Y-44867380D01*
X175525238Y-44867380D01*
X175430000Y-44819761D01*
X175382380Y-44772142D01*
X175334761Y-44676904D01*
X175287142Y-44486428D01*
X175287142Y-44248333D01*
X175334761Y-44057857D01*
X175382380Y-43962619D01*
X175430000Y-43915000D01*
X175525238Y-43867380D01*
X176239523Y-43962619D02*
X176287142Y-43915000D01*
X176382380Y-43867380D01*
X176620476Y-43867380D01*
X176715714Y-43915000D01*
X176763333Y-43962619D01*
X176810952Y-44057857D01*
X176810952Y-44153095D01*
X176763333Y-44295952D01*
X176191904Y-44867380D01*
X176810952Y-44867380D01*
X177191904Y-43962619D02*
X177239523Y-43915000D01*
X177334761Y-43867380D01*
X177572857Y-43867380D01*
X177668095Y-43915000D01*
X177715714Y-43962619D01*
X177763333Y-44057857D01*
X177763333Y-44153095D01*
X177715714Y-44295952D01*
X177144285Y-44867380D01*
X177763333Y-44867380D01*
D11*
X142138095Y-105066428D02*
X142900000Y-105066428D01*
X144900000Y-105066428D02*
X145661904Y-105066428D01*
X145280952Y-105447380D02*
X145280952Y-104685476D01*
X140495238Y-106771666D02*
X140971428Y-106771666D01*
X140400000Y-107057380D02*
X140733333Y-106057380D01*
X141066666Y-107057380D01*
X141828571Y-106390714D02*
X141828571Y-107057380D01*
X141400000Y-106390714D02*
X141400000Y-106914523D01*
X141447619Y-107009761D01*
X141542857Y-107057380D01*
X141685714Y-107057380D01*
X141780952Y-107009761D01*
X141828571Y-106962142D01*
X142733333Y-107057380D02*
X142733333Y-106057380D01*
X142733333Y-107009761D02*
X142638095Y-107057380D01*
X142447619Y-107057380D01*
X142352380Y-107009761D01*
X142304761Y-106962142D01*
X142257142Y-106866904D01*
X142257142Y-106581190D01*
X142304761Y-106485952D01*
X142352380Y-106438333D01*
X142447619Y-106390714D01*
X142638095Y-106390714D01*
X142733333Y-106438333D01*
X143209523Y-107057380D02*
X143209523Y-106390714D01*
X143209523Y-106057380D02*
X143161904Y-106105000D01*
X143209523Y-106152619D01*
X143257142Y-106105000D01*
X143209523Y-106057380D01*
X143209523Y-106152619D01*
X143828571Y-107057380D02*
X143733333Y-107009761D01*
X143685714Y-106962142D01*
X143638095Y-106866904D01*
X143638095Y-106581190D01*
X143685714Y-106485952D01*
X143733333Y-106438333D01*
X143828571Y-106390714D01*
X143971428Y-106390714D01*
X144066666Y-106438333D01*
X144114285Y-106485952D01*
X144161904Y-106581190D01*
X144161904Y-106866904D01*
X144114285Y-106962142D01*
X144066666Y-107009761D01*
X143971428Y-107057380D01*
X143828571Y-107057380D01*
X145495238Y-107057380D02*
X145400000Y-107009761D01*
X145352380Y-106962142D01*
X145304761Y-106866904D01*
X145304761Y-106581190D01*
X145352380Y-106485952D01*
X145400000Y-106438333D01*
X145495238Y-106390714D01*
X145638095Y-106390714D01*
X145733333Y-106438333D01*
X145780952Y-106485952D01*
X145828571Y-106581190D01*
X145828571Y-106866904D01*
X145780952Y-106962142D01*
X145733333Y-107009761D01*
X145638095Y-107057380D01*
X145495238Y-107057380D01*
X146685714Y-106390714D02*
X146685714Y-107057380D01*
X146257142Y-106390714D02*
X146257142Y-106914523D01*
X146304761Y-107009761D01*
X146400000Y-107057380D01*
X146542857Y-107057380D01*
X146638095Y-107009761D01*
X146685714Y-106962142D01*
X147019047Y-106390714D02*
X147400000Y-106390714D01*
X147161904Y-106057380D02*
X147161904Y-106914523D01*
X147209523Y-107009761D01*
X147304761Y-107057380D01*
X147400000Y-107057380D01*
X140895238Y-93661666D02*
X141371428Y-93661666D01*
X140800000Y-93947380D02*
X141133333Y-92947380D01*
X141466666Y-93947380D01*
X142228571Y-93280714D02*
X142228571Y-93947380D01*
X141800000Y-93280714D02*
X141800000Y-93804523D01*
X141847619Y-93899761D01*
X141942857Y-93947380D01*
X142085714Y-93947380D01*
X142180952Y-93899761D01*
X142228571Y-93852142D01*
X143133333Y-93947380D02*
X143133333Y-92947380D01*
X143133333Y-93899761D02*
X143038095Y-93947380D01*
X142847619Y-93947380D01*
X142752380Y-93899761D01*
X142704761Y-93852142D01*
X142657142Y-93756904D01*
X142657142Y-93471190D01*
X142704761Y-93375952D01*
X142752380Y-93328333D01*
X142847619Y-93280714D01*
X143038095Y-93280714D01*
X143133333Y-93328333D01*
X143609523Y-93947380D02*
X143609523Y-93280714D01*
X143609523Y-92947380D02*
X143561904Y-92995000D01*
X143609523Y-93042619D01*
X143657142Y-92995000D01*
X143609523Y-92947380D01*
X143609523Y-93042619D01*
X144228571Y-93947380D02*
X144133333Y-93899761D01*
X144085714Y-93852142D01*
X144038095Y-93756904D01*
X144038095Y-93471190D01*
X144085714Y-93375952D01*
X144133333Y-93328333D01*
X144228571Y-93280714D01*
X144371428Y-93280714D01*
X144466666Y-93328333D01*
X144514285Y-93375952D01*
X144561904Y-93471190D01*
X144561904Y-93756904D01*
X144514285Y-93852142D01*
X144466666Y-93899761D01*
X144371428Y-93947380D01*
X144228571Y-93947380D01*
X145752380Y-93947380D02*
X145752380Y-93280714D01*
X145752380Y-92947380D02*
X145704761Y-92995000D01*
X145752380Y-93042619D01*
X145800000Y-92995000D01*
X145752380Y-92947380D01*
X145752380Y-93042619D01*
X146228571Y-93280714D02*
X146228571Y-93947380D01*
X146228571Y-93375952D02*
X146276190Y-93328333D01*
X146371428Y-93280714D01*
X146514285Y-93280714D01*
X146609523Y-93328333D01*
X146657142Y-93423571D01*
X146657142Y-93947380D01*
X142038095Y-95176428D02*
X142800000Y-95176428D01*
X144800000Y-95176428D02*
X145561904Y-95176428D01*
X145180952Y-95557380D02*
X145180952Y-94795476D01*
X182661904Y-51452380D02*
X182661904Y-50452380D01*
X182995238Y-51166666D01*
X183328571Y-50452380D01*
X183328571Y-51452380D01*
X183804761Y-51452380D02*
X183804761Y-50452380D01*
X184280952Y-51452380D02*
X184280952Y-50452380D01*
X184519047Y-50452380D01*
X184661904Y-50500000D01*
X184757142Y-50595238D01*
X184804761Y-50690476D01*
X184852380Y-50880952D01*
X184852380Y-51023809D01*
X184804761Y-51214285D01*
X184757142Y-51309523D01*
X184661904Y-51404761D01*
X184519047Y-51452380D01*
X184280952Y-51452380D01*
X185280952Y-51452380D02*
X185280952Y-50452380D01*
X186519047Y-50785714D02*
X186519047Y-51642857D01*
X186471428Y-51738095D01*
X186376190Y-51785714D01*
X186328571Y-51785714D01*
X186519047Y-50452380D02*
X186471428Y-50500000D01*
X186519047Y-50547619D01*
X186566666Y-50500000D01*
X186519047Y-50452380D01*
X186519047Y-50547619D01*
X187423809Y-50785714D02*
X187423809Y-51452380D01*
X186995238Y-50785714D02*
X186995238Y-51309523D01*
X187042857Y-51404761D01*
X187138095Y-51452380D01*
X187280952Y-51452380D01*
X187376190Y-51404761D01*
X187423809Y-51357142D01*
X187900000Y-51452380D02*
X187900000Y-50785714D01*
X187900000Y-50880952D02*
X187947619Y-50833333D01*
X188042857Y-50785714D01*
X188185714Y-50785714D01*
X188280952Y-50833333D01*
X188328571Y-50928571D01*
X188328571Y-51452380D01*
X188328571Y-50928571D02*
X188376190Y-50833333D01*
X188471428Y-50785714D01*
X188614285Y-50785714D01*
X188709523Y-50833333D01*
X188757142Y-50928571D01*
X188757142Y-51452380D01*
X189233333Y-50785714D02*
X189233333Y-51785714D01*
X189233333Y-50833333D02*
X189328571Y-50785714D01*
X189519047Y-50785714D01*
X189614285Y-50833333D01*
X189661904Y-50880952D01*
X189709523Y-50976190D01*
X189709523Y-51261904D01*
X189661904Y-51357142D01*
X189614285Y-51404761D01*
X189519047Y-51452380D01*
X189328571Y-51452380D01*
X189233333Y-51404761D01*
X190519047Y-51404761D02*
X190423809Y-51452380D01*
X190233333Y-51452380D01*
X190138095Y-51404761D01*
X190090476Y-51309523D01*
X190090476Y-50928571D01*
X190138095Y-50833333D01*
X190233333Y-50785714D01*
X190423809Y-50785714D01*
X190519047Y-50833333D01*
X190566666Y-50928571D01*
X190566666Y-51023809D01*
X190090476Y-51119047D01*
X190995238Y-51452380D02*
X190995238Y-50785714D01*
X190995238Y-50976190D02*
X191042857Y-50880952D01*
X191090476Y-50833333D01*
X191185714Y-50785714D01*
X191280952Y-50785714D01*
X172509523Y-55904761D02*
X172652380Y-55952380D01*
X172890476Y-55952380D01*
X172985714Y-55904761D01*
X173033333Y-55857142D01*
X173080952Y-55761904D01*
X173080952Y-55666666D01*
X173033333Y-55571428D01*
X172985714Y-55523809D01*
X172890476Y-55476190D01*
X172700000Y-55428571D01*
X172604761Y-55380952D01*
X172557142Y-55333333D01*
X172509523Y-55238095D01*
X172509523Y-55142857D01*
X172557142Y-55047619D01*
X172604761Y-55000000D01*
X172700000Y-54952380D01*
X172938095Y-54952380D01*
X173080952Y-55000000D01*
X175604761Y-55952380D02*
X175271428Y-55476190D01*
X175033333Y-55952380D02*
X175033333Y-54952380D01*
X175414285Y-54952380D01*
X175509523Y-55000000D01*
X175557142Y-55047619D01*
X175604761Y-55142857D01*
X175604761Y-55285714D01*
X175557142Y-55380952D01*
X175509523Y-55428571D01*
X175414285Y-55476190D01*
X175033333Y-55476190D01*
X177414285Y-54952380D02*
X177985714Y-54952380D01*
X177700000Y-55952380D02*
X177700000Y-54952380D01*
X172719047Y-51452380D02*
X172719047Y-50452380D01*
X173052380Y-51166666D01*
X173385714Y-50452380D01*
X173385714Y-51452380D01*
X173861904Y-51452380D02*
X173861904Y-50452380D01*
X174338095Y-51452380D02*
X174338095Y-50452380D01*
X174576190Y-50452380D01*
X174719047Y-50500000D01*
X174814285Y-50595238D01*
X174861904Y-50690476D01*
X174909523Y-50880952D01*
X174909523Y-51023809D01*
X174861904Y-51214285D01*
X174814285Y-51309523D01*
X174719047Y-51404761D01*
X174576190Y-51452380D01*
X174338095Y-51452380D01*
X175338095Y-51452380D02*
X175338095Y-50452380D01*
X176576190Y-51452380D02*
X176576190Y-50785714D01*
X176576190Y-50452380D02*
X176528571Y-50500000D01*
X176576190Y-50547619D01*
X176623809Y-50500000D01*
X176576190Y-50452380D01*
X176576190Y-50547619D01*
X177052380Y-50785714D02*
X177052380Y-51452380D01*
X177052380Y-50880952D02*
X177100000Y-50833333D01*
X177195238Y-50785714D01*
X177338095Y-50785714D01*
X177433333Y-50833333D01*
X177480952Y-50928571D01*
X177480952Y-51452380D01*
X161657142Y-55571428D02*
X162419047Y-55571428D01*
X165180952Y-55571428D02*
X165942857Y-55571428D01*
X165561904Y-55952380D02*
X165561904Y-55190476D01*
X160752380Y-51452380D02*
X160752380Y-50452380D01*
X161133333Y-50452380D01*
X161228571Y-50500000D01*
X161276190Y-50547619D01*
X161323809Y-50642857D01*
X161323809Y-50785714D01*
X161276190Y-50880952D01*
X161228571Y-50928571D01*
X161133333Y-50976190D01*
X160752380Y-50976190D01*
X161895238Y-51452380D02*
X161800000Y-51404761D01*
X161752380Y-51357142D01*
X161704761Y-51261904D01*
X161704761Y-50976190D01*
X161752380Y-50880952D01*
X161800000Y-50833333D01*
X161895238Y-50785714D01*
X162038095Y-50785714D01*
X162133333Y-50833333D01*
X162180952Y-50880952D01*
X162228571Y-50976190D01*
X162228571Y-51261904D01*
X162180952Y-51357142D01*
X162133333Y-51404761D01*
X162038095Y-51452380D01*
X161895238Y-51452380D01*
X162561904Y-50785714D02*
X162752380Y-51452380D01*
X162942857Y-50976190D01*
X163133333Y-51452380D01*
X163323809Y-50785714D01*
X164085714Y-51404761D02*
X163990476Y-51452380D01*
X163800000Y-51452380D01*
X163704761Y-51404761D01*
X163657142Y-51309523D01*
X163657142Y-50928571D01*
X163704761Y-50833333D01*
X163800000Y-50785714D01*
X163990476Y-50785714D01*
X164085714Y-50833333D01*
X164133333Y-50928571D01*
X164133333Y-51023809D01*
X163657142Y-51119047D01*
X164561904Y-51452380D02*
X164561904Y-50785714D01*
X164561904Y-50976190D02*
X164609523Y-50880952D01*
X164657142Y-50833333D01*
X164752380Y-50785714D01*
X164847619Y-50785714D01*
X165942857Y-51452380D02*
X165942857Y-50785714D01*
X165942857Y-50452380D02*
X165895238Y-50500000D01*
X165942857Y-50547619D01*
X165990476Y-50500000D01*
X165942857Y-50452380D01*
X165942857Y-50547619D01*
X166419047Y-50785714D02*
X166419047Y-51452380D01*
X166419047Y-50880952D02*
X166466666Y-50833333D01*
X166561904Y-50785714D01*
X166704761Y-50785714D01*
X166800000Y-50833333D01*
X166847619Y-50928571D01*
X166847619Y-51452380D01*
X134309523Y-40604761D02*
X134452380Y-40652380D01*
X134690476Y-40652380D01*
X134785714Y-40604761D01*
X134833333Y-40557142D01*
X134880952Y-40461904D01*
X134880952Y-40366666D01*
X134833333Y-40271428D01*
X134785714Y-40223809D01*
X134690476Y-40176190D01*
X134500000Y-40128571D01*
X134404761Y-40080952D01*
X134357142Y-40033333D01*
X134309523Y-39938095D01*
X134309523Y-39842857D01*
X134357142Y-39747619D01*
X134404761Y-39700000D01*
X134500000Y-39652380D01*
X134738095Y-39652380D01*
X134880952Y-39700000D01*
X137404761Y-40652380D02*
X137071428Y-40176190D01*
X136833333Y-40652380D02*
X136833333Y-39652380D01*
X137214285Y-39652380D01*
X137309523Y-39700000D01*
X137357142Y-39747619D01*
X137404761Y-39842857D01*
X137404761Y-39985714D01*
X137357142Y-40080952D01*
X137309523Y-40128571D01*
X137214285Y-40176190D01*
X136833333Y-40176190D01*
X139214285Y-39652380D02*
X139785714Y-39652380D01*
X139500000Y-40652380D02*
X139500000Y-39652380D01*
X126519047Y-41252380D02*
X126519047Y-40252380D01*
X126852380Y-40966666D01*
X127185714Y-40252380D01*
X127185714Y-41252380D01*
X127661904Y-41252380D02*
X127661904Y-40252380D01*
X128138095Y-41252380D02*
X128138095Y-40252380D01*
X128376190Y-40252380D01*
X128519047Y-40300000D01*
X128614285Y-40395238D01*
X128661904Y-40490476D01*
X128709523Y-40680952D01*
X128709523Y-40823809D01*
X128661904Y-41014285D01*
X128614285Y-41109523D01*
X128519047Y-41204761D01*
X128376190Y-41252380D01*
X128138095Y-41252380D01*
X129138095Y-41252380D02*
X129138095Y-40252380D01*
X130519047Y-41252380D02*
X130423809Y-41204761D01*
X130376190Y-41157142D01*
X130328571Y-41061904D01*
X130328571Y-40776190D01*
X130376190Y-40680952D01*
X130423809Y-40633333D01*
X130519047Y-40585714D01*
X130661904Y-40585714D01*
X130757142Y-40633333D01*
X130804761Y-40680952D01*
X130852380Y-40776190D01*
X130852380Y-41061904D01*
X130804761Y-41157142D01*
X130757142Y-41204761D01*
X130661904Y-41252380D01*
X130519047Y-41252380D01*
X131709523Y-40585714D02*
X131709523Y-41252380D01*
X131280952Y-40585714D02*
X131280952Y-41109523D01*
X131328571Y-41204761D01*
X131423809Y-41252380D01*
X131566666Y-41252380D01*
X131661904Y-41204761D01*
X131709523Y-41157142D01*
X132042857Y-40585714D02*
X132423809Y-40585714D01*
X132185714Y-40252380D02*
X132185714Y-41109523D01*
X132233333Y-41204761D01*
X132328571Y-41252380D01*
X132423809Y-41252380D01*
%TO.C,RV12*%
X202522380Y-103631428D02*
X202046190Y-103964761D01*
X202522380Y-104202857D02*
X201522380Y-104202857D01*
X201522380Y-103821904D01*
X201570000Y-103726666D01*
X201617619Y-103679047D01*
X201712857Y-103631428D01*
X201855714Y-103631428D01*
X201950952Y-103679047D01*
X201998571Y-103726666D01*
X202046190Y-103821904D01*
X202046190Y-104202857D01*
X201522380Y-103345714D02*
X202522380Y-103012380D01*
X201522380Y-102679047D01*
X202522380Y-101821904D02*
X202522380Y-102393333D01*
X202522380Y-102107619D02*
X201522380Y-102107619D01*
X201665238Y-102202857D01*
X201760476Y-102298095D01*
X201808095Y-102393333D01*
X201617619Y-101440952D02*
X201570000Y-101393333D01*
X201522380Y-101298095D01*
X201522380Y-101060000D01*
X201570000Y-100964761D01*
X201617619Y-100917142D01*
X201712857Y-100869523D01*
X201808095Y-100869523D01*
X201950952Y-100917142D01*
X202522380Y-101488571D01*
X202522380Y-100869523D01*
%TO.C,RV10*%
X172042380Y-103631428D02*
X171566190Y-103964761D01*
X172042380Y-104202857D02*
X171042380Y-104202857D01*
X171042380Y-103821904D01*
X171090000Y-103726666D01*
X171137619Y-103679047D01*
X171232857Y-103631428D01*
X171375714Y-103631428D01*
X171470952Y-103679047D01*
X171518571Y-103726666D01*
X171566190Y-103821904D01*
X171566190Y-104202857D01*
X171042380Y-103345714D02*
X172042380Y-103012380D01*
X171042380Y-102679047D01*
X172042380Y-101821904D02*
X172042380Y-102393333D01*
X172042380Y-102107619D02*
X171042380Y-102107619D01*
X171185238Y-102202857D01*
X171280476Y-102298095D01*
X171328095Y-102393333D01*
X171042380Y-101202857D02*
X171042380Y-101107619D01*
X171090000Y-101012380D01*
X171137619Y-100964761D01*
X171232857Y-100917142D01*
X171423333Y-100869523D01*
X171661428Y-100869523D01*
X171851904Y-100917142D01*
X171947142Y-100964761D01*
X171994761Y-101012380D01*
X172042380Y-101107619D01*
X172042380Y-101202857D01*
X171994761Y-101298095D01*
X171947142Y-101345714D01*
X171851904Y-101393333D01*
X171661428Y-101440952D01*
X171423333Y-101440952D01*
X171232857Y-101393333D01*
X171137619Y-101345714D01*
X171090000Y-101298095D01*
X171042380Y-101202857D01*
%TO.C,RV13*%
X156802380Y-121411428D02*
X156326190Y-121744761D01*
X156802380Y-121982857D02*
X155802380Y-121982857D01*
X155802380Y-121601904D01*
X155850000Y-121506666D01*
X155897619Y-121459047D01*
X155992857Y-121411428D01*
X156135714Y-121411428D01*
X156230952Y-121459047D01*
X156278571Y-121506666D01*
X156326190Y-121601904D01*
X156326190Y-121982857D01*
X155802380Y-121125714D02*
X156802380Y-120792380D01*
X155802380Y-120459047D01*
X156802380Y-119601904D02*
X156802380Y-120173333D01*
X156802380Y-119887619D02*
X155802380Y-119887619D01*
X155945238Y-119982857D01*
X156040476Y-120078095D01*
X156088095Y-120173333D01*
X155802380Y-119268571D02*
X155802380Y-118649523D01*
X156183333Y-118982857D01*
X156183333Y-118840000D01*
X156230952Y-118744761D01*
X156278571Y-118697142D01*
X156373809Y-118649523D01*
X156611904Y-118649523D01*
X156707142Y-118697142D01*
X156754761Y-118744761D01*
X156802380Y-118840000D01*
X156802380Y-119125714D01*
X156754761Y-119220952D01*
X156707142Y-119268571D01*
%TO.C,RV9*%
X156802380Y-103155238D02*
X156326190Y-103488571D01*
X156802380Y-103726666D02*
X155802380Y-103726666D01*
X155802380Y-103345714D01*
X155850000Y-103250476D01*
X155897619Y-103202857D01*
X155992857Y-103155238D01*
X156135714Y-103155238D01*
X156230952Y-103202857D01*
X156278571Y-103250476D01*
X156326190Y-103345714D01*
X156326190Y-103726666D01*
X155802380Y-102869523D02*
X156802380Y-102536190D01*
X155802380Y-102202857D01*
X156802380Y-101821904D02*
X156802380Y-101631428D01*
X156754761Y-101536190D01*
X156707142Y-101488571D01*
X156564285Y-101393333D01*
X156373809Y-101345714D01*
X155992857Y-101345714D01*
X155897619Y-101393333D01*
X155850000Y-101440952D01*
X155802380Y-101536190D01*
X155802380Y-101726666D01*
X155850000Y-101821904D01*
X155897619Y-101869523D01*
X155992857Y-101917142D01*
X156230952Y-101917142D01*
X156326190Y-101869523D01*
X156373809Y-101821904D01*
X156421428Y-101726666D01*
X156421428Y-101536190D01*
X156373809Y-101440952D01*
X156326190Y-101393333D01*
X156230952Y-101345714D01*
%TO.C,RV6*%
X172042380Y-85375238D02*
X171566190Y-85708571D01*
X172042380Y-85946666D02*
X171042380Y-85946666D01*
X171042380Y-85565714D01*
X171090000Y-85470476D01*
X171137619Y-85422857D01*
X171232857Y-85375238D01*
X171375714Y-85375238D01*
X171470952Y-85422857D01*
X171518571Y-85470476D01*
X171566190Y-85565714D01*
X171566190Y-85946666D01*
X171042380Y-85089523D02*
X172042380Y-84756190D01*
X171042380Y-84422857D01*
X171042380Y-83660952D02*
X171042380Y-83851428D01*
X171090000Y-83946666D01*
X171137619Y-83994285D01*
X171280476Y-84089523D01*
X171470952Y-84137142D01*
X171851904Y-84137142D01*
X171947142Y-84089523D01*
X171994761Y-84041904D01*
X172042380Y-83946666D01*
X172042380Y-83756190D01*
X171994761Y-83660952D01*
X171947142Y-83613333D01*
X171851904Y-83565714D01*
X171613809Y-83565714D01*
X171518571Y-83613333D01*
X171470952Y-83660952D01*
X171423333Y-83756190D01*
X171423333Y-83946666D01*
X171470952Y-84041904D01*
X171518571Y-84089523D01*
X171613809Y-84137142D01*
%TO.C,RV14*%
X172042380Y-121411428D02*
X171566190Y-121744761D01*
X172042380Y-121982857D02*
X171042380Y-121982857D01*
X171042380Y-121601904D01*
X171090000Y-121506666D01*
X171137619Y-121459047D01*
X171232857Y-121411428D01*
X171375714Y-121411428D01*
X171470952Y-121459047D01*
X171518571Y-121506666D01*
X171566190Y-121601904D01*
X171566190Y-121982857D01*
X171042380Y-121125714D02*
X172042380Y-120792380D01*
X171042380Y-120459047D01*
X172042380Y-119601904D02*
X172042380Y-120173333D01*
X172042380Y-119887619D02*
X171042380Y-119887619D01*
X171185238Y-119982857D01*
X171280476Y-120078095D01*
X171328095Y-120173333D01*
X171375714Y-118744761D02*
X172042380Y-118744761D01*
X170994761Y-118982857D02*
X171709047Y-119220952D01*
X171709047Y-118601904D01*
%TO.C,RV3*%
X187282380Y-67595238D02*
X186806190Y-67928571D01*
X187282380Y-68166666D02*
X186282380Y-68166666D01*
X186282380Y-67785714D01*
X186330000Y-67690476D01*
X186377619Y-67642857D01*
X186472857Y-67595238D01*
X186615714Y-67595238D01*
X186710952Y-67642857D01*
X186758571Y-67690476D01*
X186806190Y-67785714D01*
X186806190Y-68166666D01*
X186282380Y-67309523D02*
X187282380Y-66976190D01*
X186282380Y-66642857D01*
X186282380Y-66404761D02*
X186282380Y-65785714D01*
X186663333Y-66119047D01*
X186663333Y-65976190D01*
X186710952Y-65880952D01*
X186758571Y-65833333D01*
X186853809Y-65785714D01*
X187091904Y-65785714D01*
X187187142Y-65833333D01*
X187234761Y-65880952D01*
X187282380Y-65976190D01*
X187282380Y-66261904D01*
X187234761Y-66357142D01*
X187187142Y-66404761D01*
%TO.C,RV2*%
X172042380Y-67595238D02*
X171566190Y-67928571D01*
X172042380Y-68166666D02*
X171042380Y-68166666D01*
X171042380Y-67785714D01*
X171090000Y-67690476D01*
X171137619Y-67642857D01*
X171232857Y-67595238D01*
X171375714Y-67595238D01*
X171470952Y-67642857D01*
X171518571Y-67690476D01*
X171566190Y-67785714D01*
X171566190Y-68166666D01*
X171042380Y-67309523D02*
X172042380Y-66976190D01*
X171042380Y-66642857D01*
X171137619Y-66357142D02*
X171090000Y-66309523D01*
X171042380Y-66214285D01*
X171042380Y-65976190D01*
X171090000Y-65880952D01*
X171137619Y-65833333D01*
X171232857Y-65785714D01*
X171328095Y-65785714D01*
X171470952Y-65833333D01*
X172042380Y-66404761D01*
X172042380Y-65785714D01*
%TO.C,RV15*%
X187282380Y-121411428D02*
X186806190Y-121744761D01*
X187282380Y-121982857D02*
X186282380Y-121982857D01*
X186282380Y-121601904D01*
X186330000Y-121506666D01*
X186377619Y-121459047D01*
X186472857Y-121411428D01*
X186615714Y-121411428D01*
X186710952Y-121459047D01*
X186758571Y-121506666D01*
X186806190Y-121601904D01*
X186806190Y-121982857D01*
X186282380Y-121125714D02*
X187282380Y-120792380D01*
X186282380Y-120459047D01*
X187282380Y-119601904D02*
X187282380Y-120173333D01*
X187282380Y-119887619D02*
X186282380Y-119887619D01*
X186425238Y-119982857D01*
X186520476Y-120078095D01*
X186568095Y-120173333D01*
X186282380Y-118697142D02*
X186282380Y-119173333D01*
X186758571Y-119220952D01*
X186710952Y-119173333D01*
X186663333Y-119078095D01*
X186663333Y-118840000D01*
X186710952Y-118744761D01*
X186758571Y-118697142D01*
X186853809Y-118649523D01*
X187091904Y-118649523D01*
X187187142Y-118697142D01*
X187234761Y-118744761D01*
X187282380Y-118840000D01*
X187282380Y-119078095D01*
X187234761Y-119173333D01*
X187187142Y-119220952D01*
%TO.C,RV8*%
X202522380Y-85375238D02*
X202046190Y-85708571D01*
X202522380Y-85946666D02*
X201522380Y-85946666D01*
X201522380Y-85565714D01*
X201570000Y-85470476D01*
X201617619Y-85422857D01*
X201712857Y-85375238D01*
X201855714Y-85375238D01*
X201950952Y-85422857D01*
X201998571Y-85470476D01*
X202046190Y-85565714D01*
X202046190Y-85946666D01*
X201522380Y-85089523D02*
X202522380Y-84756190D01*
X201522380Y-84422857D01*
X201950952Y-83946666D02*
X201903333Y-84041904D01*
X201855714Y-84089523D01*
X201760476Y-84137142D01*
X201712857Y-84137142D01*
X201617619Y-84089523D01*
X201570000Y-84041904D01*
X201522380Y-83946666D01*
X201522380Y-83756190D01*
X201570000Y-83660952D01*
X201617619Y-83613333D01*
X201712857Y-83565714D01*
X201760476Y-83565714D01*
X201855714Y-83613333D01*
X201903333Y-83660952D01*
X201950952Y-83756190D01*
X201950952Y-83946666D01*
X201998571Y-84041904D01*
X202046190Y-84089523D01*
X202141428Y-84137142D01*
X202331904Y-84137142D01*
X202427142Y-84089523D01*
X202474761Y-84041904D01*
X202522380Y-83946666D01*
X202522380Y-83756190D01*
X202474761Y-83660952D01*
X202427142Y-83613333D01*
X202331904Y-83565714D01*
X202141428Y-83565714D01*
X202046190Y-83613333D01*
X201998571Y-83660952D01*
X201950952Y-83756190D01*
%TO.C,RV11*%
X187282380Y-103631428D02*
X186806190Y-103964761D01*
X187282380Y-104202857D02*
X186282380Y-104202857D01*
X186282380Y-103821904D01*
X186330000Y-103726666D01*
X186377619Y-103679047D01*
X186472857Y-103631428D01*
X186615714Y-103631428D01*
X186710952Y-103679047D01*
X186758571Y-103726666D01*
X186806190Y-103821904D01*
X186806190Y-104202857D01*
X186282380Y-103345714D02*
X187282380Y-103012380D01*
X186282380Y-102679047D01*
X187282380Y-101821904D02*
X187282380Y-102393333D01*
X187282380Y-102107619D02*
X186282380Y-102107619D01*
X186425238Y-102202857D01*
X186520476Y-102298095D01*
X186568095Y-102393333D01*
X187282380Y-100869523D02*
X187282380Y-101440952D01*
X187282380Y-101155238D02*
X186282380Y-101155238D01*
X186425238Y-101250476D01*
X186520476Y-101345714D01*
X186568095Y-101440952D01*
%TO.C,RV1*%
X156802380Y-67595238D02*
X156326190Y-67928571D01*
X156802380Y-68166666D02*
X155802380Y-68166666D01*
X155802380Y-67785714D01*
X155850000Y-67690476D01*
X155897619Y-67642857D01*
X155992857Y-67595238D01*
X156135714Y-67595238D01*
X156230952Y-67642857D01*
X156278571Y-67690476D01*
X156326190Y-67785714D01*
X156326190Y-68166666D01*
X155802380Y-67309523D02*
X156802380Y-66976190D01*
X155802380Y-66642857D01*
X156802380Y-65785714D02*
X156802380Y-66357142D01*
X156802380Y-66071428D02*
X155802380Y-66071428D01*
X155945238Y-66166666D01*
X156040476Y-66261904D01*
X156088095Y-66357142D01*
%TO.C,RV4*%
X202522380Y-67595238D02*
X202046190Y-67928571D01*
X202522380Y-68166666D02*
X201522380Y-68166666D01*
X201522380Y-67785714D01*
X201570000Y-67690476D01*
X201617619Y-67642857D01*
X201712857Y-67595238D01*
X201855714Y-67595238D01*
X201950952Y-67642857D01*
X201998571Y-67690476D01*
X202046190Y-67785714D01*
X202046190Y-68166666D01*
X201522380Y-67309523D02*
X202522380Y-66976190D01*
X201522380Y-66642857D01*
X201855714Y-65880952D02*
X202522380Y-65880952D01*
X201474761Y-66119047D02*
X202189047Y-66357142D01*
X202189047Y-65738095D01*
%TO.C,RV16*%
X202522380Y-121411428D02*
X202046190Y-121744761D01*
X202522380Y-121982857D02*
X201522380Y-121982857D01*
X201522380Y-121601904D01*
X201570000Y-121506666D01*
X201617619Y-121459047D01*
X201712857Y-121411428D01*
X201855714Y-121411428D01*
X201950952Y-121459047D01*
X201998571Y-121506666D01*
X202046190Y-121601904D01*
X202046190Y-121982857D01*
X201522380Y-121125714D02*
X202522380Y-120792380D01*
X201522380Y-120459047D01*
X202522380Y-119601904D02*
X202522380Y-120173333D01*
X202522380Y-119887619D02*
X201522380Y-119887619D01*
X201665238Y-119982857D01*
X201760476Y-120078095D01*
X201808095Y-120173333D01*
X201522380Y-118744761D02*
X201522380Y-118935238D01*
X201570000Y-119030476D01*
X201617619Y-119078095D01*
X201760476Y-119173333D01*
X201950952Y-119220952D01*
X202331904Y-119220952D01*
X202427142Y-119173333D01*
X202474761Y-119125714D01*
X202522380Y-119030476D01*
X202522380Y-118840000D01*
X202474761Y-118744761D01*
X202427142Y-118697142D01*
X202331904Y-118649523D01*
X202093809Y-118649523D01*
X201998571Y-118697142D01*
X201950952Y-118744761D01*
X201903333Y-118840000D01*
X201903333Y-119030476D01*
X201950952Y-119125714D01*
X201998571Y-119173333D01*
X202093809Y-119220952D01*
%TO.C,RV5*%
X156802380Y-85375238D02*
X156326190Y-85708571D01*
X156802380Y-85946666D02*
X155802380Y-85946666D01*
X155802380Y-85565714D01*
X155850000Y-85470476D01*
X155897619Y-85422857D01*
X155992857Y-85375238D01*
X156135714Y-85375238D01*
X156230952Y-85422857D01*
X156278571Y-85470476D01*
X156326190Y-85565714D01*
X156326190Y-85946666D01*
X155802380Y-85089523D02*
X156802380Y-84756190D01*
X155802380Y-84422857D01*
X155802380Y-83613333D02*
X155802380Y-84089523D01*
X156278571Y-84137142D01*
X156230952Y-84089523D01*
X156183333Y-83994285D01*
X156183333Y-83756190D01*
X156230952Y-83660952D01*
X156278571Y-83613333D01*
X156373809Y-83565714D01*
X156611904Y-83565714D01*
X156707142Y-83613333D01*
X156754761Y-83660952D01*
X156802380Y-83756190D01*
X156802380Y-83994285D01*
X156754761Y-84089523D01*
X156707142Y-84137142D01*
%TO.C,RV7*%
X187282380Y-85375238D02*
X186806190Y-85708571D01*
X187282380Y-85946666D02*
X186282380Y-85946666D01*
X186282380Y-85565714D01*
X186330000Y-85470476D01*
X186377619Y-85422857D01*
X186472857Y-85375238D01*
X186615714Y-85375238D01*
X186710952Y-85422857D01*
X186758571Y-85470476D01*
X186806190Y-85565714D01*
X186806190Y-85946666D01*
X186282380Y-85089523D02*
X187282380Y-84756190D01*
X186282380Y-84422857D01*
X186282380Y-84184761D02*
X186282380Y-83518095D01*
X187282380Y-83946666D01*
%TO.C,U6*%
X117238095Y-43552380D02*
X117238095Y-44361904D01*
X117285714Y-44457142D01*
X117333333Y-44504761D01*
X117428571Y-44552380D01*
X117619047Y-44552380D01*
X117714285Y-44504761D01*
X117761904Y-44457142D01*
X117809523Y-44361904D01*
X117809523Y-43552380D01*
X118714285Y-43552380D02*
X118523809Y-43552380D01*
X118428571Y-43600000D01*
X118380952Y-43647619D01*
X118285714Y-43790476D01*
X118238095Y-43980952D01*
X118238095Y-44361904D01*
X118285714Y-44457142D01*
X118333333Y-44504761D01*
X118428571Y-44552380D01*
X118619047Y-44552380D01*
X118714285Y-44504761D01*
X118761904Y-44457142D01*
X118809523Y-44361904D01*
X118809523Y-44123809D01*
X118761904Y-44028571D01*
X118714285Y-43980952D01*
X118619047Y-43933333D01*
X118428571Y-43933333D01*
X118333333Y-43980952D01*
X118285714Y-44028571D01*
X118238095Y-44123809D01*
%TO.C,JP1*%
X182542380Y-54173333D02*
X183256666Y-54173333D01*
X183399523Y-54220952D01*
X183494761Y-54316190D01*
X183542380Y-54459047D01*
X183542380Y-54554285D01*
X183542380Y-53697142D02*
X182542380Y-53697142D01*
X182542380Y-53316190D01*
X182590000Y-53220952D01*
X182637619Y-53173333D01*
X182732857Y-53125714D01*
X182875714Y-53125714D01*
X182970952Y-53173333D01*
X183018571Y-53220952D01*
X183066190Y-53316190D01*
X183066190Y-53697142D01*
X183542380Y-52173333D02*
X183542380Y-52744761D01*
X183542380Y-52459047D02*
X182542380Y-52459047D01*
X182685238Y-52554285D01*
X182780476Y-52649523D01*
X182828095Y-52744761D01*
%TO.C,U13*%
X116761904Y-109552380D02*
X116761904Y-110361904D01*
X116809523Y-110457142D01*
X116857142Y-110504761D01*
X116952380Y-110552380D01*
X117142857Y-110552380D01*
X117238095Y-110504761D01*
X117285714Y-110457142D01*
X117333333Y-110361904D01*
X117333333Y-109552380D01*
X118333333Y-110552380D02*
X117761904Y-110552380D01*
X118047619Y-110552380D02*
X118047619Y-109552380D01*
X117952380Y-109695238D01*
X117857142Y-109790476D01*
X117761904Y-109838095D01*
X118666666Y-109552380D02*
X119285714Y-109552380D01*
X118952380Y-109933333D01*
X119095238Y-109933333D01*
X119190476Y-109980952D01*
X119238095Y-110028571D01*
X119285714Y-110123809D01*
X119285714Y-110361904D01*
X119238095Y-110457142D01*
X119190476Y-110504761D01*
X119095238Y-110552380D01*
X118809523Y-110552380D01*
X118714285Y-110504761D01*
X118666666Y-110457142D01*
%TO.C,U10*%
X88261904Y-130052380D02*
X88261904Y-130861904D01*
X88309523Y-130957142D01*
X88357142Y-131004761D01*
X88452380Y-131052380D01*
X88642857Y-131052380D01*
X88738095Y-131004761D01*
X88785714Y-130957142D01*
X88833333Y-130861904D01*
X88833333Y-130052380D01*
X89833333Y-131052380D02*
X89261904Y-131052380D01*
X89547619Y-131052380D02*
X89547619Y-130052380D01*
X89452380Y-130195238D01*
X89357142Y-130290476D01*
X89261904Y-130338095D01*
X90452380Y-130052380D02*
X90547619Y-130052380D01*
X90642857Y-130100000D01*
X90690476Y-130147619D01*
X90738095Y-130242857D01*
X90785714Y-130433333D01*
X90785714Y-130671428D01*
X90738095Y-130861904D01*
X90690476Y-130957142D01*
X90642857Y-131004761D01*
X90547619Y-131052380D01*
X90452380Y-131052380D01*
X90357142Y-131004761D01*
X90309523Y-130957142D01*
X90261904Y-130861904D01*
X90214285Y-130671428D01*
X90214285Y-130433333D01*
X90261904Y-130242857D01*
X90309523Y-130147619D01*
X90357142Y-130100000D01*
X90452380Y-130052380D01*
%TO.C,U9*%
X88738095Y-109502380D02*
X88738095Y-110311904D01*
X88785714Y-110407142D01*
X88833333Y-110454761D01*
X88928571Y-110502380D01*
X89119047Y-110502380D01*
X89214285Y-110454761D01*
X89261904Y-110407142D01*
X89309523Y-110311904D01*
X89309523Y-109502380D01*
X89833333Y-110502380D02*
X90023809Y-110502380D01*
X90119047Y-110454761D01*
X90166666Y-110407142D01*
X90261904Y-110264285D01*
X90309523Y-110073809D01*
X90309523Y-109692857D01*
X90261904Y-109597619D01*
X90214285Y-109550000D01*
X90119047Y-109502380D01*
X89928571Y-109502380D01*
X89833333Y-109550000D01*
X89785714Y-109597619D01*
X89738095Y-109692857D01*
X89738095Y-109930952D01*
X89785714Y-110026190D01*
X89833333Y-110073809D01*
X89928571Y-110121428D01*
X90119047Y-110121428D01*
X90214285Y-110073809D01*
X90261904Y-110026190D01*
X90309523Y-109930952D01*
%TO.C,U12*%
X116761904Y-89552380D02*
X116761904Y-90361904D01*
X116809523Y-90457142D01*
X116857142Y-90504761D01*
X116952380Y-90552380D01*
X117142857Y-90552380D01*
X117238095Y-90504761D01*
X117285714Y-90457142D01*
X117333333Y-90361904D01*
X117333333Y-89552380D01*
X118333333Y-90552380D02*
X117761904Y-90552380D01*
X118047619Y-90552380D02*
X118047619Y-89552380D01*
X117952380Y-89695238D01*
X117857142Y-89790476D01*
X117761904Y-89838095D01*
X118714285Y-89647619D02*
X118761904Y-89600000D01*
X118857142Y-89552380D01*
X119095238Y-89552380D01*
X119190476Y-89600000D01*
X119238095Y-89647619D01*
X119285714Y-89742857D01*
X119285714Y-89838095D01*
X119238095Y-89980952D01*
X118666666Y-90552380D01*
X119285714Y-90552380D01*
%TO.C,D1*%
X218452380Y-53088095D02*
X217452380Y-53088095D01*
X217452380Y-52850000D01*
X217500000Y-52707142D01*
X217595238Y-52611904D01*
X217690476Y-52564285D01*
X217880952Y-52516666D01*
X218023809Y-52516666D01*
X218214285Y-52564285D01*
X218309523Y-52611904D01*
X218404761Y-52707142D01*
X218452380Y-52850000D01*
X218452380Y-53088095D01*
X218452380Y-51564285D02*
X218452380Y-52135714D01*
X218452380Y-51850000D02*
X217452380Y-51850000D01*
X217595238Y-51945238D01*
X217690476Y-52040476D01*
X217738095Y-52135714D01*
%TO.C,J10*%
X100890476Y-136352380D02*
X100890476Y-137066666D01*
X100842857Y-137209523D01*
X100747619Y-137304761D01*
X100604761Y-137352380D01*
X100509523Y-137352380D01*
X101890476Y-137352380D02*
X101319047Y-137352380D01*
X101604761Y-137352380D02*
X101604761Y-136352380D01*
X101509523Y-136495238D01*
X101414285Y-136590476D01*
X101319047Y-136638095D01*
X102509523Y-136352380D02*
X102604761Y-136352380D01*
X102700000Y-136400000D01*
X102747619Y-136447619D01*
X102795238Y-136542857D01*
X102842857Y-136733333D01*
X102842857Y-136971428D01*
X102795238Y-137161904D01*
X102747619Y-137257142D01*
X102700000Y-137304761D01*
X102604761Y-137352380D01*
X102509523Y-137352380D01*
X102414285Y-137304761D01*
X102366666Y-137257142D01*
X102319047Y-137161904D01*
X102271428Y-136971428D01*
X102271428Y-136733333D01*
X102319047Y-136542857D01*
X102366666Y-136447619D01*
X102414285Y-136400000D01*
X102509523Y-136352380D01*
%TO.C,SW3*%
X177864761Y-141093333D02*
X177912380Y-140950476D01*
X177912380Y-140712380D01*
X177864761Y-140617142D01*
X177817142Y-140569523D01*
X177721904Y-140521904D01*
X177626666Y-140521904D01*
X177531428Y-140569523D01*
X177483809Y-140617142D01*
X177436190Y-140712380D01*
X177388571Y-140902857D01*
X177340952Y-140998095D01*
X177293333Y-141045714D01*
X177198095Y-141093333D01*
X177102857Y-141093333D01*
X177007619Y-141045714D01*
X176960000Y-140998095D01*
X176912380Y-140902857D01*
X176912380Y-140664761D01*
X176960000Y-140521904D01*
X176912380Y-140188571D02*
X177912380Y-139950476D01*
X177198095Y-139760000D01*
X177912380Y-139569523D01*
X176912380Y-139331428D01*
X176912380Y-139045714D02*
X176912380Y-138426666D01*
X177293333Y-138760000D01*
X177293333Y-138617142D01*
X177340952Y-138521904D01*
X177388571Y-138474285D01*
X177483809Y-138426666D01*
X177721904Y-138426666D01*
X177817142Y-138474285D01*
X177864761Y-138521904D01*
X177912380Y-138617142D01*
X177912380Y-138902857D01*
X177864761Y-138998095D01*
X177817142Y-139045714D01*
%TO.C,D4*%
X124771904Y-138492380D02*
X124771904Y-137492380D01*
X125010000Y-137492380D01*
X125152857Y-137540000D01*
X125248095Y-137635238D01*
X125295714Y-137730476D01*
X125343333Y-137920952D01*
X125343333Y-138063809D01*
X125295714Y-138254285D01*
X125248095Y-138349523D01*
X125152857Y-138444761D01*
X125010000Y-138492380D01*
X124771904Y-138492380D01*
X126200476Y-137825714D02*
X126200476Y-138492380D01*
X125962380Y-137444761D02*
X125724285Y-138159047D01*
X126343333Y-138159047D01*
%TO.C,J7*%
X108886666Y-68262380D02*
X108886666Y-68976666D01*
X108839047Y-69119523D01*
X108743809Y-69214761D01*
X108600952Y-69262380D01*
X108505714Y-69262380D01*
X109267619Y-68262380D02*
X109934285Y-68262380D01*
X109505714Y-69262380D01*
%TO.C,U8*%
X88738095Y-86352380D02*
X88738095Y-87161904D01*
X88785714Y-87257142D01*
X88833333Y-87304761D01*
X88928571Y-87352380D01*
X89119047Y-87352380D01*
X89214285Y-87304761D01*
X89261904Y-87257142D01*
X89309523Y-87161904D01*
X89309523Y-86352380D01*
X89928571Y-86780952D02*
X89833333Y-86733333D01*
X89785714Y-86685714D01*
X89738095Y-86590476D01*
X89738095Y-86542857D01*
X89785714Y-86447619D01*
X89833333Y-86400000D01*
X89928571Y-86352380D01*
X90119047Y-86352380D01*
X90214285Y-86400000D01*
X90261904Y-86447619D01*
X90309523Y-86542857D01*
X90309523Y-86590476D01*
X90261904Y-86685714D01*
X90214285Y-86733333D01*
X90119047Y-86780952D01*
X89928571Y-86780952D01*
X89833333Y-86828571D01*
X89785714Y-86876190D01*
X89738095Y-86971428D01*
X89738095Y-87161904D01*
X89785714Y-87257142D01*
X89833333Y-87304761D01*
X89928571Y-87352380D01*
X90119047Y-87352380D01*
X90214285Y-87304761D01*
X90261904Y-87257142D01*
X90309523Y-87161904D01*
X90309523Y-86971428D01*
X90261904Y-86876190D01*
X90214285Y-86828571D01*
X90119047Y-86780952D01*
%TO.C,SW4*%
X193064761Y-141093333D02*
X193112380Y-140950476D01*
X193112380Y-140712380D01*
X193064761Y-140617142D01*
X193017142Y-140569523D01*
X192921904Y-140521904D01*
X192826666Y-140521904D01*
X192731428Y-140569523D01*
X192683809Y-140617142D01*
X192636190Y-140712380D01*
X192588571Y-140902857D01*
X192540952Y-140998095D01*
X192493333Y-141045714D01*
X192398095Y-141093333D01*
X192302857Y-141093333D01*
X192207619Y-141045714D01*
X192160000Y-140998095D01*
X192112380Y-140902857D01*
X192112380Y-140664761D01*
X192160000Y-140521904D01*
X192112380Y-140188571D02*
X193112380Y-139950476D01*
X192398095Y-139760000D01*
X193112380Y-139569523D01*
X192112380Y-139331428D01*
X192445714Y-138521904D02*
X193112380Y-138521904D01*
X192064761Y-138760000D02*
X192779047Y-138998095D01*
X192779047Y-138379047D01*
%TO.C,U5*%
X88938095Y-64152380D02*
X88938095Y-64961904D01*
X88985714Y-65057142D01*
X89033333Y-65104761D01*
X89128571Y-65152380D01*
X89319047Y-65152380D01*
X89414285Y-65104761D01*
X89461904Y-65057142D01*
X89509523Y-64961904D01*
X89509523Y-64152380D01*
X90461904Y-64152380D02*
X89985714Y-64152380D01*
X89938095Y-64628571D01*
X89985714Y-64580952D01*
X90080952Y-64533333D01*
X90319047Y-64533333D01*
X90414285Y-64580952D01*
X90461904Y-64628571D01*
X90509523Y-64723809D01*
X90509523Y-64961904D01*
X90461904Y-65057142D01*
X90414285Y-65104761D01*
X90319047Y-65152380D01*
X90080952Y-65152380D01*
X89985714Y-65104761D01*
X89938095Y-65057142D01*
%TO.C,J4*%
X159682380Y-53673333D02*
X160396666Y-53673333D01*
X160539523Y-53720952D01*
X160634761Y-53816190D01*
X160682380Y-53959047D01*
X160682380Y-54054285D01*
X160015714Y-52768571D02*
X160682380Y-52768571D01*
X159634761Y-53006666D02*
X160349047Y-53244761D01*
X160349047Y-52625714D01*
%TO.C,J11*%
X108410476Y-91122380D02*
X108410476Y-91836666D01*
X108362857Y-91979523D01*
X108267619Y-92074761D01*
X108124761Y-92122380D01*
X108029523Y-92122380D01*
X109410476Y-92122380D02*
X108839047Y-92122380D01*
X109124761Y-92122380D02*
X109124761Y-91122380D01*
X109029523Y-91265238D01*
X108934285Y-91360476D01*
X108839047Y-91408095D01*
X110362857Y-92122380D02*
X109791428Y-92122380D01*
X110077142Y-92122380D02*
X110077142Y-91122380D01*
X109981904Y-91265238D01*
X109886666Y-91360476D01*
X109791428Y-91408095D01*
%TO.C,U11*%
X116761904Y-66952380D02*
X116761904Y-67761904D01*
X116809523Y-67857142D01*
X116857142Y-67904761D01*
X116952380Y-67952380D01*
X117142857Y-67952380D01*
X117238095Y-67904761D01*
X117285714Y-67857142D01*
X117333333Y-67761904D01*
X117333333Y-66952380D01*
X118333333Y-67952380D02*
X117761904Y-67952380D01*
X118047619Y-67952380D02*
X118047619Y-66952380D01*
X117952380Y-67095238D01*
X117857142Y-67190476D01*
X117761904Y-67238095D01*
X119285714Y-67952380D02*
X118714285Y-67952380D01*
X119000000Y-67952380D02*
X119000000Y-66952380D01*
X118904761Y-67095238D01*
X118809523Y-67190476D01*
X118714285Y-67238095D01*
%TO.C,H4*%
X214238095Y-132252380D02*
X214238095Y-131252380D01*
X214238095Y-131728571D02*
X214809523Y-131728571D01*
X214809523Y-132252380D02*
X214809523Y-131252380D01*
X215714285Y-131585714D02*
X215714285Y-132252380D01*
X215476190Y-131204761D02*
X215238095Y-131919047D01*
X215857142Y-131919047D01*
%TO.C,D5*%
X132391904Y-138492380D02*
X132391904Y-137492380D01*
X132630000Y-137492380D01*
X132772857Y-137540000D01*
X132868095Y-137635238D01*
X132915714Y-137730476D01*
X132963333Y-137920952D01*
X132963333Y-138063809D01*
X132915714Y-138254285D01*
X132868095Y-138349523D01*
X132772857Y-138444761D01*
X132630000Y-138492380D01*
X132391904Y-138492380D01*
X133868095Y-137492380D02*
X133391904Y-137492380D01*
X133344285Y-137968571D01*
X133391904Y-137920952D01*
X133487142Y-137873333D01*
X133725238Y-137873333D01*
X133820476Y-137920952D01*
X133868095Y-137968571D01*
X133915714Y-138063809D01*
X133915714Y-138301904D01*
X133868095Y-138397142D01*
X133820476Y-138444761D01*
X133725238Y-138492380D01*
X133487142Y-138492380D01*
X133391904Y-138444761D01*
X133344285Y-138397142D01*
%TO.C,SW1*%
X147344761Y-141293333D02*
X147392380Y-141150476D01*
X147392380Y-140912380D01*
X147344761Y-140817142D01*
X147297142Y-140769523D01*
X147201904Y-140721904D01*
X147106666Y-140721904D01*
X147011428Y-140769523D01*
X146963809Y-140817142D01*
X146916190Y-140912380D01*
X146868571Y-141102857D01*
X146820952Y-141198095D01*
X146773333Y-141245714D01*
X146678095Y-141293333D01*
X146582857Y-141293333D01*
X146487619Y-141245714D01*
X146440000Y-141198095D01*
X146392380Y-141102857D01*
X146392380Y-140864761D01*
X146440000Y-140721904D01*
X146392380Y-140388571D02*
X147392380Y-140150476D01*
X146678095Y-139960000D01*
X147392380Y-139769523D01*
X146392380Y-139531428D01*
X147392380Y-138626666D02*
X147392380Y-139198095D01*
X147392380Y-138912380D02*
X146392380Y-138912380D01*
X146535238Y-139007619D01*
X146630476Y-139102857D01*
X146678095Y-139198095D01*
%TO.C,J9*%
X101266666Y-113982380D02*
X101266666Y-114696666D01*
X101219047Y-114839523D01*
X101123809Y-114934761D01*
X100980952Y-114982380D01*
X100885714Y-114982380D01*
X101790476Y-114982380D02*
X101980952Y-114982380D01*
X102076190Y-114934761D01*
X102123809Y-114887142D01*
X102219047Y-114744285D01*
X102266666Y-114553809D01*
X102266666Y-114172857D01*
X102219047Y-114077619D01*
X102171428Y-114030000D01*
X102076190Y-113982380D01*
X101885714Y-113982380D01*
X101790476Y-114030000D01*
X101742857Y-114077619D01*
X101695238Y-114172857D01*
X101695238Y-114410952D01*
X101742857Y-114506190D01*
X101790476Y-114553809D01*
X101885714Y-114601428D01*
X102076190Y-114601428D01*
X102171428Y-114553809D01*
X102219047Y-114506190D01*
X102266666Y-114410952D01*
%TO.C,D2*%
X109531904Y-138492380D02*
X109531904Y-137492380D01*
X109770000Y-137492380D01*
X109912857Y-137540000D01*
X110008095Y-137635238D01*
X110055714Y-137730476D01*
X110103333Y-137920952D01*
X110103333Y-138063809D01*
X110055714Y-138254285D01*
X110008095Y-138349523D01*
X109912857Y-138444761D01*
X109770000Y-138492380D01*
X109531904Y-138492380D01*
X110484285Y-137587619D02*
X110531904Y-137540000D01*
X110627142Y-137492380D01*
X110865238Y-137492380D01*
X110960476Y-137540000D01*
X111008095Y-137587619D01*
X111055714Y-137682857D01*
X111055714Y-137778095D01*
X111008095Y-137920952D01*
X110436666Y-138492380D01*
X111055714Y-138492380D01*
%TO.C,U3*%
X124238095Y-123552380D02*
X124238095Y-124361904D01*
X124285714Y-124457142D01*
X124333333Y-124504761D01*
X124428571Y-124552380D01*
X124619047Y-124552380D01*
X124714285Y-124504761D01*
X124761904Y-124457142D01*
X124809523Y-124361904D01*
X124809523Y-123552380D01*
X125190476Y-123552380D02*
X125809523Y-123552380D01*
X125476190Y-123933333D01*
X125619047Y-123933333D01*
X125714285Y-123980952D01*
X125761904Y-124028571D01*
X125809523Y-124123809D01*
X125809523Y-124361904D01*
X125761904Y-124457142D01*
X125714285Y-124504761D01*
X125619047Y-124552380D01*
X125333333Y-124552380D01*
X125238095Y-124504761D01*
X125190476Y-124457142D01*
%TO.C,J8*%
X101266666Y-91122380D02*
X101266666Y-91836666D01*
X101219047Y-91979523D01*
X101123809Y-92074761D01*
X100980952Y-92122380D01*
X100885714Y-92122380D01*
X101885714Y-91550952D02*
X101790476Y-91503333D01*
X101742857Y-91455714D01*
X101695238Y-91360476D01*
X101695238Y-91312857D01*
X101742857Y-91217619D01*
X101790476Y-91170000D01*
X101885714Y-91122380D01*
X102076190Y-91122380D01*
X102171428Y-91170000D01*
X102219047Y-91217619D01*
X102266666Y-91312857D01*
X102266666Y-91360476D01*
X102219047Y-91455714D01*
X102171428Y-91503333D01*
X102076190Y-91550952D01*
X101885714Y-91550952D01*
X101790476Y-91598571D01*
X101742857Y-91646190D01*
X101695238Y-91741428D01*
X101695238Y-91931904D01*
X101742857Y-92027142D01*
X101790476Y-92074761D01*
X101885714Y-92122380D01*
X102076190Y-92122380D01*
X102171428Y-92074761D01*
X102219047Y-92027142D01*
X102266666Y-91931904D01*
X102266666Y-91741428D01*
X102219047Y-91646190D01*
X102171428Y-91598571D01*
X102076190Y-91550952D01*
%TO.C,U2*%
X98238095Y-148352380D02*
X98238095Y-149161904D01*
X98285714Y-149257142D01*
X98333333Y-149304761D01*
X98428571Y-149352380D01*
X98619047Y-149352380D01*
X98714285Y-149304761D01*
X98761904Y-149257142D01*
X98809523Y-149161904D01*
X98809523Y-148352380D01*
X99238095Y-148447619D02*
X99285714Y-148400000D01*
X99380952Y-148352380D01*
X99619047Y-148352380D01*
X99714285Y-148400000D01*
X99761904Y-148447619D01*
X99809523Y-148542857D01*
X99809523Y-148638095D01*
X99761904Y-148780952D01*
X99190476Y-149352380D01*
X99809523Y-149352380D01*
%TO.C,SW2*%
X162624761Y-141293333D02*
X162672380Y-141150476D01*
X162672380Y-140912380D01*
X162624761Y-140817142D01*
X162577142Y-140769523D01*
X162481904Y-140721904D01*
X162386666Y-140721904D01*
X162291428Y-140769523D01*
X162243809Y-140817142D01*
X162196190Y-140912380D01*
X162148571Y-141102857D01*
X162100952Y-141198095D01*
X162053333Y-141245714D01*
X161958095Y-141293333D01*
X161862857Y-141293333D01*
X161767619Y-141245714D01*
X161720000Y-141198095D01*
X161672380Y-141102857D01*
X161672380Y-140864761D01*
X161720000Y-140721904D01*
X161672380Y-140388571D02*
X162672380Y-140150476D01*
X161958095Y-139960000D01*
X162672380Y-139769523D01*
X161672380Y-139531428D01*
X161767619Y-139198095D02*
X161720000Y-139150476D01*
X161672380Y-139055238D01*
X161672380Y-138817142D01*
X161720000Y-138721904D01*
X161767619Y-138674285D01*
X161862857Y-138626666D01*
X161958095Y-138626666D01*
X162100952Y-138674285D01*
X162672380Y-139245714D01*
X162672380Y-138626666D01*
%TO.C,J13*%
X111690476Y-134952380D02*
X111690476Y-135666666D01*
X111642857Y-135809523D01*
X111547619Y-135904761D01*
X111404761Y-135952380D01*
X111309523Y-135952380D01*
X112690476Y-135952380D02*
X112119047Y-135952380D01*
X112404761Y-135952380D02*
X112404761Y-134952380D01*
X112309523Y-135095238D01*
X112214285Y-135190476D01*
X112119047Y-135238095D01*
X113023809Y-134952380D02*
X113642857Y-134952380D01*
X113309523Y-135333333D01*
X113452380Y-135333333D01*
X113547619Y-135380952D01*
X113595238Y-135428571D01*
X113642857Y-135523809D01*
X113642857Y-135761904D01*
X113595238Y-135857142D01*
X113547619Y-135904761D01*
X113452380Y-135952380D01*
X113166666Y-135952380D01*
X113071428Y-135904761D01*
X113023809Y-135857142D01*
%TO.C,U4*%
X150238095Y-114552380D02*
X150238095Y-115361904D01*
X150285714Y-115457142D01*
X150333333Y-115504761D01*
X150428571Y-115552380D01*
X150619047Y-115552380D01*
X150714285Y-115504761D01*
X150761904Y-115457142D01*
X150809523Y-115361904D01*
X150809523Y-114552380D01*
X151714285Y-114885714D02*
X151714285Y-115552380D01*
X151476190Y-114504761D02*
X151238095Y-115219047D01*
X151857142Y-115219047D01*
%TO.C,J6*%
X101266666Y-68342380D02*
X101266666Y-69056666D01*
X101219047Y-69199523D01*
X101123809Y-69294761D01*
X100980952Y-69342380D01*
X100885714Y-69342380D01*
X102171428Y-68342380D02*
X101980952Y-68342380D01*
X101885714Y-68390000D01*
X101838095Y-68437619D01*
X101742857Y-68580476D01*
X101695238Y-68770952D01*
X101695238Y-69151904D01*
X101742857Y-69247142D01*
X101790476Y-69294761D01*
X101885714Y-69342380D01*
X102076190Y-69342380D01*
X102171428Y-69294761D01*
X102219047Y-69247142D01*
X102266666Y-69151904D01*
X102266666Y-68913809D01*
X102219047Y-68818571D01*
X102171428Y-68770952D01*
X102076190Y-68723333D01*
X101885714Y-68723333D01*
X101790476Y-68770952D01*
X101742857Y-68818571D01*
X101695238Y-68913809D01*
%TO.C,J1*%
X139782380Y-103033333D02*
X140496666Y-103033333D01*
X140639523Y-103080952D01*
X140734761Y-103176190D01*
X140782380Y-103319047D01*
X140782380Y-103414285D01*
X140782380Y-102033333D02*
X140782380Y-102604761D01*
X140782380Y-102319047D02*
X139782380Y-102319047D01*
X139925238Y-102414285D01*
X140020476Y-102509523D01*
X140068095Y-102604761D01*
%TO.C,D6*%
X140011904Y-138492380D02*
X140011904Y-137492380D01*
X140250000Y-137492380D01*
X140392857Y-137540000D01*
X140488095Y-137635238D01*
X140535714Y-137730476D01*
X140583333Y-137920952D01*
X140583333Y-138063809D01*
X140535714Y-138254285D01*
X140488095Y-138349523D01*
X140392857Y-138444761D01*
X140250000Y-138492380D01*
X140011904Y-138492380D01*
X141440476Y-137492380D02*
X141250000Y-137492380D01*
X141154761Y-137540000D01*
X141107142Y-137587619D01*
X141011904Y-137730476D01*
X140964285Y-137920952D01*
X140964285Y-138301904D01*
X141011904Y-138397142D01*
X141059523Y-138444761D01*
X141154761Y-138492380D01*
X141345238Y-138492380D01*
X141440476Y-138444761D01*
X141488095Y-138397142D01*
X141535714Y-138301904D01*
X141535714Y-138063809D01*
X141488095Y-137968571D01*
X141440476Y-137920952D01*
X141345238Y-137873333D01*
X141154761Y-137873333D01*
X141059523Y-137920952D01*
X141011904Y-137968571D01*
X140964285Y-138063809D01*
%TO.C,H2*%
X199738095Y-37852380D02*
X199738095Y-36852380D01*
X199738095Y-37328571D02*
X200309523Y-37328571D01*
X200309523Y-37852380D02*
X200309523Y-36852380D01*
X200738095Y-36947619D02*
X200785714Y-36900000D01*
X200880952Y-36852380D01*
X201119047Y-36852380D01*
X201214285Y-36900000D01*
X201261904Y-36947619D01*
X201309523Y-37042857D01*
X201309523Y-37138095D01*
X201261904Y-37280952D01*
X200690476Y-37852380D01*
X201309523Y-37852380D01*
%TO.C,J14*%
X169842380Y-54149523D02*
X170556666Y-54149523D01*
X170699523Y-54197142D01*
X170794761Y-54292380D01*
X170842380Y-54435238D01*
X170842380Y-54530476D01*
X170842380Y-53149523D02*
X170842380Y-53720952D01*
X170842380Y-53435238D02*
X169842380Y-53435238D01*
X169985238Y-53530476D01*
X170080476Y-53625714D01*
X170128095Y-53720952D01*
X170175714Y-52292380D02*
X170842380Y-52292380D01*
X169794761Y-52530476D02*
X170509047Y-52768571D01*
X170509047Y-52149523D01*
%TO.C,J2*%
X131742380Y-38433333D02*
X132456666Y-38433333D01*
X132599523Y-38480952D01*
X132694761Y-38576190D01*
X132742380Y-38719047D01*
X132742380Y-38814285D01*
X131837619Y-38004761D02*
X131790000Y-37957142D01*
X131742380Y-37861904D01*
X131742380Y-37623809D01*
X131790000Y-37528571D01*
X131837619Y-37480952D01*
X131932857Y-37433333D01*
X132028095Y-37433333D01*
X132170952Y-37480952D01*
X132742380Y-38052380D01*
X132742380Y-37433333D01*
%TO.C,U7*%
X137338095Y-114552380D02*
X137338095Y-115361904D01*
X137385714Y-115457142D01*
X137433333Y-115504761D01*
X137528571Y-115552380D01*
X137719047Y-115552380D01*
X137814285Y-115504761D01*
X137861904Y-115457142D01*
X137909523Y-115361904D01*
X137909523Y-114552380D01*
X138290476Y-114552380D02*
X138957142Y-114552380D01*
X138528571Y-115552380D01*
%TO.C,D3*%
X117151904Y-138492380D02*
X117151904Y-137492380D01*
X117390000Y-137492380D01*
X117532857Y-137540000D01*
X117628095Y-137635238D01*
X117675714Y-137730476D01*
X117723333Y-137920952D01*
X117723333Y-138063809D01*
X117675714Y-138254285D01*
X117628095Y-138349523D01*
X117532857Y-138444761D01*
X117390000Y-138492380D01*
X117151904Y-138492380D01*
X118056666Y-137492380D02*
X118675714Y-137492380D01*
X118342380Y-137873333D01*
X118485238Y-137873333D01*
X118580476Y-137920952D01*
X118628095Y-137968571D01*
X118675714Y-138063809D01*
X118675714Y-138301904D01*
X118628095Y-138397142D01*
X118580476Y-138444761D01*
X118485238Y-138492380D01*
X118199523Y-138492380D01*
X118104285Y-138444761D01*
X118056666Y-138397142D01*
%TO.C,J12*%
X108410476Y-113982380D02*
X108410476Y-114696666D01*
X108362857Y-114839523D01*
X108267619Y-114934761D01*
X108124761Y-114982380D01*
X108029523Y-114982380D01*
X109410476Y-114982380D02*
X108839047Y-114982380D01*
X109124761Y-114982380D02*
X109124761Y-113982380D01*
X109029523Y-114125238D01*
X108934285Y-114220476D01*
X108839047Y-114268095D01*
X109791428Y-114077619D02*
X109839047Y-114030000D01*
X109934285Y-113982380D01*
X110172380Y-113982380D01*
X110267619Y-114030000D01*
X110315238Y-114077619D01*
X110362857Y-114172857D01*
X110362857Y-114268095D01*
X110315238Y-114410952D01*
X109743809Y-114982380D01*
X110362857Y-114982380D01*
%TO.C,H3*%
X84238095Y-132252380D02*
X84238095Y-131252380D01*
X84238095Y-131728571D02*
X84809523Y-131728571D01*
X84809523Y-132252380D02*
X84809523Y-131252380D01*
X85190476Y-131252380D02*
X85809523Y-131252380D01*
X85476190Y-131633333D01*
X85619047Y-131633333D01*
X85714285Y-131680952D01*
X85761904Y-131728571D01*
X85809523Y-131823809D01*
X85809523Y-132061904D01*
X85761904Y-132157142D01*
X85714285Y-132204761D01*
X85619047Y-132252380D01*
X85333333Y-132252380D01*
X85238095Y-132204761D01*
X85190476Y-132157142D01*
%TO.C,J3*%
X139722380Y-97933333D02*
X140436666Y-97933333D01*
X140579523Y-97980952D01*
X140674761Y-98076190D01*
X140722380Y-98219047D01*
X140722380Y-98314285D01*
X139722380Y-97552380D02*
X139722380Y-96933333D01*
X140103333Y-97266666D01*
X140103333Y-97123809D01*
X140150952Y-97028571D01*
X140198571Y-96980952D01*
X140293809Y-96933333D01*
X140531904Y-96933333D01*
X140627142Y-96980952D01*
X140674761Y-97028571D01*
X140722380Y-97123809D01*
X140722380Y-97409523D01*
X140674761Y-97504761D01*
X140627142Y-97552380D01*
%TO.C,H1*%
X98938095Y-39352380D02*
X98938095Y-38352380D01*
X98938095Y-38828571D02*
X99509523Y-38828571D01*
X99509523Y-39352380D02*
X99509523Y-38352380D01*
X100509523Y-39352380D02*
X99938095Y-39352380D01*
X100223809Y-39352380D02*
X100223809Y-38352380D01*
X100128571Y-38495238D01*
X100033333Y-38590476D01*
X99938095Y-38638095D01*
D12*
%TO.C,RV12*%
X213090000Y-107730000D02*
X214740000Y-107730000D01*
X204699000Y-99426000D02*
X204699000Y-95490000D01*
X204699000Y-107730000D02*
X204699000Y-103793000D01*
X214740000Y-107730000D02*
X214740000Y-103793000D01*
X210591000Y-107730000D02*
X211350000Y-107730000D01*
X204699000Y-107730000D02*
X206349000Y-107730000D01*
X208091000Y-107730000D02*
X208850000Y-107730000D01*
X204699000Y-95490000D02*
X214740000Y-95490000D01*
X214740000Y-99426000D02*
X214740000Y-95490000D01*
%TO.C,RV10*%
X182610000Y-107730000D02*
X184260000Y-107730000D01*
X174219000Y-99426000D02*
X174219000Y-95490000D01*
X174219000Y-107730000D02*
X174219000Y-103793000D01*
X184260000Y-107730000D02*
X184260000Y-103793000D01*
X180111000Y-107730000D02*
X180870000Y-107730000D01*
X174219000Y-107730000D02*
X175869000Y-107730000D01*
X177611000Y-107730000D02*
X178370000Y-107730000D01*
X174219000Y-95490000D02*
X184260000Y-95490000D01*
X184260000Y-99426000D02*
X184260000Y-95490000D01*
%TO.C,RV13*%
X167370000Y-125510000D02*
X169020000Y-125510000D01*
X158979000Y-117206000D02*
X158979000Y-113270000D01*
X158979000Y-125510000D02*
X158979000Y-121573000D01*
X169020000Y-125510000D02*
X169020000Y-121573000D01*
X164871000Y-125510000D02*
X165630000Y-125510000D01*
X158979000Y-125510000D02*
X160629000Y-125510000D01*
X162371000Y-125510000D02*
X163130000Y-125510000D01*
X158979000Y-113270000D02*
X169020000Y-113270000D01*
X169020000Y-117206000D02*
X169020000Y-113270000D01*
%TO.C,RV9*%
X167370000Y-107730000D02*
X169020000Y-107730000D01*
X158979000Y-99426000D02*
X158979000Y-95490000D01*
X158979000Y-107730000D02*
X158979000Y-103793000D01*
X169020000Y-107730000D02*
X169020000Y-103793000D01*
X164871000Y-107730000D02*
X165630000Y-107730000D01*
X158979000Y-107730000D02*
X160629000Y-107730000D01*
X162371000Y-107730000D02*
X163130000Y-107730000D01*
X158979000Y-95490000D02*
X169020000Y-95490000D01*
X169020000Y-99426000D02*
X169020000Y-95490000D01*
%TO.C,RV6*%
X182610000Y-89950000D02*
X184260000Y-89950000D01*
X174219000Y-81646000D02*
X174219000Y-77710000D01*
X174219000Y-89950000D02*
X174219000Y-86013000D01*
X184260000Y-89950000D02*
X184260000Y-86013000D01*
X180111000Y-89950000D02*
X180870000Y-89950000D01*
X174219000Y-89950000D02*
X175869000Y-89950000D01*
X177611000Y-89950000D02*
X178370000Y-89950000D01*
X174219000Y-77710000D02*
X184260000Y-77710000D01*
X184260000Y-81646000D02*
X184260000Y-77710000D01*
%TO.C,RV14*%
X182610000Y-125510000D02*
X184260000Y-125510000D01*
X174219000Y-117206000D02*
X174219000Y-113270000D01*
X174219000Y-125510000D02*
X174219000Y-121573000D01*
X184260000Y-125510000D02*
X184260000Y-121573000D01*
X180111000Y-125510000D02*
X180870000Y-125510000D01*
X174219000Y-125510000D02*
X175869000Y-125510000D01*
X177611000Y-125510000D02*
X178370000Y-125510000D01*
X174219000Y-113270000D02*
X184260000Y-113270000D01*
X184260000Y-117206000D02*
X184260000Y-113270000D01*
%TO.C,RV3*%
X197850000Y-72170000D02*
X199500000Y-72170000D01*
X189459000Y-63866000D02*
X189459000Y-59930000D01*
X189459000Y-72170000D02*
X189459000Y-68233000D01*
X199500000Y-72170000D02*
X199500000Y-68233000D01*
X195351000Y-72170000D02*
X196110000Y-72170000D01*
X189459000Y-72170000D02*
X191109000Y-72170000D01*
X192851000Y-72170000D02*
X193610000Y-72170000D01*
X189459000Y-59930000D02*
X199500000Y-59930000D01*
X199500000Y-63866000D02*
X199500000Y-59930000D01*
%TO.C,RV2*%
X182610000Y-72170000D02*
X184260000Y-72170000D01*
X174219000Y-63866000D02*
X174219000Y-59930000D01*
X174219000Y-72170000D02*
X174219000Y-68233000D01*
X184260000Y-72170000D02*
X184260000Y-68233000D01*
X180111000Y-72170000D02*
X180870000Y-72170000D01*
X174219000Y-72170000D02*
X175869000Y-72170000D01*
X177611000Y-72170000D02*
X178370000Y-72170000D01*
X174219000Y-59930000D02*
X184260000Y-59930000D01*
X184260000Y-63866000D02*
X184260000Y-59930000D01*
%TO.C,RV15*%
X197850000Y-125510000D02*
X199500000Y-125510000D01*
X189459000Y-117206000D02*
X189459000Y-113270000D01*
X189459000Y-125510000D02*
X189459000Y-121573000D01*
X199500000Y-125510000D02*
X199500000Y-121573000D01*
X195351000Y-125510000D02*
X196110000Y-125510000D01*
X189459000Y-125510000D02*
X191109000Y-125510000D01*
X192851000Y-125510000D02*
X193610000Y-125510000D01*
X189459000Y-113270000D02*
X199500000Y-113270000D01*
X199500000Y-117206000D02*
X199500000Y-113270000D01*
%TO.C,RV8*%
X213090000Y-89950000D02*
X214740000Y-89950000D01*
X204699000Y-81646000D02*
X204699000Y-77710000D01*
X204699000Y-89950000D02*
X204699000Y-86013000D01*
X214740000Y-89950000D02*
X214740000Y-86013000D01*
X210591000Y-89950000D02*
X211350000Y-89950000D01*
X204699000Y-89950000D02*
X206349000Y-89950000D01*
X208091000Y-89950000D02*
X208850000Y-89950000D01*
X204699000Y-77710000D02*
X214740000Y-77710000D01*
X214740000Y-81646000D02*
X214740000Y-77710000D01*
%TO.C,RV11*%
X197850000Y-107730000D02*
X199500000Y-107730000D01*
X189459000Y-99426000D02*
X189459000Y-95490000D01*
X189459000Y-107730000D02*
X189459000Y-103793000D01*
X199500000Y-107730000D02*
X199500000Y-103793000D01*
X195351000Y-107730000D02*
X196110000Y-107730000D01*
X189459000Y-107730000D02*
X191109000Y-107730000D01*
X192851000Y-107730000D02*
X193610000Y-107730000D01*
X189459000Y-95490000D02*
X199500000Y-95490000D01*
X199500000Y-99426000D02*
X199500000Y-95490000D01*
%TO.C,RV1*%
X167370000Y-72170000D02*
X169020000Y-72170000D01*
X158979000Y-63866000D02*
X158979000Y-59930000D01*
X158979000Y-72170000D02*
X158979000Y-68233000D01*
X169020000Y-72170000D02*
X169020000Y-68233000D01*
X164871000Y-72170000D02*
X165630000Y-72170000D01*
X158979000Y-72170000D02*
X160629000Y-72170000D01*
X162371000Y-72170000D02*
X163130000Y-72170000D01*
X158979000Y-59930000D02*
X169020000Y-59930000D01*
X169020000Y-63866000D02*
X169020000Y-59930000D01*
%TO.C,RV4*%
X213090000Y-72170000D02*
X214740000Y-72170000D01*
X204699000Y-63866000D02*
X204699000Y-59930000D01*
X204699000Y-72170000D02*
X204699000Y-68233000D01*
X214740000Y-72170000D02*
X214740000Y-68233000D01*
X210591000Y-72170000D02*
X211350000Y-72170000D01*
X204699000Y-72170000D02*
X206349000Y-72170000D01*
X208091000Y-72170000D02*
X208850000Y-72170000D01*
X204699000Y-59930000D02*
X214740000Y-59930000D01*
X214740000Y-63866000D02*
X214740000Y-59930000D01*
%TO.C,RV16*%
X213090000Y-125510000D02*
X214740000Y-125510000D01*
X204699000Y-117206000D02*
X204699000Y-113270000D01*
X204699000Y-125510000D02*
X204699000Y-121573000D01*
X214740000Y-125510000D02*
X214740000Y-121573000D01*
X210591000Y-125510000D02*
X211350000Y-125510000D01*
X204699000Y-125510000D02*
X206349000Y-125510000D01*
X208091000Y-125510000D02*
X208850000Y-125510000D01*
X204699000Y-113270000D02*
X214740000Y-113270000D01*
X214740000Y-117206000D02*
X214740000Y-113270000D01*
%TO.C,RV5*%
X167370000Y-89950000D02*
X169020000Y-89950000D01*
X158979000Y-81646000D02*
X158979000Y-77710000D01*
X158979000Y-89950000D02*
X158979000Y-86013000D01*
X169020000Y-89950000D02*
X169020000Y-86013000D01*
X164871000Y-89950000D02*
X165630000Y-89950000D01*
X158979000Y-89950000D02*
X160629000Y-89950000D01*
X162371000Y-89950000D02*
X163130000Y-89950000D01*
X158979000Y-77710000D02*
X169020000Y-77710000D01*
X169020000Y-81646000D02*
X169020000Y-77710000D01*
%TO.C,RV7*%
X197850000Y-89950000D02*
X199500000Y-89950000D01*
X189459000Y-81646000D02*
X189459000Y-77710000D01*
X189459000Y-89950000D02*
X189459000Y-86013000D01*
X199500000Y-89950000D02*
X199500000Y-86013000D01*
X195351000Y-89950000D02*
X196110000Y-89950000D01*
X189459000Y-89950000D02*
X191109000Y-89950000D01*
X192851000Y-89950000D02*
X193610000Y-89950000D01*
X189459000Y-77710000D02*
X199500000Y-77710000D01*
X199500000Y-81646000D02*
X199500000Y-77710000D01*
%TO.C,U6*%
X118000000Y-55060000D02*
X116050000Y-55060000D01*
X118000000Y-44940000D02*
X114550000Y-44940000D01*
X118000000Y-44940000D02*
X119950000Y-44940000D01*
X118000000Y-55060000D02*
X119950000Y-55060000D01*
%TO.C,D36*%
X99000000Y-121050000D02*
X95340000Y-121050000D01*
X99000000Y-122950000D02*
X99000000Y-121050000D01*
X99000000Y-122950000D02*
X95340000Y-122950000D01*
%TO.C,R17*%
X105639564Y-66775000D02*
X105185436Y-66775000D01*
X105639564Y-65305000D02*
X105185436Y-65305000D01*
%TO.C,D28*%
X99000000Y-100090000D02*
X95340000Y-100090000D01*
X99000000Y-98190000D02*
X95340000Y-98190000D01*
X99000000Y-100090000D02*
X99000000Y-98190000D01*
%TO.C,R40*%
X105639564Y-122655000D02*
X105185436Y-122655000D01*
X105639564Y-121185000D02*
X105185436Y-121185000D01*
%TO.C,JP1*%
X186690000Y-54670000D02*
X186690000Y-52010000D01*
X189290000Y-54670000D02*
X189290000Y-52010000D01*
X186690000Y-54670000D02*
X189290000Y-54670000D01*
X184090000Y-54670000D02*
X184090000Y-53340000D01*
X185420000Y-54670000D02*
X184090000Y-54670000D01*
X186690000Y-52010000D02*
X189290000Y-52010000D01*
%TO.C,U13*%
X118000000Y-110940000D02*
X114550000Y-110940000D01*
X118000000Y-121060000D02*
X116050000Y-121060000D01*
X118000000Y-110940000D02*
X119950000Y-110940000D01*
X118000000Y-121060000D02*
X119950000Y-121060000D01*
%TO.C,R22*%
X105639564Y-72925000D02*
X105185436Y-72925000D01*
X105639564Y-74395000D02*
X105185436Y-74395000D01*
%TO.C,D35*%
X99000000Y-125490000D02*
X99000000Y-123590000D01*
X99000000Y-125490000D02*
X95340000Y-125490000D01*
X99000000Y-123590000D02*
X95340000Y-123590000D01*
%TO.C,R39*%
X105639564Y-131345000D02*
X105185436Y-131345000D01*
X105639564Y-132815000D02*
X105185436Y-132815000D01*
%TO.C,D8*%
X98960000Y-62610000D02*
X95300000Y-62610000D01*
X98960000Y-64510000D02*
X95300000Y-64510000D01*
X98960000Y-64510000D02*
X98960000Y-62610000D01*
%TO.C,D33*%
X99000000Y-130570000D02*
X95340000Y-130570000D01*
X99000000Y-130570000D02*
X99000000Y-128670000D01*
X99000000Y-128670000D02*
X95340000Y-128670000D01*
%TO.C,R36*%
X105639564Y-116105000D02*
X105185436Y-116105000D01*
X105639564Y-117575000D02*
X105185436Y-117575000D01*
%TO.C,D26*%
X99000000Y-103270000D02*
X95340000Y-103270000D01*
X99000000Y-105170000D02*
X95340000Y-105170000D01*
X99000000Y-105170000D02*
X99000000Y-103270000D01*
%TO.C,R10*%
X139252936Y-145485000D02*
X139707064Y-145485000D01*
X139252936Y-146955000D02*
X139707064Y-146955000D01*
%TO.C,R41*%
X105639564Y-135355000D02*
X105185436Y-135355000D01*
X105639564Y-133885000D02*
X105185436Y-133885000D01*
%TO.C,U10*%
X89500000Y-119640000D02*
X91450000Y-119640000D01*
X89500000Y-129760000D02*
X92950000Y-129760000D01*
X89500000Y-119640000D02*
X87550000Y-119640000D01*
X89500000Y-129760000D02*
X87550000Y-129760000D01*
%TO.C,D13*%
X98960000Y-51810000D02*
X98960000Y-49910000D01*
X98960000Y-51810000D02*
X95300000Y-51810000D01*
X98960000Y-49910000D02*
X95300000Y-49910000D01*
%TO.C,U9*%
X89500000Y-99090000D02*
X87550000Y-99090000D01*
X89500000Y-109210000D02*
X87550000Y-109210000D01*
X89500000Y-99090000D02*
X91450000Y-99090000D01*
X89500000Y-109210000D02*
X92950000Y-109210000D01*
%TO.C,D9*%
X98960000Y-61970000D02*
X95300000Y-61970000D01*
X98960000Y-61970000D02*
X98960000Y-60070000D01*
X98960000Y-60070000D02*
X95300000Y-60070000D01*
%TO.C,R12*%
X105639564Y-47525000D02*
X105185436Y-47525000D01*
X105639564Y-48995000D02*
X105185436Y-48995000D01*
%TO.C,U12*%
X118000000Y-101060000D02*
X116050000Y-101060000D01*
X118000000Y-90940000D02*
X119950000Y-90940000D01*
X118000000Y-90940000D02*
X114550000Y-90940000D01*
X118000000Y-101060000D02*
X119950000Y-101060000D01*
%TO.C,D7*%
X98960000Y-65150000D02*
X95300000Y-65150000D01*
X98960000Y-67050000D02*
X98960000Y-65150000D01*
X98960000Y-67050000D02*
X95300000Y-67050000D01*
%TO.C,R29*%
X105639564Y-105945000D02*
X105185436Y-105945000D01*
X105639564Y-107415000D02*
X105185436Y-107415000D01*
%TO.C,D17*%
X98960000Y-84750000D02*
X95300000Y-84750000D01*
X98960000Y-84750000D02*
X98960000Y-82850000D01*
X98960000Y-82850000D02*
X95300000Y-82850000D01*
%TO.C,D1*%
X215000000Y-50100000D02*
X215000000Y-54000000D01*
X217000000Y-50100000D02*
X217000000Y-54000000D01*
X217000000Y-50100000D02*
X215000000Y-50100000D01*
%TO.C,D11*%
X98960000Y-56890000D02*
X95300000Y-56890000D01*
X98960000Y-56890000D02*
X98960000Y-54990000D01*
X98960000Y-54990000D02*
X95300000Y-54990000D01*
%TO.C,D29*%
X99000000Y-95650000D02*
X95340000Y-95650000D01*
X99000000Y-97550000D02*
X99000000Y-95650000D01*
X99000000Y-97550000D02*
X95340000Y-97550000D01*
%TO.C,J10*%
X102930000Y-115510000D02*
X100270000Y-115510000D01*
X100270000Y-133350000D02*
X100270000Y-115510000D01*
X102930000Y-133350000D02*
X100270000Y-133350000D01*
X100270000Y-135950000D02*
X100270000Y-134620000D01*
X102930000Y-133350000D02*
X102930000Y-115510000D01*
X101600000Y-135950000D02*
X100270000Y-135950000D01*
%TO.C,SW3*%
X190770000Y-133440000D02*
X190770000Y-145740000D01*
X178470000Y-145740000D02*
X178470000Y-133440000D01*
X190770000Y-145740000D02*
X188216000Y-145740000D01*
X178470000Y-133440000D02*
X181104000Y-133440000D01*
X183136000Y-133440000D02*
X186057000Y-133440000D01*
X188216000Y-133440000D02*
X190770000Y-133440000D01*
X180977000Y-145740000D02*
X178470000Y-145740000D01*
X186057000Y-145740000D02*
X183263000Y-145740000D01*
X189239050Y-139490000D02*
G75*
G03*
X189239050Y-139490000I-4579050J0D01*
G01*
%TO.C,R9*%
X131632936Y-146955000D02*
X132087064Y-146955000D01*
X131632936Y-145485000D02*
X132087064Y-145485000D01*
%TO.C,D4*%
X122950000Y-140455000D02*
X122950000Y-143545000D01*
X122950000Y-143544830D02*
G75*
G03*
X128500000Y-141999538I2560000J1544830D01*
G01*
X128500000Y-142000462D02*
G75*
G03*
X122950000Y-140455170I-2990000J462D01*
G01*
X128010000Y-142000000D02*
G75*
G03*
X128010000Y-142000000I-2500000J0D01*
G01*
%TO.C,R15*%
X105639564Y-62765000D02*
X105185436Y-62765000D01*
X105639564Y-64235000D02*
X105185436Y-64235000D01*
%TO.C,J7*%
X110550000Y-64770000D02*
X110550000Y-46930000D01*
X110550000Y-46930000D02*
X107890000Y-46930000D01*
X109220000Y-67370000D02*
X107890000Y-67370000D01*
X110550000Y-64770000D02*
X107890000Y-64770000D01*
X107890000Y-67370000D02*
X107890000Y-66040000D01*
X107890000Y-64770000D02*
X107890000Y-46930000D01*
%TO.C,R42*%
X105639564Y-125195000D02*
X105185436Y-125195000D01*
X105639564Y-123725000D02*
X105185436Y-123725000D01*
%TO.C,U8*%
X89500000Y-75940000D02*
X91450000Y-75940000D01*
X89500000Y-86060000D02*
X87550000Y-86060000D01*
X89500000Y-75940000D02*
X87550000Y-75940000D01*
X89500000Y-86060000D02*
X92950000Y-86060000D01*
%TO.C,R33*%
X105639564Y-112495000D02*
X105185436Y-112495000D01*
X105639564Y-111025000D02*
X105185436Y-111025000D01*
%TO.C,R1*%
X207272936Y-57135000D02*
X207727064Y-57135000D01*
X207272936Y-55665000D02*
X207727064Y-55665000D01*
%TO.C,SW4*%
X201257000Y-145740000D02*
X198463000Y-145740000D01*
X203416000Y-133440000D02*
X205970000Y-133440000D01*
X198336000Y-133440000D02*
X201257000Y-133440000D01*
X193670000Y-145740000D02*
X193670000Y-133440000D01*
X196177000Y-145740000D02*
X193670000Y-145740000D01*
X205970000Y-145740000D02*
X203416000Y-145740000D01*
X193670000Y-133440000D02*
X196304000Y-133440000D01*
X205970000Y-133440000D02*
X205970000Y-145740000D01*
X204439050Y-139490000D02*
G75*
G03*
X204439050Y-139490000I-4579050J0D01*
G01*
%TO.C,U5*%
X89700000Y-53740000D02*
X87750000Y-53740000D01*
X89700000Y-63860000D02*
X87750000Y-63860000D01*
X89700000Y-53740000D02*
X91650000Y-53740000D01*
X89700000Y-63860000D02*
X93150000Y-63860000D01*
%TO.C,D38*%
X99000000Y-115970000D02*
X95340000Y-115970000D01*
X99000000Y-117870000D02*
X99000000Y-115970000D01*
X99000000Y-117870000D02*
X95340000Y-117870000D01*
%TO.C,J4*%
X163830000Y-54670000D02*
X166430000Y-54670000D01*
X162560000Y-54670000D02*
X161230000Y-54670000D01*
X161230000Y-54670000D02*
X161230000Y-53340000D01*
X163830000Y-54670000D02*
X163830000Y-52010000D01*
X166430000Y-54670000D02*
X166430000Y-52010000D01*
X163830000Y-52010000D02*
X166430000Y-52010000D01*
%TO.C,J11*%
X109220000Y-90230000D02*
X107890000Y-90230000D01*
X107890000Y-90230000D02*
X107890000Y-88900000D01*
X110550000Y-69790000D02*
X107890000Y-69790000D01*
X110550000Y-87630000D02*
X110550000Y-69790000D01*
X110550000Y-87630000D02*
X107890000Y-87630000D01*
X107890000Y-87630000D02*
X107890000Y-69790000D01*
%TO.C,D20*%
X98960000Y-77130000D02*
X95300000Y-77130000D01*
X98960000Y-77130000D02*
X98960000Y-75230000D01*
X98960000Y-75230000D02*
X95300000Y-75230000D01*
%TO.C,D27*%
X99000000Y-102630000D02*
X95340000Y-102630000D01*
X99000000Y-102630000D02*
X99000000Y-100730000D01*
X99000000Y-100730000D02*
X95340000Y-100730000D01*
%TO.C,R3*%
X208135000Y-47785436D02*
X208135000Y-48239564D01*
X206665000Y-47785436D02*
X206665000Y-48239564D01*
%TO.C,R8*%
X124012936Y-146955000D02*
X124467064Y-146955000D01*
X124012936Y-145485000D02*
X124467064Y-145485000D01*
%TO.C,D34*%
X99000000Y-128030000D02*
X95340000Y-128030000D01*
X99000000Y-128030000D02*
X99000000Y-126130000D01*
X99000000Y-126130000D02*
X95340000Y-126130000D01*
%TO.C,U11*%
X118000000Y-68340000D02*
X119950000Y-68340000D01*
X118000000Y-78460000D02*
X119950000Y-78460000D01*
X118000000Y-78460000D02*
X116050000Y-78460000D01*
X118000000Y-68340000D02*
X114550000Y-68340000D01*
%TO.C,R28*%
X105639564Y-94715000D02*
X105185436Y-94715000D01*
X105639564Y-93245000D02*
X105185436Y-93245000D01*
%TO.C,D25*%
X99000000Y-107710000D02*
X99000000Y-105810000D01*
X99000000Y-105810000D02*
X95340000Y-105810000D01*
X99000000Y-107710000D02*
X95340000Y-107710000D01*
%TO.C,D5*%
X130570000Y-140455000D02*
X130570000Y-143545000D01*
X130570000Y-143544830D02*
G75*
G03*
X136120000Y-141999538I2560000J1544830D01*
G01*
X136120000Y-142000462D02*
G75*
G03*
X130570000Y-140455170I-2990000J462D01*
G01*
X135630000Y-142000000D02*
G75*
G03*
X135630000Y-142000000I-2500000J0D01*
G01*
%TO.C,SW1*%
X160250000Y-145940000D02*
X157696000Y-145940000D01*
X150457000Y-145940000D02*
X147950000Y-145940000D01*
X157696000Y-133640000D02*
X160250000Y-133640000D01*
X160250000Y-133640000D02*
X160250000Y-145940000D01*
X147950000Y-145940000D02*
X147950000Y-133640000D01*
X155537000Y-145940000D02*
X152743000Y-145940000D01*
X152616000Y-133640000D02*
X155537000Y-133640000D01*
X147950000Y-133640000D02*
X150584000Y-133640000D01*
X158719050Y-139690000D02*
G75*
G03*
X158719050Y-139690000I-4579050J0D01*
G01*
%TO.C,D32*%
X99000000Y-131210000D02*
X95340000Y-131210000D01*
X99000000Y-133110000D02*
X95340000Y-133110000D01*
X99000000Y-133110000D02*
X99000000Y-131210000D01*
%TO.C,J9*%
X102930000Y-110490000D02*
X100270000Y-110490000D01*
X100270000Y-113090000D02*
X100270000Y-111760000D01*
X102930000Y-92650000D02*
X100270000Y-92650000D01*
X100270000Y-110490000D02*
X100270000Y-92650000D01*
X101600000Y-113090000D02*
X100270000Y-113090000D01*
X102930000Y-110490000D02*
X102930000Y-92650000D01*
%TO.C,R23*%
X105639564Y-85625000D02*
X105185436Y-85625000D01*
X105639564Y-87095000D02*
X105185436Y-87095000D01*
%TO.C,R4*%
X129060436Y-37265000D02*
X129514564Y-37265000D01*
X129060436Y-38735000D02*
X129514564Y-38735000D01*
%TO.C,D30*%
X99000000Y-95010000D02*
X99000000Y-93110000D01*
X99000000Y-93110000D02*
X95340000Y-93110000D01*
X99000000Y-95010000D02*
X95340000Y-95010000D01*
%TO.C,R7*%
X116392936Y-145485000D02*
X116847064Y-145485000D01*
X116392936Y-146955000D02*
X116847064Y-146955000D01*
%TO.C,D2*%
X107710000Y-140455000D02*
X107710000Y-143545000D01*
X107710000Y-143544830D02*
G75*
G03*
X113260000Y-141999538I2560000J1544830D01*
G01*
X113260000Y-142000462D02*
G75*
G03*
X107710000Y-140455170I-2990000J462D01*
G01*
X112770000Y-142000000D02*
G75*
G03*
X112770000Y-142000000I-2500000J0D01*
G01*
%TO.C,U3*%
X125000000Y-124940000D02*
X126950000Y-124940000D01*
X125000000Y-135060000D02*
X123050000Y-135060000D01*
X125000000Y-135060000D02*
X126950000Y-135060000D01*
X125000000Y-124940000D02*
X121550000Y-124940000D01*
%TO.C,R34*%
X105639564Y-102335000D02*
X105185436Y-102335000D01*
X105639564Y-100865000D02*
X105185436Y-100865000D01*
%TO.C,D12*%
X98960000Y-52450000D02*
X95300000Y-52450000D01*
X98960000Y-54350000D02*
X95300000Y-54350000D01*
X98960000Y-54350000D02*
X98960000Y-52450000D01*
%TO.C,D15*%
X98960000Y-89830000D02*
X98960000Y-87930000D01*
X98960000Y-89830000D02*
X95300000Y-89830000D01*
X98960000Y-87930000D02*
X95300000Y-87930000D01*
%TO.C,D37*%
X99000000Y-120410000D02*
X99000000Y-118510000D01*
X99000000Y-118510000D02*
X95340000Y-118510000D01*
X99000000Y-120410000D02*
X95340000Y-120410000D01*
%TO.C,R18*%
X105639564Y-56615000D02*
X105185436Y-56615000D01*
X105639564Y-55145000D02*
X105185436Y-55145000D01*
%TO.C,D19*%
X98960000Y-77770000D02*
X95300000Y-77770000D01*
X98960000Y-79670000D02*
X95300000Y-79670000D01*
X98960000Y-79670000D02*
X98960000Y-77770000D01*
%TO.C,J8*%
X101600000Y-90230000D02*
X100270000Y-90230000D01*
X102930000Y-87630000D02*
X102930000Y-69790000D01*
X100270000Y-87630000D02*
X100270000Y-69790000D01*
X100270000Y-90230000D02*
X100270000Y-88900000D01*
X102930000Y-87630000D02*
X100270000Y-87630000D01*
X102930000Y-69790000D02*
X100270000Y-69790000D01*
%TO.C,R32*%
X105639564Y-99795000D02*
X105185436Y-99795000D01*
X105639564Y-98325000D02*
X105185436Y-98325000D01*
%TO.C,D24*%
X99000000Y-110250000D02*
X99000000Y-108350000D01*
X99000000Y-110250000D02*
X95340000Y-110250000D01*
X99000000Y-108350000D02*
X95340000Y-108350000D01*
%TO.C,U2*%
X99000000Y-148060000D02*
X97050000Y-148060000D01*
X99000000Y-137940000D02*
X100950000Y-137940000D01*
X99000000Y-148060000D02*
X102450000Y-148060000D01*
X99000000Y-137940000D02*
X97050000Y-137940000D01*
%TO.C,D23*%
X99000000Y-110890000D02*
X95340000Y-110890000D01*
X99000000Y-112790000D02*
X95340000Y-112790000D01*
X99000000Y-112790000D02*
X99000000Y-110890000D01*
%TO.C,R11*%
X105639564Y-57685000D02*
X105185436Y-57685000D01*
X105639564Y-59155000D02*
X105185436Y-59155000D01*
%TO.C,SW2*%
X167896000Y-133640000D02*
X170817000Y-133640000D01*
X172976000Y-133640000D02*
X175530000Y-133640000D01*
X170817000Y-145940000D02*
X168023000Y-145940000D01*
X165737000Y-145940000D02*
X163230000Y-145940000D01*
X163230000Y-145940000D02*
X163230000Y-133640000D01*
X163230000Y-133640000D02*
X165864000Y-133640000D01*
X175530000Y-145940000D02*
X172976000Y-145940000D01*
X175530000Y-133640000D02*
X175530000Y-145940000D01*
X173999050Y-139690000D02*
G75*
G03*
X173999050Y-139690000I-4579050J0D01*
G01*
%TO.C,R16*%
X105639564Y-54075000D02*
X105185436Y-54075000D01*
X105639564Y-52605000D02*
X105185436Y-52605000D01*
%TO.C,R2*%
X206665000Y-52439564D02*
X206665000Y-51985436D01*
X208135000Y-52439564D02*
X208135000Y-51985436D01*
%TO.C,D14*%
X98960000Y-49270000D02*
X95300000Y-49270000D01*
X98960000Y-47370000D02*
X95300000Y-47370000D01*
X98960000Y-49270000D02*
X98960000Y-47370000D01*
%TO.C,R35*%
X105639564Y-126265000D02*
X105185436Y-126265000D01*
X105639564Y-127735000D02*
X105185436Y-127735000D01*
%TO.C,R24*%
X105639564Y-75465000D02*
X105185436Y-75465000D01*
X105639564Y-76935000D02*
X105185436Y-76935000D01*
%TO.C,J13*%
X107870000Y-133350000D02*
X107870000Y-115510000D01*
X109200000Y-135950000D02*
X107870000Y-135950000D01*
X110530000Y-133350000D02*
X110530000Y-115510000D01*
X110530000Y-115510000D02*
X107870000Y-115510000D01*
X110530000Y-133350000D02*
X107870000Y-133350000D01*
X107870000Y-135950000D02*
X107870000Y-134620000D01*
%TO.C,D16*%
X98960000Y-85390000D02*
X95300000Y-85390000D01*
X98960000Y-87290000D02*
X98960000Y-85390000D01*
X98960000Y-87290000D02*
X95300000Y-87290000D01*
%TO.C,D31*%
X99000000Y-135650000D02*
X95340000Y-135650000D01*
X99000000Y-135650000D02*
X99000000Y-133750000D01*
X99000000Y-133750000D02*
X95340000Y-133750000D01*
%TO.C,R13*%
X105639564Y-61695000D02*
X105185436Y-61695000D01*
X105639564Y-60225000D02*
X105185436Y-60225000D01*
%TO.C,R38*%
X105639564Y-120115000D02*
X105185436Y-120115000D01*
X105639564Y-118645000D02*
X105185436Y-118645000D01*
%TO.C,R21*%
X105639564Y-83085000D02*
X105185436Y-83085000D01*
X105639564Y-84555000D02*
X105185436Y-84555000D01*
%TO.C,U4*%
X151000000Y-126060000D02*
X149050000Y-126060000D01*
X151000000Y-126060000D02*
X152950000Y-126060000D01*
X151000000Y-115940000D02*
X152950000Y-115940000D01*
X151000000Y-115940000D02*
X147550000Y-115940000D01*
%TO.C,J6*%
X102930000Y-47010000D02*
X100270000Y-47010000D01*
X100270000Y-67450000D02*
X100270000Y-66120000D01*
X102930000Y-64850000D02*
X102930000Y-47010000D01*
X101600000Y-67450000D02*
X100270000Y-67450000D01*
X100270000Y-64850000D02*
X100270000Y-47010000D01*
X102930000Y-64850000D02*
X100270000Y-64850000D01*
%TO.C,J1*%
X146530000Y-104030000D02*
X146530000Y-101370000D01*
X143930000Y-101370000D02*
X146530000Y-101370000D01*
X143930000Y-104030000D02*
X143930000Y-101370000D01*
X141330000Y-104030000D02*
X141330000Y-102700000D01*
X143930000Y-104030000D02*
X146530000Y-104030000D01*
X142660000Y-104030000D02*
X141330000Y-104030000D01*
%TO.C,D6*%
X138190000Y-140455000D02*
X138190000Y-143545000D01*
X138190000Y-143544830D02*
G75*
G03*
X143740000Y-141999538I2560000J1544830D01*
G01*
X143740000Y-142000462D02*
G75*
G03*
X138190000Y-140455170I-2990000J462D01*
G01*
X143250000Y-142000000D02*
G75*
G03*
X143250000Y-142000000I-2500000J0D01*
G01*
%TO.C,D21*%
X98960000Y-74590000D02*
X98960000Y-72690000D01*
X98960000Y-74590000D02*
X95300000Y-74590000D01*
X98960000Y-72690000D02*
X95300000Y-72690000D01*
%TO.C,R6*%
X108772936Y-145485000D02*
X109227064Y-145485000D01*
X108772936Y-146955000D02*
X109227064Y-146955000D01*
%TO.C,J14*%
X173990000Y-52010000D02*
X179130000Y-52010000D01*
X171390000Y-54670000D02*
X171390000Y-53340000D01*
X179130000Y-54670000D02*
X179130000Y-52010000D01*
X173990000Y-54670000D02*
X173990000Y-52010000D01*
X172720000Y-54670000D02*
X171390000Y-54670000D01*
X173990000Y-54670000D02*
X179130000Y-54670000D01*
%TO.C,R27*%
X105639564Y-104875000D02*
X105185436Y-104875000D01*
X105639564Y-103405000D02*
X105185436Y-103405000D01*
%TO.C,D18*%
X98960000Y-82210000D02*
X95300000Y-82210000D01*
X98960000Y-82210000D02*
X98960000Y-80310000D01*
X98960000Y-80310000D02*
X95300000Y-80310000D01*
%TO.C,R19*%
X105639564Y-80545000D02*
X105185436Y-80545000D01*
X105639564Y-82015000D02*
X105185436Y-82015000D01*
%TO.C,J2*%
X135890000Y-36770000D02*
X141030000Y-36770000D01*
X135890000Y-39430000D02*
X135890000Y-36770000D01*
X134620000Y-39430000D02*
X133290000Y-39430000D01*
X135890000Y-39430000D02*
X141030000Y-39430000D01*
X133290000Y-39430000D02*
X133290000Y-38100000D01*
X141030000Y-39430000D02*
X141030000Y-36770000D01*
%TO.C,R14*%
X105639564Y-51535000D02*
X105185436Y-51535000D01*
X105639564Y-50065000D02*
X105185436Y-50065000D01*
%TO.C,R25*%
X105639564Y-89635000D02*
X105185436Y-89635000D01*
X105639564Y-88165000D02*
X105185436Y-88165000D01*
%TO.C,D10*%
X98960000Y-57530000D02*
X95300000Y-57530000D01*
X98960000Y-59430000D02*
X95300000Y-59430000D01*
X98960000Y-59430000D02*
X98960000Y-57530000D01*
%TO.C,D22*%
X98960000Y-70150000D02*
X95300000Y-70150000D01*
X98960000Y-72050000D02*
X98960000Y-70150000D01*
X98960000Y-72050000D02*
X95300000Y-72050000D01*
%TO.C,R31*%
X105639564Y-108485000D02*
X105185436Y-108485000D01*
X105639564Y-109955000D02*
X105185436Y-109955000D01*
%TO.C,R26*%
X105639564Y-78005000D02*
X105185436Y-78005000D01*
X105639564Y-79475000D02*
X105185436Y-79475000D01*
%TO.C,U7*%
X138100000Y-115940000D02*
X134650000Y-115940000D01*
X138100000Y-126060000D02*
X136150000Y-126060000D01*
X138100000Y-126060000D02*
X140050000Y-126060000D01*
X138100000Y-115940000D02*
X140050000Y-115940000D01*
%TO.C,D3*%
X115330000Y-140455000D02*
X115330000Y-143545000D01*
X120880000Y-142000462D02*
G75*
G03*
X115330000Y-140455170I-2990000J462D01*
G01*
X115330000Y-143544830D02*
G75*
G03*
X120880000Y-141999538I2560000J1544830D01*
G01*
X120390000Y-142000000D02*
G75*
G03*
X120390000Y-142000000I-2500000J0D01*
G01*
%TO.C,J12*%
X110550000Y-92650000D02*
X107890000Y-92650000D01*
X107890000Y-113090000D02*
X107890000Y-111760000D01*
X109220000Y-113090000D02*
X107890000Y-113090000D01*
X110550000Y-110490000D02*
X107890000Y-110490000D01*
X110550000Y-110490000D02*
X110550000Y-92650000D01*
X107890000Y-110490000D02*
X107890000Y-92650000D01*
%TO.C,R5*%
X139085436Y-42535000D02*
X139539564Y-42535000D01*
X139085436Y-41065000D02*
X139539564Y-41065000D01*
%TO.C,J3*%
X146470000Y-98930000D02*
X146470000Y-96270000D01*
X141270000Y-98930000D02*
X141270000Y-97600000D01*
X143870000Y-98930000D02*
X146470000Y-98930000D01*
X143870000Y-98930000D02*
X143870000Y-96270000D01*
X142600000Y-98930000D02*
X141270000Y-98930000D01*
X143870000Y-96270000D02*
X146470000Y-96270000D01*
%TO.C,R20*%
X105639564Y-71855000D02*
X105185436Y-71855000D01*
X105639564Y-70385000D02*
X105185436Y-70385000D01*
%TO.C,R37*%
X105639564Y-128805000D02*
X105185436Y-128805000D01*
X105639564Y-130275000D02*
X105185436Y-130275000D01*
%TO.C,R30*%
X105639564Y-95785000D02*
X105185436Y-95785000D01*
X105639564Y-97255000D02*
X105185436Y-97255000D01*
%TD*%
M02*
